<?xml version="1.0" standalone="yes"?>

<svg version="1.1" viewBox="0.0 0.0 792.2230971128608 406.65354330708664" fill="none" stroke="none" stroke-linecap="square" stroke-miterlimit="10" xmlns="http://www.w3.org/2000/svg" xmlns:xlink="http://www.w3.org/1999/xlink"><clipPath id="p.0"><path d="m0 0l792.2231 0l0 406.65353l-792.2231 0l0 -406.65353z" clip-rule="nonzero"></path></clipPath><g clip-path="url(#p.0)"><path fill="#000000" fill-opacity="0.0" d="m0 0l792.2231 0l0 406.65353l-792.2231 0z" fill-rule="evenodd"></path><path stroke="#9e9e9e" stroke-width="1.0" stroke-linecap="butt" d="m21.391077 16.20735l0 200.99738" fill-rule="nonzero"></path><path stroke="#9e9e9e" stroke-width="1.0" stroke-linecap="butt" d="m67.291336 16.20735l0 200.99738" fill-rule="nonzero"></path><path stroke="#9e9e9e" stroke-width="1.0" stroke-linecap="butt" d="m138.31233 16.20735l0 200.99738" fill-rule="nonzero"></path><path stroke="#9e9e9e" stroke-width="1.0" stroke-linecap="butt" d="m196.7769 56.207348l0 160.99738" fill-rule="nonzero"></path><path stroke="#9e9e9e" stroke-width="1.0" stroke-linecap="butt" d="m255.23885 56.207348l0 160.99738" fill-rule="nonzero"></path><path stroke="#9e9e9e" stroke-width="1.0" stroke-linecap="butt" d="m313.70078 56.207348l0 160.99738" fill-rule="nonzero"></path><path stroke="#9e9e9e" stroke-width="1.0" stroke-linecap="butt" d="m372.16272 56.207348l0 160.99738" fill-rule="nonzero"></path><path stroke="#9e9e9e" stroke-width="1.0" stroke-linecap="butt" d="m430.62466 56.207348l0 160.99738" fill-rule="nonzero"></path><path stroke="#9e9e9e" stroke-width="1.0" stroke-linecap="butt" d="m489.0866 56.207348l0 160.99738" fill-rule="nonzero"></path><path stroke="#9e9e9e" stroke-width="1.0" stroke-linecap="butt" d="m547.5486 56.207348l0 160.99738" fill-rule="nonzero"></path><path stroke="#9e9e9e" stroke-width="1.0" stroke-linecap="butt" d="m606.0105 56.207348l0 160.99738" fill-rule="nonzero"></path><path stroke="#9e9e9e" stroke-width="1.0" stroke-linecap="butt" d="m664.4724 56.207348l0 160.99738" fill-rule="nonzero"></path><path stroke="#9e9e9e" stroke-width="1.0" stroke-linecap="butt" d="m722.9344 56.207348l0 160.99738" fill-rule="nonzero"></path><path stroke="#9e9e9e" stroke-width="1.0" stroke-linecap="butt" d="m781.3963 16.20735l0 200.99738" fill-rule="nonzero"></path><path stroke="#9e9e9e" stroke-width="1.0" stroke-linecap="butt" d="m20.89239 16.706038l761.0026 0" fill-rule="nonzero"></path><path stroke="#9e9e9e" stroke-width="1.0" stroke-linecap="butt" d="m137.81364 56.706036l644.08136 0" fill-rule="nonzero"></path><path stroke="#9e9e9e" stroke-width="1.0" stroke-linecap="butt" d="m20.89239 96.70604l761.0026 0" fill-rule="nonzero"></path><path stroke="#9e9e9e" stroke-width="1.0" stroke-linecap="butt" d="m20.89239 136.70604l761.0026 0" fill-rule="nonzero"></path><path stroke="#9e9e9e" stroke-width="1.0" stroke-linecap="butt" d="m20.89239 176.70604l761.0026 0" fill-rule="nonzero"></path><path stroke="#9e9e9e" stroke-width="1.0" stroke-linecap="butt" d="m20.89239 216.70604l761.0026 0" fill-rule="nonzero"></path><path fill="#000000" d="m43.109825 53.347286l-2.3125 0l0 -1.125l3.6875 0l0 6.703125l2.34375 0l0 1.140625l-6.296875 0l0 -1.140625l2.578125 0l0 -5.578125zm0.484375 -4.421875q0.21875 0 0.40625 0.09375q0.203125 0.078125 0.34375 0.234375q0.15625 0.140625 0.234375 0.328125q0.078125 0.1875 0.078125 0.421875q0 0.21875 -0.078125 0.421875q-0.078125 0.1875 -0.234375 0.34375q-0.140625 0.140625 -0.34375 0.21875q-0.1875 0.078125 -0.40625 0.078125q-0.234375 0 -0.4375 -0.078125q-0.1875 -0.078125 -0.328125 -0.21875q-0.140625 -0.15625 -0.234375 -0.34375q-0.078125 -0.203125 -0.078125 -0.421875q0 -0.234375 0.078125 -0.421875q0.09375 -0.1875 0.234375 -0.328125q0.140625 -0.15625 0.328125 -0.234375q0.203125 -0.09375 0.4375 -0.09375z" fill-rule="nonzero"></path><path fill="#000000" d="m77.541336 52.222286l1.21875 0l0.046875 1.265625q0.34375 -0.40625 0.65625 -0.671875q0.328125 -0.28125 0.640625 -0.4375q0.3125 -0.171875 0.625 -0.234375q0.328125 -0.0625 0.671875 -0.0625q1.203125 0 1.828125 0.71875q0.625 0.703125 0.625 2.140625l0 5.125l-1.359375 0l0 -5.015625q0 -0.921875 -0.34375 -1.359375q-0.34375 -0.4375 -1.03125 -0.4375q-0.25 0 -0.484375 0.078125q-0.234375 0.0625 -0.5 0.25q-0.25 0.1875 -0.5625 0.5q-0.296875 0.3125 -0.671875 0.78125l0 5.203125l-1.359375 0l0 -7.84375zm15.109375 7.84375l-1.21875 0l-0.046875 -1.265625q-0.359375 0.40625 -0.671875 0.671875q-0.3125 0.265625 -0.625 0.4375q-0.3125 0.171875 -0.640625 0.234375q-0.3125 0.0625 -0.65625 0.0625q-1.21875 0 -1.84375 -0.703125q-0.609375 -0.71875 -0.609375 -2.15625l0 -5.125l1.359375 0l0 5.015625q0 1.796875 1.359375 1.796875q0.25 0 0.484375 -0.0625q0.25 -0.078125 0.5 -0.265625q0.265625 -0.1875 0.5625 -0.5q0.3125 -0.3125 0.6875 -0.78125l0 -5.203125l1.359375 0l0 7.84375zm8.078125 0l0 -5.640625q0 -0.359375 -0.03125 -0.59375q-0.015625 -0.234375 -0.078125 -0.375q-0.0625 -0.140625 -0.15625 -0.1875q-0.078125 -0.0625 -0.21875 -0.0625q-0.15625 0 -0.296875 0.09375q-0.125 0.09375 -0.28125 0.3125q-0.140625 0.203125 -0.328125 0.5625q-0.1875 0.34375 -0.4375 0.84375l0 5.046875l-1.234375 0l0 -5.484375q0 -0.4375 -0.03125 -0.703125q-0.03125 -0.265625 -0.09375 -0.40625q-0.046875 -0.15625 -0.140625 -0.203125q-0.09375 -0.0625 -0.234375 -0.0625q-0.140625 0 -0.265625 0.078125q-0.125 0.078125 -0.28125 0.28125q-0.140625 0.203125 -0.328125 0.5625q-0.1875 0.34375 -0.453125 0.890625l0 5.046875l-1.25 0l0 -7.84375l1.046875 0l0.0625 1.484375q0.203125 -0.4375 0.390625 -0.75q0.1875 -0.3125 0.390625 -0.5q0.203125 -0.203125 0.4375 -0.28125q0.234375 -0.09375 0.515625 -0.09375q0.625 0 0.953125 0.421875q0.328125 0.40625 0.328125 1.265625q0.1875 -0.40625 0.359375 -0.71875q0.1875 -0.3125 0.390625 -0.53125q0.21875 -0.21875 0.46875 -0.328125q0.25 -0.109375 0.578125 -0.109375q1.46875 0 1.46875 2.265625l0 5.71875l-1.25 0zm10.75 3.203125l-8.796875 0l0 -1.125l8.796875 0l0 1.125zm3.921875 -9.921875l-2.3125 0l0 -1.125l3.6875 0l0 6.703125l2.34375 0l0 1.140625l-6.296875 0l0 -1.140625l2.578125 0l0 -5.578125zm0.484375 -4.421875q0.21875 0 0.40625 0.09375q0.203125 0.078125 0.34375 0.234375q0.15625 0.140625 0.234375 0.328125q0.078125 0.1875 0.078125 0.421875q0 0.21875 -0.078125 0.421875q-0.078125 0.1875 -0.234375 0.34375q-0.140625 0.140625 -0.34375 0.21875q-0.1875 0.078125 -0.40625 0.078125q-0.234375 0 -0.4375 -0.078125q-0.1875 -0.078125 -0.328125 -0.21875q-0.140625 -0.15625 -0.234375 -0.34375q-0.078125 -0.203125 -0.078125 -0.421875q0 -0.234375 0.078125 -0.421875q0.09375 -0.1875 0.234375 -0.328125q0.140625 -0.15625 0.328125 -0.234375q0.203125 -0.09375 0.4375 -0.09375z" fill-rule="nonzero"></path><path fill="#000000" d="m410.93735 33.222286l-1.140625 7.84375l-1.640625 0l-1.140625 -3.28125l-0.21875 -0.796875l-0.265625 0.84375l-1.078125 3.234375l-1.609375 0l-1.125 -7.84375l1.328125 0l0.65625 5.328125l0.140625 1.1875l0.328125 -1.046875l1.140625 -3.515625l0.984375 0l1.21875 3.46875l0.359375 1.046875l0.109375 -1.109375l0.609375 -5.359375l1.34375 0zm6.828125 11.046875l-3.84375 0l0 -14.515623l3.84375 0l0 1.09375l-2.546875 0l0 12.328123l2.546875 0l0 1.09375zm6.171875 -9.921875l-2.3125 0l0 -1.125l3.6875 0l0 6.703125l2.34375 0l0 1.140625l-6.296875 0l0 -1.140625l2.578125 0l0 -5.578125zm0.484375 -4.421873q0.21875 0 0.40625 0.09375q0.203125 0.078125 0.34375 0.234375q0.15625 0.140625 0.234375 0.328125q0.078125 0.1875 0.078125 0.421875q0 0.21875 -0.078125 0.421875q-0.078125 0.1875 -0.234375 0.34375q-0.140625 0.140625 -0.34375 0.21875q-0.1875 0.07812309 -0.40625 0.07812309q-0.234375 0 -0.4375 -0.07812309q-0.1875 -0.078125 -0.328125 -0.21875q-0.140625 -0.15625 -0.234375 -0.34375q-0.078125 -0.203125 -0.078125 -0.421875q0 -0.234375 0.078125 -0.421875q0.09375 -0.1875 0.234375 -0.328125q0.140625 -0.15625 0.328125 -0.234375q0.203125 -0.09375 0.4375 -0.09375zm10.5 14.343748l-3.859375 0l0 -1.09375l2.546875 0l0 -12.328123l-2.546875 0l0 -1.09375l3.859375 0l0 14.515623zm9.234375 0l-3.84375 0l0 -14.515623l3.84375 0l0 1.09375l-2.546875 0l0 12.328123l2.546875 0l0 1.09375zm8.8125 -11.046875l0 7.703125q0 0.828125 -0.234375 1.453125q-0.234375 0.640625 -0.671875 1.078125q-0.4375 0.4375 -1.078125 0.65625q-0.625 0.234375 -1.421875 0.234375q-0.578125 0 -1.140625 -0.109375q-0.546875 -0.09375 -0.984375 -0.28125l0 -1.296875q0.234375 0.125 0.515625 0.21875q0.28125 0.109375 0.5625 0.171875q0.296875 0.078125 0.59375 0.109375q0.296875 0.03125 0.578125 0.03125q0.890625 0 1.390625 -0.5625q0.515625 -0.5625 0.515625 -1.65625l0 -6.625l-3.84375 0l0 -1.125l5.21875 0zm-0.8125 -3.296873q0.21875 0 0.40625 0.09375q0.203125 0.078125 0.34375 0.234375q0.15625 0.140625 0.234375 0.34375q0.078125 0.1875 0.078125 0.40625q0 0.21875 -0.078125 0.421875q-0.078125 0.1875 -0.234375 0.34375q-0.140625 0.140625 -0.34375 0.21875q-0.1875 0.07812309 -0.40625 0.07812309q-0.234375 0 -0.4375 -0.07812309q-0.1875 -0.078125 -0.328125 -0.21875q-0.140625 -0.15625 -0.234375 -0.34375q-0.078125 -0.203125 -0.078125 -0.421875q0 -0.21875 0.078125 -0.40625q0.09375 -0.203125 0.234375 -0.34375q0.140625 -0.15625 0.328125 -0.234375q0.203125 -0.09375 0.4375 -0.09375zm9.15625 14.343748l-3.859375 0l0 -1.09375l2.546875 0l0 -12.328123l-2.546875 0l0 -1.09375l3.859375 0l0 14.515623z" fill-rule="nonzero"></path><path fill="#000000" d="m162.84358 77.44104l-4.671875 0l0 -1.28125l4.671875 0l0 1.28125zm9.6875 0.359375q0 0.75 -0.328125 1.375q-0.328125 0.625 -0.90625 1.078125q-0.578125 0.453125 -1.359375 0.703125q-0.78125 0.25 -1.6875 0.25q-0.21875 0 -0.484375 -0.015625q-0.265625 0 -0.53125 -0.03125q-0.25 -0.015625 -0.5 -0.046875q-0.234375 -0.015625 -0.4375 -0.046875l0 -1.234375q0.421875 0.09375 0.96875 0.140625q0.546875 0.046875 1.09375 0.046875q0.625 0 1.125 -0.140625q0.5 -0.15625 0.84375 -0.421875q0.359375 -0.28125 0.546875 -0.671875q0.1875 -0.40625 0.1875 -0.890625q0 -0.953125 -0.6875 -1.390625q-0.671875 -0.4375 -1.953125 -0.4375l-1.9375 0l0 -5.21875l5.5 0l0 1.1875l-4.21875 0l0 2.875l0.890625 0q0.734375 0 1.421875 0.140625q0.703125 0.125 1.234375 0.453125q0.546875 0.328125 0.875 0.890625q0.34375 0.5625 0.34375 1.40625z" fill-rule="nonzero"></path><path fill="#000000" d="m221.30815 77.44104l-4.671875 0l0 -1.28125l4.671875 0l0 1.28125zm10.453125 1.359375l-1.75 0l0 2.265625l-1.390625 0l0 -2.265625l-4.90625 0l0 -1.1875l4.34375 -6.765625l1.953125 0l0 6.765625l1.75 0l0 1.1875zm-3.140625 -6.640625l-3.546875 5.453125l3.546875 0l0 -5.453125z" fill-rule="nonzero"></path><path fill="#000000" d="m279.77008 77.44104l-4.671875 0l0 -1.28125l4.671875 0l0 1.28125zm9.75 0.515625q0 0.671875 -0.28125 1.265625q-0.265625 0.59375 -0.8125 1.03125q-0.546875 0.4375 -1.375 0.703125q-0.828125 0.25 -1.9375 0.25q-0.609375 0 -1.09375 -0.046875q-0.484375 -0.03125 -0.90625 -0.09375l0 -1.21875q0.484375 0.078125 1.015625 0.125q0.546875 0.046875 1.109375 0.046875q0.765625 0 1.3125 -0.125q0.546875 -0.140625 0.890625 -0.390625q0.34375 -0.265625 0.5 -0.625q0.15625 -0.375 0.15625 -0.84375q0 -0.421875 -0.1875 -0.734375q-0.1875 -0.3125 -0.53125 -0.515625q-0.34375 -0.21875 -0.8125 -0.3125q-0.46875 -0.109375 -1.03125 -0.109375l-1.171875 0l0 -1.125l1.1875 0q0.453125 0 0.828125 -0.109375q0.390625 -0.125 0.65625 -0.34375q0.265625 -0.234375 0.40625 -0.5625q0.15625 -0.34375 0.15625 -0.765625q0 -0.8125 -0.5 -1.1875q-0.5 -0.375 -1.46875 -0.375q-0.515625 0 -1.0625 0.109375q-0.546875 0.09375 -1.171875 0.296875l0 -1.1875q0.265625 -0.09375 0.5625 -0.171875q0.296875 -0.078125 0.59375 -0.125q0.3125 -0.046875 0.609375 -0.078125q0.296875 -0.03125 0.5625 -0.03125q0.8125 0 1.421875 0.1875q0.625 0.171875 1.03125 0.5q0.421875 0.328125 0.625 0.796875q0.21875 0.46875 0.21875 1.046875q0 0.875 -0.453125 1.46875q-0.4375 0.59375 -1.21875 0.953125q0.390625 0.0625 0.78125 0.25q0.390625 0.1875 0.6875 0.484375q0.3125 0.28125 0.5 0.6875q0.203125 0.390625 0.203125 0.875z" fill-rule="nonzero"></path><path fill="#000000" d="m338.23203 77.44104l-4.671875 0l0 -1.28125l4.671875 0l0 1.28125zm9.9375 3.625l-6.71875 0l0 -1.21875l2.640625 -2.625q0.640625 -0.640625 1.046875 -1.109375q0.40625 -0.46875 0.625 -0.859375q0.234375 -0.390625 0.3125 -0.734375q0.078125 -0.34375 0.078125 -0.734375q0 -0.375 -0.109375 -0.71875q-0.09375 -0.34375 -0.3125 -0.59375q-0.203125 -0.265625 -0.546875 -0.40625q-0.328125 -0.15625 -0.796875 -0.15625q-0.640625 0 -1.171875 0.296875q-0.53125 0.28125 -0.984375 0.75l-0.75 -0.90625q0.578125 -0.609375 1.328125 -0.96875q0.765625 -0.375 1.765625 -0.375q0.671875 0 1.234375 0.203125q0.5625 0.203125 0.96875 0.59375q0.40625 0.375 0.625 0.9375q0.21875 0.546875 0.21875 1.25q0 0.578125 -0.15625 1.078125q-0.15625 0.5 -0.46875 1.0q-0.3125 0.5 -0.796875 1.03125q-0.484375 0.53125 -1.140625 1.15625l-1.84375 1.8125l4.953125 0l0 1.296875z" fill-rule="nonzero"></path><path fill="#000000" d="m396.69397 77.44104l-4.671875 0l0 -1.28125l4.671875 0l0 1.28125zm9.859375 3.625l-6.421875 0l0 -1.265625l2.625 0l0 -7.453125l-2.4375 1.328125l-0.5 -1.15625l3.25 -1.71875l1.203125 0l0 9.0l2.28125 0l0 1.265625z" fill-rule="nonzero"></path><path fill="#000000" d="m465.3278 75.956665q0 1.171875 -0.234375 2.140625q-0.234375 0.96875 -0.71875 1.65625q-0.46875 0.6875 -1.171875 1.078125q-0.703125 0.375 -1.65625 0.375q-0.828125 0 -1.5 -0.3125q-0.671875 -0.3125 -1.15625 -0.953125q-0.46875 -0.640625 -0.734375 -1.625q-0.25 -1.0 -0.25 -2.359375q0 -1.171875 0.234375 -2.140625q0.25 -0.96875 0.71875 -1.65625q0.46875 -0.6875 1.171875 -1.0625q0.71875 -0.390625 1.671875 -0.390625q0.8125 0 1.484375 0.3125q0.671875 0.3125 1.140625 0.953125q0.484375 0.640625 0.734375 1.640625q0.265625 0.984375 0.265625 2.34375zm-1.375 0.046875q0 -0.265625 -0.015625 -0.515625q-0.015625 -0.265625 -0.046875 -0.515625l-4.3125 3.203125q0.109375 0.40625 0.28125 0.75q0.1875 0.34375 0.4375 0.59375q0.265625 0.25 0.578125 0.390625q0.328125 0.125 0.75 0.125q0.53125 0 0.953125 -0.25q0.4375 -0.265625 0.734375 -0.765625q0.3125 -0.515625 0.46875 -1.265625q0.171875 -0.75 0.171875 -1.75zm-4.671875 -0.09375q0 0.25 0 0.5q0.015625 0.234375 0.03125 0.453125l4.328125 -3.1875q-0.125 -0.40625 -0.3125 -0.734375q-0.171875 -0.328125 -0.421875 -0.5625q-0.25 -0.234375 -0.578125 -0.359375q-0.3125 -0.140625 -0.703125 -0.140625q-0.53125 0 -0.96875 0.265625q-0.4375 0.25 -0.75 0.765625q-0.296875 0.5 -0.46875 1.265625q-0.15625 0.75 -0.15625 1.734375z" fill-rule="nonzero"></path><path fill="#000000" d="m514.68036 81.06604l-6.421875 0l0 -1.265625l2.625 0l0 -7.453125l-2.4375 1.328125l-0.5 -1.15625l3.25 -1.71875l1.203125 0l0 9.0l2.28125 0l0 1.265625z" fill-rule="nonzero"></path><path fill="#000000" d="m573.22046 81.06604l-6.71875 0l0 -1.21875l2.640625 -2.625q0.640625 -0.640625 1.046875 -1.109375q0.40625 -0.46875 0.625 -0.859375q0.234375 -0.390625 0.3125 -0.734375q0.078125 -0.34375 0.078125 -0.734375q0 -0.375 -0.109375 -0.71875q-0.09375 -0.34375 -0.3125 -0.59375q-0.203125 -0.265625 -0.546875 -0.40625q-0.328125 -0.15625 -0.796875 -0.15625q-0.640625 0 -1.171875 0.296875q-0.53125 0.28125 -0.984375 0.75l-0.75 -0.90625q0.578125 -0.609375 1.328125 -0.96875q0.765625 -0.375 1.765625 -0.375q0.671875 0 1.234375 0.203125q0.5625 0.203125 0.96875 0.59375q0.40625 0.375 0.625 0.9375q0.21875 0.546875 0.21875 1.25q0 0.578125 -0.15625 1.078125q-0.15625 0.5 -0.46875 1.0q-0.3125 0.5 -0.796875 1.03125q-0.484375 0.53125 -1.140625 1.15625l-1.84375 1.8125l4.953125 0l0 1.296875z" fill-rule="nonzero"></path><path fill="#000000" d="m631.4949 77.956665q0 0.671875 -0.28125 1.265625q-0.265625 0.59375 -0.8125 1.03125q-0.546875 0.4375 -1.375 0.703125q-0.828125 0.25 -1.9375 0.25q-0.609375 0 -1.09375 -0.046875q-0.484375 -0.03125 -0.90625 -0.09375l0 -1.21875q0.484375 0.078125 1.015625 0.125q0.546875 0.046875 1.109375 0.046875q0.765625 0 1.3125 -0.125q0.546875 -0.140625 0.890625 -0.390625q0.34375 -0.265625 0.5 -0.625q0.15625 -0.375 0.15625 -0.84375q0 -0.421875 -0.1875 -0.734375q-0.1875 -0.3125 -0.53125 -0.515625q-0.34375 -0.21875 -0.8125 -0.3125q-0.46875 -0.109375 -1.03125 -0.109375l-1.171875 0l0 -1.125l1.1875 0q0.453125 0 0.828125 -0.109375q0.390625 -0.125 0.65625 -0.34375q0.265625 -0.234375 0.40625 -0.5625q0.15625 -0.34375 0.15625 -0.765625q0 -0.8125 -0.5 -1.1875q-0.5 -0.375 -1.46875 -0.375q-0.515625 0 -1.0625 0.109375q-0.546875 0.09375 -1.171875 0.296875l0 -1.1875q0.265625 -0.09375 0.5625 -0.171875q0.296875 -0.078125 0.59375 -0.125q0.3125 -0.046875 0.609375 -0.078125q0.296875 -0.03125 0.5625 -0.03125q0.8125 0 1.421875 0.1875q0.625 0.171875 1.03125 0.5q0.421875 0.328125 0.625 0.796875q0.21875 0.46875 0.21875 1.046875q0 0.875 -0.453125 1.46875q-0.4375 0.59375 -1.21875 0.953125q0.390625 0.0625 0.78125 0.25q0.390625 0.1875 0.6875 0.484375q0.3125 0.28125 0.5 0.6875q0.203125 0.390625 0.203125 0.875z" fill-rule="nonzero"></path><path fill="#000000" d="m690.6599 78.800415l-1.75 0l0 2.265625l-1.390625 0l0 -2.265625l-4.90625 0l0 -1.1875l4.34375 -6.765625l1.953125 0l0 6.765625l1.75 0l0 1.1875zm-3.140625 -6.640625l-3.546875 5.453125l3.546875 0l0 -5.453125z" fill-rule="nonzero"></path><path fill="#000000" d="m748.35626 77.800415q0 0.75 -0.328125 1.375q-0.328125 0.625 -0.90625 1.078125q-0.578125 0.453125 -1.359375 0.703125q-0.78125 0.25 -1.6875 0.25q-0.21875 0 -0.484375 -0.015625q-0.265625 0 -0.53125 -0.03125q-0.25 -0.015625 -0.5 -0.046875q-0.234375 -0.015625 -0.4375 -0.046875l0 -1.234375q0.421875 0.09375 0.96875 0.140625q0.546875 0.046875 1.09375 0.046875q0.625 0 1.125 -0.140625q0.5 -0.15625 0.84375 -0.421875q0.359375 -0.28125 0.546875 -0.671875q0.1875 -0.40625 0.1875 -0.890625q0 -0.953125 -0.6875 -1.390625q-0.671875 -0.4375 -1.953125 -0.4375l-1.9375 0l0 -5.21875l5.5 0l0 1.1875l-4.21875 0l0 2.875l0.890625 0q0.734375 0 1.421875 0.140625q0.703125 0.125 1.234375 0.453125q0.546875 0.328125 0.875 0.890625q0.34375 0.5625 0.34375 1.40625z" fill-rule="nonzero"></path><path fill="#000000" d="m47.297325 115.956665q0 1.171875 -0.234375 2.140625q-0.234375 0.96875 -0.71875 1.65625q-0.46875 0.6875 -1.171875 1.078125q-0.703125 0.375 -1.65625 0.375q-0.828125 0 -1.5 -0.3125q-0.671875 -0.3125 -1.15625 -0.953125q-0.46875 -0.640625 -0.734375 -1.625q-0.25 -1.0 -0.25 -2.359375q0 -1.171875 0.234375 -2.140625q0.25 -0.96875 0.71875 -1.65625q0.46875 -0.6875 1.171875 -1.0625q0.71875 -0.390625 1.671875 -0.390625q0.8125 0 1.484375 0.3125q0.671875 0.3125 1.140625 0.953125q0.484375 0.640625 0.734375 1.640625q0.265625 0.984375 0.265625 2.34375zm-1.375 0.046875q0 -0.265625 -0.015625 -0.515625q-0.015625 -0.265625 -0.046875 -0.515625l-4.3125 3.203125q0.109375 0.40625 0.28125 0.75q0.1875 0.34375 0.4375 0.59375q0.265625 0.25 0.578125 0.390625q0.328125 0.125 0.75 0.125q0.53125 0 0.953125 -0.25q0.4375 -0.265625 0.734375 -0.765625q0.3125 -0.515625 0.46875 -1.265625q0.171875 -0.75 0.171875 -1.75zm-4.671875 -0.09375q0 0.25 0 0.5q0.015625 0.234375 0.03125 0.453125l4.328125 -3.1875q-0.125 -0.40625 -0.3125 -0.734375q-0.171875 -0.328125 -0.421875 -0.5625q-0.25 -0.234375 -0.578125 -0.359375q-0.3125 -0.140625 -0.703125 -0.140625q-0.53125 0 -0.96875 0.265625q-0.4375 0.25 -0.75 0.765625q-0.296875 0.5 -0.46875 1.265625q-0.15625 0.75 -0.15625 1.734375z" fill-rule="nonzero"></path><path fill="#000000" d="m109.416336 117.44104l-4.671875 0l0 -1.28125l4.671875 0l0 1.28125z" fill-rule="nonzero"></path><path fill="#000000" d="m465.0153 121.06604l-6.421875 0l0 -1.265625l2.625 0l0 -7.453125l-2.4375 1.328125l-0.5 -1.15625l3.25 -1.71875l1.203125 0l0 9.0l2.28125 0l0 1.265625z" fill-rule="nonzero"></path><path fill="#000000" d="m46.984825 161.06604l-6.421875 0l0 -1.265625l2.625 0l0 -7.453125l-2.4375 1.328125l-0.5 -1.15625l3.25 -1.71875l1.203125 0l0 9.0l2.28125 0l0 1.265625z" fill-rule="nonzero"></path><path fill="#000000" d="m110.478836 161.06604l-6.421875 0l0 -1.265625l2.625 0l0 -7.453125l-2.4375 1.328125l-0.5 -1.15625l3.25 -1.71875l1.203125 0l0 9.0l2.28125 0l0 1.265625z" fill-rule="nonzero"></path><path fill="#000000" d="m406.55334 161.06604l-6.421875 0l0 -1.265625l2.625 0l0 -7.453125l-2.4375 1.328125l-0.5 -1.15625l3.25 -1.71875l1.203125 0l0 9.0l2.28125 0l0 1.265625z" fill-rule="nonzero"></path><path fill="#000000" d="m523.47723 161.06604l-6.421875 0l0 -1.265625l2.625 0l0 -7.453125l-2.4375 1.328125l-0.5 -1.15625l3.25 -1.71875l1.203125 0l0 9.0l2.28125 0l0 1.265625z" fill-rule="nonzero"></path><path fill="#000000" d="m47.06295 201.06604l-6.71875 0l0 -1.21875l2.640625 -2.625q0.640625 -0.640625 1.046875 -1.109375q0.40625 -0.46875 0.625 -0.859375q0.234375 -0.390625 0.3125 -0.734375q0.078125 -0.34375 0.078125 -0.734375q0 -0.375 -0.109375 -0.71875q-0.09375 -0.34375 -0.3125 -0.59375q-0.203125 -0.265625 -0.546875 -0.40625q-0.328125 -0.15625 -0.796875 -0.15625q-0.640625 0 -1.171875 0.296875q-0.53125 0.28125 -0.984375 0.75l-0.75 -0.90625q0.578125 -0.609375 1.328125 -0.96875q0.765625 -0.375 1.765625 -0.375q0.671875 0 1.234375 0.203125q0.5625 0.203125 0.96875 0.59375q0.40625 0.375 0.625 0.9375q0.21875 0.546875 0.21875 1.25q0 0.578125 -0.15625 1.078125q-0.15625 0.5 -0.46875 1.0q-0.3125 0.5 -0.796875 1.03125q-0.484375 0.53125 -1.140625 1.15625l-1.84375 1.8125l4.953125 0l0 1.296875z" fill-rule="nonzero"></path><path fill="#000000" d="m110.478836 201.06604l-6.421875 0l0 -1.265625l2.625 0l0 -7.453125l-2.4375 1.328125l-0.5 -1.15625l3.25 -1.71875l1.203125 0l0 9.0l2.28125 0l0 1.265625z" fill-rule="nonzero"></path><path fill="#000000" d="m348.0914 201.06604l-6.421875 0l0 -1.265625l2.625 0l0 -7.453125l-2.4375 1.328125l-0.5 -1.15625l3.25 -1.71875l1.203125 0l0 9.0l2.28125 0l0 1.265625z" fill-rule="nonzero"></path><path fill="#000000" d="m465.0934 201.06604l-6.71875 0l0 -1.21875l2.640625 -2.625q0.640625 -0.640625 1.046875 -1.109375q0.40625 -0.46875 0.625 -0.859375q0.234375 -0.390625 0.3125 -0.734375q0.078125 -0.34375 0.078125 -0.734375q0 -0.375 -0.109375 -0.71875q-0.09375 -0.34375 -0.3125 -0.59375q-0.203125 -0.265625 -0.546875 -0.40625q-0.328125 -0.15625 -0.796875 -0.15625q-0.640625 0 -1.171875 0.296875q-0.53125 0.28125 -0.984375 0.75l-0.75 -0.90625q0.578125 -0.609375 1.328125 -0.96875q0.765625 -0.375 1.765625 -0.375q0.671875 0 1.234375 0.203125q0.5625 0.203125 0.96875 0.59375q0.40625 0.375 0.625 0.9375q0.21875 0.546875 0.21875 1.25q0 0.578125 -0.15625 1.078125q-0.15625 0.5 -0.46875 1.0q-0.3125 0.5 -0.796875 1.03125q-0.484375 0.53125 -1.140625 1.15625l-1.84375 1.8125l4.953125 0l0 1.296875z" fill-rule="nonzero"></path><path fill="#000000" d="m581.9392 201.06604l-6.421875 0l0 -1.265625l2.625 0l0 -7.453125l-2.4375 1.328125l-0.5 -1.15625l3.25 -1.71875l1.203125 0l0 9.0l2.28125 0l0 1.265625z" fill-rule="nonzero"></path><path fill="#000000" fill-opacity="0.0" d="m392.4987 158.5643l-34.551178 29.039368" fill-rule="evenodd"></path><path stroke="#ff0000" stroke-width="1.0" stroke-linejoin="round" stroke-linecap="butt" d="m392.4987 158.5643l-29.958008 25.178955" fill-rule="evenodd"></path><path fill="#ff0000" stroke="#ff0000" stroke-width="1.0" stroke-linecap="butt" d="m361.47794 182.4788l-2.411316 4.1842804l4.5367737 -1.6553955z" fill-rule="evenodd"></path><path fill="#000000" fill-opacity="0.0" d="m417.61417 160.12335l36.125977 25.921265" fill-rule="evenodd"></path><path stroke="#ff0000" stroke-width="1.0" stroke-linejoin="round" stroke-linecap="butt" d="m417.61417 160.12335l31.251068 22.4234" fill-rule="evenodd"></path><path fill="#ff0000" stroke="#ff0000" stroke-width="1.0" stroke-linecap="butt" d="m447.9023 183.88876l4.650055 1.3036041l-2.7242126 -3.9876404z" fill-rule="evenodd"></path><path fill="#000000" fill-opacity="0.0" d="m510.27954 158.94226l-37.700806 28.283463" fill-rule="evenodd"></path><path stroke="#ff0000" stroke-width="1.0" stroke-linejoin="round" stroke-linecap="butt" d="m510.27954 158.94226l-32.901306 24.682816" fill-rule="evenodd"></path><path fill="#ff0000" stroke="#ff0000" stroke-width="1.0" stroke-linecap="butt" d="m476.38705 182.30383l-2.638916 4.044586l4.621338 -1.4020844z" fill-rule="evenodd"></path><path fill="#000000" fill-opacity="0.0" d="m538.1378 159.72966l40.031494 26.708664" fill-rule="evenodd"></path><path stroke="#ff0000" stroke-width="1.0" stroke-linejoin="round" stroke-linecap="butt" d="m538.1378 159.72966l35.040344 23.378647" fill-rule="evenodd"></path><path fill="#ff0000" stroke="#ff0000" stroke-width="1.0" stroke-linecap="butt" d="m572.2615 184.4823l4.6917114 1.1446686l-2.8582764 -3.8926544z" fill-rule="evenodd"></path><path fill="#000000" fill-opacity="0.0" d="m360.30185 195.47769l33.763763 -27.496063" fill-rule="evenodd"></path><path stroke="#0000ff" stroke-width="1.0" stroke-linejoin="round" stroke-linecap="butt" d="m360.30185 195.47769l29.111328 -23.707275" fill-rule="evenodd"></path><path fill="#0000ff" stroke="#0000ff" stroke-width="1.0" stroke-linecap="butt" d="m390.4562 173.05118l2.47583 -4.146408l-4.561859 1.5848694z" fill-rule="evenodd"></path><path fill="#000000" fill-opacity="0.0" d="m441.95407 192.32808l-31.40158 -21.196838" fill-rule="evenodd"></path><path stroke="#0000ff" stroke-width="1.0" stroke-linejoin="round" stroke-linecap="butt" d="m441.95407 192.32808l-26.428558 -17.839935" fill-rule="evenodd"></path><path fill="#0000ff" stroke="#0000ff" stroke-width="1.0" stroke-linecap="butt" d="m416.44965 173.11914l-4.685486 -1.1699982l2.8372498 3.9080353z" fill-rule="evenodd"></path><path fill="#000000" fill-opacity="0.0" d="m480.23883 193.9029l31.40158 -24.346466" fill-rule="evenodd"></path><path stroke="#0000ff" stroke-width="1.0" stroke-linejoin="round" stroke-linecap="butt" d="m480.23883 193.9029l26.65982 -20.670074" fill-rule="evenodd"></path><path fill="#0000ff" stroke="#0000ff" stroke-width="1.0" stroke-linecap="butt" d="m507.91074 174.53818l2.5743713 -4.0859985l-4.5985107 1.475296z" fill-rule="evenodd"></path><path fill="#000000" fill-opacity="0.0" d="m572.2992 194.29659l-43.18109 -25.13385" fill-rule="evenodd"></path><path stroke="#0000ff" stroke-width="1.0" stroke-linejoin="round" stroke-linecap="butt" d="m572.2992 194.29659l-37.995544 -22.11557" fill-rule="evenodd"></path><path fill="#0000ff" stroke="#0000ff" stroke-width="1.0" stroke-linecap="butt" d="m535.1346 170.7535l-4.7529907 -0.85536194l3.0911865 3.7104034z" fill-rule="evenodd"></path><path fill="#000000" fill-opacity="0.0" d="m595.07086 193.50919l34.55121 -27.496063" fill-rule="evenodd"></path><path stroke="#0000ff" stroke-width="1.0" stroke-linejoin="round" stroke-linecap="butt" d="m595.07086 193.50919l29.856384 -23.759903" fill-rule="evenodd"></path><path fill="#0000ff" stroke="#0000ff" stroke-width="1.0" stroke-linecap="butt" d="m625.95575 171.0417l2.5224 -4.118271l-4.5794067 1.5334167z" fill-rule="evenodd"></path><path fill="#000000" fill-opacity="0.0" d="m334.39108 195.85564l-46.33072 -28.251968" fill-rule="evenodd"></path><path stroke="#0000ff" stroke-width="1.0" stroke-linejoin="round" stroke-linecap="butt" d="m334.39108 195.85564l-41.208008 -25.12819" fill-rule="evenodd"></path><path fill="#0000ff" stroke="#0000ff" stroke-width="1.0" stroke-linecap="butt" d="m294.043 169.31721l-4.734497 -0.95243835l3.014618 3.7728882z" fill-rule="evenodd"></path><path stroke="#9e9e9e" stroke-width="1.0" stroke-linecap="butt" d="m21.393702 265.01837l0 132.31235" fill-rule="nonzero"></path><path stroke="#9e9e9e" stroke-width="1.0" stroke-linecap="butt" d="m401.3937 265.01837l0 132.31235" fill-rule="nonzero"></path><path stroke="#9e9e9e" stroke-width="1.0" stroke-linecap="butt" d="m781.3937 265.01837l0 132.31235" fill-rule="nonzero"></path><path stroke="#9e9e9e" stroke-width="1.0" stroke-linecap="butt" d="m20.895014 265.51706l760.9974 0" fill-rule="nonzero"></path><path stroke="#9e9e9e" stroke-width="1.0" stroke-linecap="butt" d="m20.895014 396.83203l760.9974 0" fill-rule="nonzero"></path><path fill="#ff0000" d="m38.5187 280.84583l-3.015625 0l0 9.03125l-1.40625 0l0 -9.03125l-3.031248 0l0 -1.1875l7.453123 0l0 1.1875zm2.25 1.1875l1.234375 0l0.046875 1.4375q0.6875 -0.828125 1.359375 -1.203125q0.6875 -0.375 1.375 -0.375q1.21875 0 1.84375 0.796875q0.625 0.78125 0.578125 2.328125l-1.375 0q0.03125 -1.03125 -0.296875 -1.484375q-0.328125 -0.46875 -0.953125 -0.46875q-0.265625 0 -0.546875 0.09375q-0.28125 0.09375 -0.578125 0.3125q-0.28125 0.21875 -0.609375 0.5625q-0.328125 0.328125 -0.703125 0.796875l0 5.046875l-1.375 0l0 -7.84375zm13.515625 7.84375l-0.03125 -1.0625q-0.640625 0.640625 -1.3125 0.921875q-0.65625 0.28125 -1.375 0.28125q-0.671875 0 -1.15625 -0.171875q-0.46875 -0.171875 -0.78125 -0.46875q-0.3125 -0.3125 -0.453125 -0.71875q-0.140625 -0.40625 -0.140625 -0.875q0 -1.1875 0.875 -1.84375q0.875 -0.671875 2.59375 -0.671875l1.625 0l0 -0.6875q0 -0.703125 -0.453125 -1.109375q-0.4375 -0.421875 -1.34375 -0.421875q-0.671875 0 -1.3125 0.15625q-0.640625 0.140625 -1.328125 0.40625l0 -1.21875q0.25 -0.09375 0.5625 -0.1875q0.328125 -0.09375 0.671875 -0.15625q0.359375 -0.078125 0.734375 -0.109375q0.390625 -0.046875 0.78125 -0.046875q0.703125 0 1.265625 0.15625q0.578125 0.15625 0.96875 0.484375q0.40625 0.3125 0.609375 0.796875q0.21875 0.484375 0.21875 1.140625l0 5.40625l-1.21875 0zm-0.15625 -3.578125l-1.71875 0q-0.515625 0 -0.890625 0.109375q-0.359375 0.09375 -0.59375 0.28125q-0.234375 0.1875 -0.34375 0.453125q-0.109375 0.265625 -0.109375 0.59375q0 0.21875 0.0625 0.4375q0.078125 0.203125 0.234375 0.359375q0.15625 0.15625 0.40625 0.25q0.25 0.09375 0.609375 0.09375q0.46875 0 1.0625 -0.28125q0.609375 -0.28125 1.28125 -0.90625l0 -1.390625zm3.90625 -4.265625l1.21875 0l0.046875 1.265625q0.34375 -0.40625 0.65625 -0.671875q0.328125 -0.28125 0.640625 -0.4375q0.3125 -0.171875 0.625 -0.234375q0.328125 -0.0625 0.671875 -0.0625q1.203125 0 1.828125 0.71875q0.625 0.703125 0.625 2.140625l0 5.125l-1.359375 0l0 -5.015625q0 -0.921875 -0.34375 -1.359375q-0.34375 -0.4375 -1.03125 -0.4375q-0.25 0 -0.484375 0.078125q-0.234375 0.0625 -0.5 0.25q-0.25 0.1875 -0.5625 0.5q-0.296875 0.3125 -0.671875 0.78125l0 5.203125l-1.359375 0l0 -7.84375zm15.015625 5.703125q0 0.40625 -0.140625 0.734375q-0.140625 0.328125 -0.390625 0.59375q-0.234375 0.25 -0.5625 0.4375q-0.3125 0.171875 -0.6875 0.296875q-0.359375 0.109375 -0.75 0.15625q-0.375 0.0625 -0.734375 0.0625q-0.796875 0 -1.46875 -0.078125q-0.671875 -0.0625 -1.3125 -0.21875l0 -1.25q0.6875 0.1875 1.359375 0.296875q0.6875 0.09375 1.359375 0.09375q0.984375 0 1.453125 -0.265625q0.46875 -0.265625 0.46875 -0.75q0 -0.21875 -0.078125 -0.375q-0.078125 -0.171875 -0.28125 -0.328125q-0.1875 -0.15625 -0.59375 -0.3125q-0.40625 -0.171875 -1.125 -0.375q-0.53125 -0.15625 -0.984375 -0.359375q-0.4375 -0.203125 -0.765625 -0.46875q-0.328125 -0.28125 -0.515625 -0.640625q-0.1875 -0.375 -0.1875 -0.875q0 -0.328125 0.140625 -0.71875q0.15625 -0.390625 0.515625 -0.71875q0.375 -0.34375 1.0 -0.5625q0.625 -0.21875 1.5625 -0.21875q0.46875 0 1.03125 0.046875q0.5625 0.046875 1.171875 0.171875l0 1.21875q-0.640625 -0.15625 -1.21875 -0.234375q-0.578125 -0.078125 -1.0 -0.078125q-0.5 0 -0.859375 0.078125q-0.34375 0.078125 -0.5625 0.21875q-0.203125 0.140625 -0.296875 0.328125q-0.09375 0.171875 -0.09375 0.390625q0 0.203125 0.078125 0.375q0.078125 0.171875 0.296875 0.34375q0.234375 0.15625 0.625 0.3125q0.40625 0.15625 1.046875 0.34375q0.6875 0.203125 1.15625 0.4375q0.484375 0.21875 0.78125 0.5q0.296875 0.265625 0.421875 0.609375q0.140625 0.34375 0.140625 0.78125zm7.625 2.140625l-0.03125 -1.0625q-0.640625 0.640625 -1.3125 0.921875q-0.65625 0.28125 -1.375 0.28125q-0.671875 0 -1.15625 -0.171875q-0.46875 -0.171875 -0.78125 -0.46875q-0.3125 -0.3125 -0.453125 -0.71875q-0.140625 -0.40625 -0.140625 -0.875q0 -1.1875 0.875 -1.84375q0.875 -0.671875 2.59375 -0.671875l1.625 0l0 -0.6875q0 -0.703125 -0.453125 -1.109375q-0.4375 -0.421875 -1.34375 -0.421875q-0.671875 0 -1.3125 0.15625q-0.640625 0.140625 -1.328125 0.40625l0 -1.21875q0.25 -0.09375 0.5625 -0.1875q0.328125 -0.09375 0.671875 -0.15625q0.359375 -0.078125 0.734375 -0.109375q0.390625 -0.046875 0.78125 -0.046875q0.703125 0 1.265625 0.15625q0.578125 0.15625 0.96875 0.484375q0.40625 0.3125 0.609375 0.796875q0.21875 0.484375 0.21875 1.140625l0 5.40625l-1.21875 0zm-0.15625 -3.578125l-1.71875 0q-0.515625 0 -0.890625 0.109375q-0.359375 0.09375 -0.59375 0.28125q-0.234375 0.1875 -0.34375 0.453125q-0.109375 0.265625 -0.109375 0.59375q0 0.21875 0.0625 0.4375q0.078125 0.203125 0.234375 0.359375q0.15625 0.15625 0.40625 0.25q0.25 0.09375 0.609375 0.09375q0.46875 0 1.0625 -0.28125q0.609375 -0.28125 1.28125 -0.90625l0 -1.390625zm10.0 3.28125q-0.53125 0.203125 -1.09375 0.296875q-0.546875 0.109375 -1.140625 0.109375q-1.859375 0 -2.875 -1.0q-1.0 -1.015625 -1.0 -2.953125q0 -0.9375 0.28125 -1.6875q0.296875 -0.765625 0.8125 -1.296875q0.53125 -0.546875 1.25 -0.828125q0.734375 -0.296875 1.609375 -0.296875q0.609375 0 1.140625 0.09375q0.53125 0.078125 1.015625 0.265625l0 1.296875q-0.5 -0.265625 -1.03125 -0.375q-0.53125 -0.125 -1.09375 -0.125q-0.515625 0 -0.984375 0.203125q-0.46875 0.1875 -0.828125 0.5625q-0.34375 0.375 -0.546875 0.921875q-0.203125 0.53125 -0.203125 1.21875q0 1.421875 0.6875 2.125q0.703125 0.703125 1.921875 0.703125q0.5625 0 1.078125 -0.125q0.515625 -0.125 1.0 -0.375l0 1.265625zm9.03125 0.1875q-0.46875 0.125 -0.96875 0.171875q-0.484375 0.046875 -0.984375 0.046875q-1.484375 0 -2.21875 -0.671875q-0.71875 -0.671875 -0.71875 -2.046875l0 -4.09375l-2.1875 0l0 -1.140625l2.1875 0l0 -2.15625l1.359375 -0.359375l0 2.515625l3.53125 0l0 1.140625l-3.53125 0l0 3.984375q0 0.84375 0.453125 1.265625q0.453125 0.40625 1.328125 0.40625q0.375 0 0.8125 -0.046875q0.453125 -0.0625 0.9375 -0.1875l0 1.171875zm5.140625 -6.609375l-2.3125 0l0 -1.125l3.6875 0l0 6.703125l2.34375 0l0 1.140625l-6.296875 0l0 -1.140625l2.578125 0l0 -5.578125zm0.484375 -4.421875q0.21875 0 0.40625 0.09375q0.203125 0.078125 0.34375 0.234375q0.15625 0.140625 0.234375 0.328125q0.078125 0.1875 0.078125 0.421875q0 0.21875 -0.078125 0.421875q-0.078125 0.1875 -0.234375 0.34375q-0.140625 0.140625 -0.34375 0.21875q-0.1875 0.078125 -0.40625 0.078125q-0.234375 0 -0.4375 -0.078125q-0.1875 -0.078125 -0.328125 -0.21875q-0.140625 -0.15625 -0.234375 -0.34375q-0.078125 -0.203125 -0.078125 -0.421875q0 -0.234375 0.078125 -0.421875q0.09375 -0.1875 0.234375 -0.328125q0.140625 -0.15625 0.328125 -0.234375q0.203125 -0.09375 0.4375 -0.09375zm12.46875 7.15625q0 0.90625 -0.265625 1.671875q-0.25 0.765625 -0.734375 1.3125q-0.484375 0.53125 -1.1875 0.84375q-0.6875 0.296875 -1.5625 0.296875q-0.84375 0 -1.515625 -0.265625q-0.671875 -0.265625 -1.140625 -0.765625q-0.453125 -0.515625 -0.703125 -1.265625q-0.25 -0.75 -0.25 -1.71875q0 -0.921875 0.25 -1.671875q0.265625 -0.75 0.75 -1.296875q0.484375 -0.546875 1.171875 -0.84375q0.703125 -0.296875 1.59375 -0.296875q0.84375 0 1.5 0.265625q0.671875 0.25 1.140625 0.765625q0.46875 0.5 0.703125 1.25q0.25 0.75 0.25 1.71875zm-1.390625 0.0625q0 -0.734375 -0.15625 -1.265625q-0.15625 -0.546875 -0.453125 -0.90625q-0.296875 -0.375 -0.734375 -0.546875q-0.421875 -0.1875 -0.9375 -0.1875q-0.609375 0 -1.046875 0.234375q-0.4375 0.234375 -0.71875 0.640625q-0.265625 0.390625 -0.40625 0.921875q-0.125 0.53125 -0.125 1.109375q0 0.71875 0.15625 1.265625q0.171875 0.546875 0.46875 0.921875q0.296875 0.359375 0.71875 0.546875q0.421875 0.171875 0.953125 0.171875q0.609375 0 1.03125 -0.234375q0.4375 -0.234375 0.71875 -0.625q0.28125 -0.40625 0.40625 -0.9375q0.125 -0.53125 0.125 -1.109375zm3.359375 -3.921875l1.21875 0l0.046875 1.265625q0.34375 -0.40625 0.65625 -0.671875q0.328125 -0.28125 0.640625 -0.4375q0.3125 -0.171875 0.625 -0.234375q0.328125 -0.0625 0.671875 -0.0625q1.203125 0 1.828125 0.71875q0.625 0.703125 0.625 2.140625l0 5.125l-1.359375 0l0 -5.015625q0 -0.921875 -0.34375 -1.359375q-0.34375 -0.4375 -1.03125 -0.4375q-0.25 0 -0.484375 0.078125q-0.234375 0.0625 -0.5 0.25q-0.25 0.1875 -0.5625 0.5q-0.296875 0.3125 -0.671875 0.78125l0 5.203125l-1.359375 0l0 -7.84375zm24.140633 7.84375l-6.421875 0l0 -1.265625l2.625 0l0 -7.453125l-2.4375 1.328125l-0.5 -1.15625l3.25 -1.71875l1.203125 0l0 9.0l2.28125 0l0 1.265625zm5.40625 -7.984375q0.234375 0 0.453125 0.09375q0.21875 0.09375 0.375 0.265625q0.171875 0.15625 0.265625 0.375q0.109375 0.21875 0.109375 0.46875q0 0.25 -0.109375 0.46875q-0.09375 0.203125 -0.265625 0.375q-0.15625 0.15625 -0.375 0.25q-0.21875 0.09375 -0.453125 0.09375q-0.25 0 -0.46875 -0.09375q-0.21875 -0.09375 -0.390625 -0.25q-0.15625 -0.171875 -0.25 -0.375q-0.09375 -0.21875 -0.09375 -0.46875q0 -0.25 0.09375 -0.46875q0.09375 -0.21875 0.25 -0.375q0.171875 -0.171875 0.390625 -0.265625q0.21875 -0.09375 0.46875 -0.09375zm0 5.71875q0.234375 0 0.453125 0.109375q0.21875 0.09375 0.375 0.265625q0.171875 0.15625 0.265625 0.375q0.109375 0.21875 0.109375 0.453125q0 0.25 -0.109375 0.46875q-0.09375 0.21875 -0.265625 0.390625q-0.15625 0.15625 -0.375 0.25q-0.21875 0.09375 -0.453125 0.09375q-0.25 0 -0.46875 -0.09375q-0.21875 -0.09375 -0.390625 -0.25q-0.15625 -0.171875 -0.25 -0.390625q-0.09375 -0.21875 -0.09375 -0.46875q0 -0.234375 0.09375 -0.453125q0.09375 -0.21875 0.25 -0.375q0.171875 -0.171875 0.390625 -0.265625q0.21875 -0.109375 0.46875 -0.109375zm21.125 -4.828125q0 0.625 -0.234375 1.25q-0.234375 0.609375 -0.734375 1.09375q-0.484375 0.484375 -1.25 0.78125q-0.765625 0.296875 -1.828125 0.296875l-1.265625 0l0 3.671875l-1.390625 0l0 -10.21875l2.875 0q0.765625 0 1.453125 0.171875q0.703125 0.171875 1.21875 0.546875q0.53125 0.375 0.84375 0.96875q0.3125 0.59375 0.3125 1.4375zm-1.4375 0.0625q0 -0.984375 -0.65625 -1.5q-0.640625 -0.53125 -1.796875 -0.53125l-1.421875 0l0 4.203125l1.296875 0q1.234375 0 1.90625 -0.53125q0.671875 -0.546875 0.671875 -1.640625zm9.859375 7.03125l-1.21875 0l-0.046875 -1.265625q-0.359375 0.40625 -0.671875 0.671875q-0.3125 0.265625 -0.625 0.4375q-0.3125 0.171875 -0.640625 0.234375q-0.3125 0.0625 -0.65625 0.0625q-1.21875 0 -1.84375 -0.703125q-0.609375 -0.71875 -0.609375 -2.15625l0 -5.125l1.359375 0l0 5.015625q0 1.796875 1.359375 1.796875q0.25 0 0.484375 -0.0625q0.25 -0.078125 0.5 -0.265625q0.265625 -0.1875 0.5625 -0.5q0.3125 -0.3125 0.6875 -0.78125l0 -5.203125l1.359375 0l0 7.84375zm8.703125 -2.140625q0 0.40625 -0.140625 0.734375q-0.140625 0.328125 -0.390625 0.59375q-0.234375 0.25 -0.5625 0.4375q-0.3125 0.171875 -0.6875 0.296875q-0.359375 0.109375 -0.75 0.15625q-0.375 0.0625 -0.734375 0.0625q-0.796875 0 -1.46875 -0.078125q-0.671875 -0.0625 -1.3125 -0.21875l0 -1.25q0.6875 0.1875 1.359375 0.296875q0.6875 0.09375 1.359375 0.09375q0.984375 0 1.453125 -0.265625q0.46875 -0.265625 0.46875 -0.75q0 -0.21875 -0.078125 -0.375q-0.078125 -0.171875 -0.28125 -0.328125q-0.1875 -0.15625 -0.59375 -0.3125q-0.40625 -0.171875 -1.125 -0.375q-0.53125 -0.15625 -0.984375 -0.359375q-0.4375 -0.203125 -0.765625 -0.46875q-0.328125 -0.28125 -0.515625 -0.640625q-0.1875 -0.375 -0.1875 -0.875q0 -0.328125 0.140625 -0.71875q0.15625 -0.390625 0.515625 -0.71875q0.375 -0.34375 1.0 -0.5625q0.625 -0.21875 1.5625 -0.21875q0.46875 0 1.03125 0.046875q0.5625 0.046875 1.171875 0.171875l0 1.21875q-0.640625 -0.15625 -1.21875 -0.234375q-0.578125 -0.078125 -1.0 -0.078125q-0.5 0 -0.859375 0.078125q-0.34375 0.078125 -0.5625 0.21875q-0.203125 0.140625 -0.296875 0.328125q-0.09375 0.171875 -0.09375 0.390625q0 0.203125 0.078125 0.375q0.078125 0.171875 0.296875 0.34375q0.234375 0.15625 0.625 0.3125q0.40625 0.15625 1.046875 0.34375q0.6875 0.203125 1.15625 0.4375q0.484375 0.21875 0.78125 0.5q0.296875 0.265625 0.421875 0.609375q0.140625 0.34375 0.140625 0.78125zm8.890625 2.140625l-1.359375 0l0 -5.015625q0 -0.90625 -0.34375 -1.34375q-0.34375 -0.453125 -0.96875 -0.453125q-0.28125 0 -0.515625 0.078125q-0.234375 0.0625 -0.5 0.25q-0.25 0.1875 -0.5625 0.5q-0.296875 0.3125 -0.703125 0.78125l0 5.203125l-1.359375 0l0 -11.046875l1.359375 0l0 3.203125l-0.046875 1.234375q0.328125 -0.390625 0.625 -0.640625q0.3125 -0.265625 0.625 -0.421875q0.3125 -0.171875 0.625 -0.234375q0.328125 -0.078125 0.671875 -0.078125q1.171875 0 1.8125 0.71875q0.640625 0.703125 0.640625 2.140625l0 5.125z" fill-rule="nonzero"></path><path fill="#000000" d="m38.190575 306.11145q0 0.71875 -0.296875 1.265625q-0.296875 0.546875 -0.828125 0.921875q-0.53125 0.359375 -1.28125 0.546875q-0.75 0.171875 -1.640625 0.171875q-0.40625 0 -0.8125 -0.03125q-0.40625 -0.03125 -0.78125 -0.078125q-0.359375 -0.046875 -0.6874981 -0.109375q-0.328125 -0.0625 -0.59375 -0.140625l0 -1.34375q0.578125 0.21875 1.3124981 0.34375q0.734375 0.125 1.65625 0.125q0.671875 0 1.140625 -0.09375q0.484375 -0.109375 0.78125 -0.3125q0.296875 -0.21875 0.4375 -0.515625q0.140625 -0.296875 0.140625 -0.671875q0 -0.421875 -0.234375 -0.703125q-0.234375 -0.296875 -0.609375 -0.53125q-0.375 -0.234375 -0.859375 -0.421875q-0.46875 -0.1875 -0.96875 -0.390625q-0.5 -0.203125 -0.984375 -0.4375q-0.484375 -0.25 -0.859375 -0.5625q-0.3749981 -0.328125 -0.6093731 -0.765625q-0.21875 -0.4375 -0.21875 -1.046875q0 -0.515625 0.21875 -1.015625q0.21875 -0.515625 0.6718731 -0.90625q0.46875 -0.40625 1.1875 -0.640625q0.71875 -0.25 1.71875 -0.25q0.265625 0 0.5625 0.03125q0.296875 0.015625 0.609375 0.0625q0.3125 0.046875 0.609375 0.109375q0.296875 0.046875 0.5625 0.109375l0 1.25q-0.609375 -0.171875 -1.21875 -0.265625q-0.59375 -0.09375 -1.15625 -0.09375q-1.1875 0 -1.75 0.40625q-0.5625 0.390625 -0.5625 1.0625q0 0.421875 0.21875 0.71875q0.234375 0.296875 0.609375 0.53125q0.375 0.234375 0.859375 0.421875q0.484375 0.1875 0.984375 0.390625q0.5 0.203125 0.96875 0.453125q0.484375 0.234375 0.859375 0.578125q0.375 0.328125 0.609375 0.78125q0.234375 0.4375 0.234375 1.046875zm8.34375 2.46875q-0.53125 0.203125 -1.09375 0.296875q-0.546875 0.109375 -1.140625 0.109375q-1.859375 0 -2.875 -1.0q-1.0 -1.015625 -1.0 -2.953125q0 -0.9375 0.28125 -1.6875q0.296875 -0.765625 0.8125 -1.296875q0.53125 -0.546875 1.25 -0.828125q0.734375 -0.296875 1.609375 -0.296875q0.609375 0 1.140625 0.09375q0.53125 0.078125 1.015625 0.265625l0 1.296875q-0.5 -0.265625 -1.03125 -0.375q-0.53125 -0.125 -1.09375 -0.125q-0.515625 0 -0.984375 0.203125q-0.46875 0.1875 -0.828125 0.5625q-0.34375 0.375 -0.546875 0.921875q-0.203125 0.53125 -0.203125 1.21875q0 1.421875 0.6875 2.125q0.703125 0.703125 1.921875 0.703125q0.5625 0 1.078125 -0.125q0.515625 -0.125 1.0 -0.375l0 1.265625zm7.75 0.296875l-0.03125 -1.0625q-0.640625 0.640625 -1.3125 0.921875q-0.65625 0.28125 -1.375 0.28125q-0.671875 0 -1.15625 -0.171875q-0.46875 -0.171875 -0.78125 -0.46875q-0.3125 -0.3125 -0.453125 -0.71875q-0.140625 -0.40625 -0.140625 -0.875q0 -1.1875 0.875 -1.84375q0.875 -0.671875 2.59375 -0.671875l1.625 0l0 -0.6875q0 -0.703125 -0.453125 -1.109375q-0.4375 -0.421875 -1.34375 -0.421875q-0.671875 0 -1.3125 0.15625q-0.640625 0.140625 -1.328125 0.40625l0 -1.21875q0.25 -0.09375 0.5625 -0.1875q0.328125 -0.09375 0.671875 -0.15625q0.359375 -0.078125 0.734375 -0.109375q0.390625 -0.046875 0.78125 -0.046875q0.703125 0 1.265625 0.15625q0.578125 0.15625 0.96875 0.484375q0.40625 0.3125 0.609375 0.796875q0.21875 0.484375 0.21875 1.140625l0 5.40625l-1.21875 0zm-0.15625 -3.578125l-1.71875 0q-0.515625 0 -0.890625 0.109375q-0.359375 0.09375 -0.59375 0.28125q-0.234375 0.1875 -0.34375 0.453125q-0.109375 0.265625 -0.109375 0.59375q0 0.21875 0.0625 0.4375q0.078125 0.203125 0.234375 0.359375q0.15625 0.15625 0.40625 0.25q0.25 0.09375 0.609375 0.09375q0.46875 0 1.0625 -0.28125q0.609375 -0.28125 1.28125 -0.90625l0 -1.390625zm3.90625 -4.265625l1.21875 0l0.046875 1.265625q0.34375 -0.40625 0.65625 -0.671875q0.328125 -0.28125 0.640625 -0.4375q0.3125 -0.171875 0.625 -0.234375q0.328125 -0.0625 0.671875 -0.0625q1.203125 0 1.828125 0.71875q0.625 0.703125 0.625 2.140625l0 5.125l-1.359375 0l0 -5.015625q0 -0.921875 -0.34375 -1.359375q-0.34375 -0.4375 -1.03125 -0.4375q-0.25 0 -0.484375 0.078125q-0.234375 0.0625 -0.5 0.25q-0.25 0.1875 -0.5625 0.5q-0.296875 0.3125 -0.671875 0.78125l0 5.203125l-1.359375 0l0 -7.84375zm22.90625 0l0 7.703125q0 0.828125 -0.234375 1.453125q-0.234375 0.640625 -0.671875 1.078125q-0.4375 0.4375 -1.078125 0.65625q-0.625 0.234375 -1.421875 0.234375q-0.578125 0 -1.140625 -0.109375q-0.546875 -0.09375 -0.984375 -0.28125l0 -1.296875q0.234375 0.125 0.515625 0.21875q0.28125 0.109375 0.5625 0.171875q0.296875 0.078125 0.59375 0.109375q0.296875 0.03125 0.578125 0.03125q0.890625 0 1.390625 -0.5625q0.515625 -0.5625 0.515625 -1.65625l0 -6.625l-3.84375 0l0 -1.125l5.21875 0zm-0.8125 -3.296875q0.21875 0 0.40625 0.09375q0.203125 0.078125 0.34375 0.234375q0.15625 0.140625 0.234375 0.34375q0.078125 0.1875 0.078125 0.40625q0 0.21875 -0.078125 0.421875q-0.078125 0.1875 -0.234375 0.34375q-0.140625 0.140625 -0.34375 0.21875q-0.1875 0.078125 -0.40625 0.078125q-0.234375 0 -0.4375 -0.078125q-0.1875 -0.078125 -0.328125 -0.21875q-0.140625 -0.15625 -0.234375 -0.34375q-0.078125 -0.203125 -0.078125 -0.421875q0 -0.21875 0.078125 -0.40625q0.09375 -0.203125 0.234375 -0.34375q0.140625 -0.15625 0.328125 -0.234375q0.203125 -0.09375 0.4375 -0.09375zm20.0625 1.359375q-1.078125 -0.21875 -1.84375 -0.21875q-1.84375 0 -1.84375 1.921875l0 1.375l3.4375 0l0 1.125l-3.4375 0l0 5.578125l-1.375 0l0 -5.578125l-2.53125 0l0 -1.125l2.53125 0l0 -1.296875q0 -3.140625 3.265625 -3.140625q0.8125 0 1.796875 0.1875l0 1.171875zm-8.21875 1.9375l0 0zm16.875 3.859375q0 0.90625 -0.265625 1.671875q-0.25 0.765625 -0.734375 1.3125q-0.484375 0.53125 -1.1875 0.84375q-0.6875 0.296875 -1.5625 0.296875q-0.84375 0 -1.515625 -0.265625q-0.671875 -0.265625 -1.140625 -0.765625q-0.453125 -0.515625 -0.703125 -1.265625q-0.25 -0.75 -0.25 -1.71875q0 -0.921875 0.25 -1.671875q0.265625 -0.75 0.75 -1.296875q0.484375 -0.546875 1.171875 -0.84375q0.703125 -0.296875 1.59375 -0.296875q0.84375 0 1.5 0.265625q0.671875 0.25 1.140625 0.765625q0.46875 0.5 0.703125 1.25q0.25 0.75 0.25 1.71875zm-1.390625 0.0625q0 -0.734375 -0.15625 -1.265625q-0.15625 -0.546875 -0.453125 -0.90625q-0.296875 -0.375 -0.734375 -0.546875q-0.421875 -0.1875 -0.9375 -0.1875q-0.609375 0 -1.046875 0.234375q-0.4375 0.234375 -0.71875 0.640625q-0.265625 0.390625 -0.40625 0.921875q-0.125 0.53125 -0.125 1.109375q0 0.71875 0.15625 1.265625q0.171875 0.546875 0.46875 0.921875q0.296875 0.359375 0.71875 0.546875q0.421875 0.171875 0.953125 0.171875q0.609375 0 1.03125 -0.234375q0.4375 -0.234375 0.71875 -0.625q0.28125 -0.40625 0.40625 -0.9375q0.125 -0.53125 0.125 -1.109375zm3.6875 -3.921875l1.234375 0l0.046875 1.4375q0.6875 -0.828125 1.359375 -1.203125q0.6875 -0.375 1.375 -0.375q1.21875 0 1.84375 0.796875q0.625 0.78125 0.578125 2.328125l-1.375 0q0.03125 -1.03125 -0.296875 -1.484375q-0.328125 -0.46875 -0.953125 -0.46875q-0.265625 0 -0.546875 0.09375q-0.28125 0.09375 -0.578125 0.3125q-0.28125 0.21875 -0.609375 0.5625q-0.328125 0.328125 -0.703125 0.796875l0 5.046875l-1.375 0l0 -7.84375zm24.531258 0l-1.140625 7.84375l-1.640625 0l-1.140625 -3.28125l-0.21875 -0.796875l-0.265625 0.84375l-1.078125 3.234375l-1.609375 0l-1.1250076 -7.84375l1.3281326 0l0.65625 5.328125l0.140625 1.1875l0.328125 -1.046875l1.140625 -3.515625l0.984375 0l1.21875 3.46875l0.359375 1.046875l0.109375 -1.109375l0.609375 -5.359375l1.34375 0zm6.828125 11.046875l-3.84375 0l0 -14.515625l3.84375 0l0 1.09375l-2.546875 0l0 12.328125l2.546875 0l0 1.09375zm6.171875 -9.921875l-2.3125 0l0 -1.125l3.6875 0l0 6.703125l2.34375 0l0 1.140625l-6.296875 0l0 -1.140625l2.578125 0l0 -5.578125zm0.484375 -4.421875q0.21875 0 0.40625 0.09375q0.203125 0.078125 0.34375 0.234375q0.15625 0.140625 0.234375 0.328125q0.078125 0.1875 0.078125 0.421875q0 0.21875 -0.078125 0.421875q-0.078125 0.1875 -0.234375 0.34375q-0.140625 0.140625 -0.34375 0.21875q-0.1875 0.078125 -0.40625 0.078125q-0.234375 0 -0.4375 -0.078125q-0.1875 -0.078125 -0.328125 -0.21875q-0.140625 -0.15625 -0.234375 -0.34375q-0.078125 -0.203125 -0.078125 -0.421875q0 -0.234375 0.078125 -0.421875q0.09375 -0.1875 0.234375 -0.328125q0.140625 -0.15625 0.328125 -0.234375q0.203125 -0.09375 0.4375 -0.09375zm19.921875 7.515625l-4.671875 0l0 -1.28125l4.671875 0l0 1.28125zm18.65625 3.625l-6.421875 0l0 -1.265625l2.625 0l0 -7.453125l-2.4375 1.328125l-0.5 -1.15625l3.25 -1.71875l1.203125 0l0 9.0l2.28125 0l0 1.265625zm7.109375 3.203125l-3.859375 0l0 -1.09375l2.546875 0l0 -12.328125l-2.546875 0l0 -1.09375l3.859375 0l0 14.515625z" fill-rule="nonzero"></path><path fill="#000000" d="m38.909325 339.03333l-1.140625 7.84375l-1.640625 0l-1.140625 -3.28125l-0.21875 -0.796875l-0.265625 0.84375l-1.078125 3.234375l-1.6093731 0l-1.125 -7.84375l1.3281231 0l0.65625 5.328125l0.140625 1.1875l0.328125 -1.046875l1.140625 -3.515625l0.984375 0l1.21875 3.46875l0.359375 1.046875l0.109375 -1.109375l0.609375 -5.359375l1.34375 0zm6.828125 11.046875l-3.84375 0l0 -14.515625l3.84375 0l0 1.09375l-2.546875 0l0 12.328125l2.546875 0l0 1.09375zm14.96875 -9.921875l-2.3125 0l0 -1.125l3.6875 0l0 6.703125l2.34375 0l0 1.140625l-6.296875 0l0 -1.140625l2.578125 0l0 -5.578125zm0.484375 -4.421875q0.21875 0 0.40625 0.09375q0.203125 0.078125 0.34375 0.234375q0.15625 0.140625 0.234375 0.328125q0.078125 0.1875 0.078125 0.421875q0 0.21875 -0.078125 0.421875q-0.078125 0.1875 -0.234375 0.34375q-0.140625 0.140625 -0.34375 0.21875q-0.1875 0.078125 -0.40625 0.078125q-0.234375 0 -0.4375 -0.078125q-0.1875 -0.078125 -0.328125 -0.21875q-0.140625 -0.15625 -0.234375 -0.34375q-0.078125 -0.203125 -0.078125 -0.421875q0 -0.234375 0.078125 -0.421875q0.09375 -0.1875 0.234375 -0.328125q0.140625 -0.15625 0.328125 -0.234375q0.203125 -0.09375 0.4375 -0.09375zm19.296875 14.34375l-3.859375 0l0 -1.09375l2.546875 0l0 -12.328125l-2.546875 0l0 -1.09375l3.859375 0l0 14.515625zm9.234375 0l-3.84375 0l0 -14.515625l3.84375 0l0 1.09375l-2.546875 0l0 12.328125l2.546875 0l0 1.09375zm17.609375 -11.046875l0 7.703125q0 0.828125 -0.234375 1.453125q-0.234375 0.640625 -0.671875 1.078125q-0.4375 0.4375 -1.078125 0.65625q-0.625 0.234375 -1.421875 0.234375q-0.578125 0 -1.140625 -0.109375q-0.546875 -0.09375 -0.984375 -0.28125l0 -1.296875q0.234375 0.125 0.515625 0.21875q0.28125 0.109375 0.5625 0.171875q0.296875 0.078125 0.59375 0.109375q0.296875 0.03125 0.578125 0.03125q0.890625 0 1.390625 -0.5625q0.515625 -0.5625 0.515625 -1.65625l0 -6.625l-3.84375 0l0 -1.125l5.21875 0zm-0.8125 -3.296875q0.21875 0 0.40625 0.09375q0.203125 0.078125 0.34375 0.234375q0.15625 0.140625 0.234375 0.34375q0.078125 0.1875 0.078125 0.40625q0 0.21875 -0.078125 0.421875q-0.078125 0.1875 -0.234375 0.34375q-0.140625 0.140625 -0.34375 0.21875q-0.1875 0.078125 -0.40625 0.078125q-0.234375 0 -0.4375 -0.078125q-0.1875 -0.078125 -0.328125 -0.21875q-0.140625 -0.15625 -0.234375 -0.34375q-0.078125 -0.203125 -0.078125 -0.421875q0 -0.21875 0.078125 -0.40625q0.09375 -0.203125 0.234375 -0.34375q0.140625 -0.15625 0.328125 -0.234375q0.203125 -0.09375 0.4375 -0.09375zm18.578125 7.515625l-4.671875 0l0 -1.28125l4.671875 0l0 1.28125zm12.109383 -4.21875l1.21875 0l0.046875 1.265625q0.34375 -0.40625 0.65625 -0.671875q0.328125 -0.28125 0.640625 -0.4375q0.3125 -0.171875 0.625 -0.234375q0.328125 -0.0625 0.671875 -0.0625q1.203125 0 1.828125 0.71875q0.625 0.703125 0.625 2.140625l0 5.125l-1.359375 0l0 -5.015625q0 -0.921875 -0.34375 -1.359375q-0.34375 -0.4375 -1.03125 -0.4375q-0.25 0 -0.484375 0.078125q-0.234375 0.0625 -0.5 0.25q-0.25 0.1875 -0.5625 0.5q-0.296875 0.3125 -0.671875 0.78125l0 5.203125l-1.359375 0l0 -7.84375zm15.109375 7.84375l-1.21875 0l-0.046875 -1.265625q-0.359375 0.40625 -0.671875 0.671875q-0.3125 0.265625 -0.625 0.4375q-0.3125 0.171875 -0.640625 0.234375q-0.3125 0.0625 -0.65625 0.0625q-1.21875 0 -1.84375 -0.703125q-0.609375 -0.71875 -0.609375 -2.15625l0 -5.125l1.359375 0l0 5.015625q0 1.796875 1.359375 1.796875q0.25 0 0.484375 -0.0625q0.25 -0.078125 0.5 -0.265625q0.265625 -0.1875 0.5625 -0.5q0.3125 -0.3125 0.6875 -0.78125l0 -5.203125l1.359375 0l0 7.84375zm8.078125 0l0 -5.640625q0 -0.359375 -0.03125 -0.59375q-0.015625 -0.234375 -0.078125 -0.375q-0.0625 -0.140625 -0.15625 -0.1875q-0.078125 -0.0625 -0.21875 -0.0625q-0.15625 0 -0.296875 0.09375q-0.125 0.09375 -0.28125 0.3125q-0.140625 0.203125 -0.328125 0.5625q-0.1875 0.34375 -0.4375 0.84375l0 5.046875l-1.234375 0l0 -5.484375q0 -0.4375 -0.03125 -0.703125q-0.03125 -0.265625 -0.09375 -0.40625q-0.046875 -0.15625 -0.140625 -0.203125q-0.09375 -0.0625 -0.234375 -0.0625q-0.140625 0 -0.265625 0.078125q-0.125 0.078125 -0.28125 0.28125q-0.140625 0.203125 -0.328125 0.5625q-0.1875 0.34375 -0.453125 0.890625l0 5.046875l-1.25 0l0 -7.84375l1.046875 0l0.0625 1.484375q0.203125 -0.4375 0.390625 -0.75q0.1875 -0.3125 0.390625 -0.5q0.203125 -0.203125 0.4375 -0.28125q0.234375 -0.09375 0.515625 -0.09375q0.625 0 0.953125 0.421875q0.328125 0.40625 0.328125 1.265625q0.1875 -0.40625 0.359375 -0.71875q0.1875 -0.3125 0.390625 -0.53125q0.21875 -0.21875 0.46875 -0.328125q0.25 -0.109375 0.578125 -0.109375q1.46875 0 1.46875 2.265625l0 5.71875l-1.25 0zm10.75 3.203125l-8.796875 0l0 -1.125l8.796875 0l0 1.125zm3.921875 -9.921875l-2.3125 0l0 -1.125l3.6875 0l0 6.703125l2.34375 0l0 1.140625l-6.296875 0l0 -1.140625l2.578125 0l0 -5.578125zm0.484375 -4.421875q0.21875 0 0.40625 0.09375q0.203125 0.078125 0.34375 0.234375q0.15625 0.140625 0.234375 0.328125q0.078125 0.1875 0.078125 0.421875q0 0.21875 -0.078125 0.421875q-0.078125 0.1875 -0.234375 0.34375q-0.140625 0.140625 -0.34375 0.21875q-0.1875 0.078125 -0.40625 0.078125q-0.234375 0 -0.4375 -0.078125q-0.1875 -0.078125 -0.328125 -0.21875q-0.140625 -0.15625 -0.234375 -0.34375q-0.078125 -0.203125 -0.078125 -0.421875q0 -0.234375 0.078125 -0.421875q0.09375 -0.1875 0.234375 -0.328125q0.140625 -0.15625 0.328125 -0.234375q0.203125 -0.09375 0.4375 -0.09375zm19.296875 14.34375l-3.859375 0l0 -1.09375l2.546875 0l0 -12.328125l-2.546875 0l0 -1.09375l3.859375 0l0 14.515625zm19.625 -6.875l-3.0625 0l0 3.1875l-1.34375 0l0 -3.1875l-3.078125 0l0 -1.1875l3.078125 0l0 -3.15625l1.34375 0l0 3.15625l3.0625 0l0 1.1875zm8.421875 -1.375l-6.71875 0l0 -1.15625l6.71875 0l0 1.15625zm0 2.71875l-6.71875 0l0 -1.15625l6.71875 0l0 1.15625zm18.15625 2.328125l-1.8125 0l-2.109375 -3.0l-2.09375 3.0l-1.765625 0l3.046875 -3.9375l-2.90625 -3.90625l1.75 0l2.0625 3.015625l2.015625 -3.015625l1.6875 0l-2.953125 3.9375l3.078125 3.90625zm7.015625 3.203125l-3.84375 0l0 -14.515625l3.84375 0l0 1.09375l-2.546875 0l0 12.328125l2.546875 0l0 1.09375zm14.96875 -9.921875l-2.3125 0l0 -1.125l3.6875 0l0 6.703125l2.34375 0l0 1.140625l-6.296875 0l0 -1.140625l2.578125 0l0 -5.578125zm0.484375 -4.421875q0.21875 0 0.40625 0.09375q0.203125 0.078125 0.34375 0.234375q0.15625 0.140625 0.234375 0.328125q0.078125 0.1875 0.078125 0.421875q0 0.21875 -0.078125 0.421875q-0.078125 0.1875 -0.234375 0.34375q-0.140625 0.140625 -0.34375 0.21875q-0.1875 0.078125 -0.40625 0.078125q-0.234375 0 -0.4375 -0.078125q-0.1875 -0.078125 -0.328125 -0.21875q-0.140625 -0.15625 -0.234375 -0.34375q-0.078125 -0.203125 -0.078125 -0.421875q0 -0.234375 0.078125 -0.421875q0.09375 -0.1875 0.234375 -0.328125q0.140625 -0.15625 0.328125 -0.234375q0.203125 -0.09375 0.4375 -0.09375zm19.921875 7.515625l-4.671875 0l0 -1.28125l4.671875 0l0 1.28125zm18.65625 3.625l-6.421875 0l0 -1.265625l2.625 0l0 -7.453125l-2.4375 1.328125l-0.5 -1.15625l3.25 -1.71875l1.203125 0l0 9.0l2.28125 0l0 1.265625zm15.90625 3.203125l-3.859375 0l0 -1.09375l2.546875 0l0 -12.328125l-2.546875 0l0 -1.09375l3.859375 0l0 14.515625zm9.234375 0l-3.84375 0l0 -14.515625l3.84375 0l0 1.09375l-2.546875 0l0 12.328125l2.546875 0l0 1.09375zm17.609375 -11.046875l0 7.703125q0 0.828125 -0.234375 1.453125q-0.234375 0.640625 -0.671875 1.078125q-0.4375 0.4375 -1.078125 0.65625q-0.625 0.234375 -1.421875 0.234375q-0.578125 0 -1.140625 -0.109375q-0.546875 -0.09375 -0.984375 -0.28125l0 -1.296875q0.234375 0.125 0.515625 0.21875q0.28125 0.109375 0.5625 0.171875q0.296875 0.078125 0.59375 0.109375q0.296875 0.03125 0.578125 0.03125q0.890625 0 1.390625 -0.5625q0.515625 -0.5625 0.515625 -1.65625l0 -6.625l-3.84375 0l0 -1.125l5.21875 0zm-0.8125 -3.296875q0.21875 0 0.40625 0.09375q0.203125 0.078125 0.34375 0.234375q0.15625 0.140625 0.234375 0.34375q0.078125 0.1875 0.078125 0.40625q0 0.21875 -0.078125 0.421875q-0.078125 0.1875 -0.234375 0.34375q-0.140625 0.140625 -0.34375 0.21875q-0.1875 0.078125 -0.40625 0.078125q-0.234375 0 -0.4375 -0.078125q-0.1875 -0.078125 -0.328125 -0.21875q-0.140625 -0.15625 -0.234375 -0.34375q-0.078125 -0.203125 -0.078125 -0.421875q0 -0.21875 0.078125 -0.40625q0.09375 -0.203125 0.234375 -0.34375q0.140625 -0.15625 0.328125 -0.234375q0.203125 -0.09375 0.4375 -0.09375zm17.953125 14.34375l-3.859375 0l0 -1.09375l2.546875 0l0 -12.328125l-2.546875 0l0 -1.09375l3.859375 0l0 14.515625z" fill-rule="nonzero"></path><path fill="#000000" d="m38.909325 358.03333l-1.140625 7.84375l-1.640625 0l-1.140625 -3.28125l-0.21875 -0.796875l-0.265625 0.84375l-1.078125 3.234375l-1.6093731 0l-1.125 -7.84375l1.3281231 0l0.65625 5.328125l0.140625 1.1875l0.328125 -1.046875l1.140625 -3.515625l0.984375 0l1.21875 3.46875l0.359375 1.046875l0.109375 -1.109375l0.609375 -5.359375l1.34375 0zm6.828125 11.046875l-3.84375 0l0 -14.515625l3.84375 0l0 1.09375l-2.546875 0l0 12.328125l2.546875 0l0 1.09375zm14.96875 -9.921875l-2.3125 0l0 -1.125l3.6875 0l0 6.703125l2.34375 0l0 1.140625l-6.296875 0l0 -1.140625l2.578125 0l0 -5.578125zm0.484375 -4.421875q0.21875 0 0.40625 0.09375q0.203125 0.078125 0.34375 0.234375q0.15625 0.140625 0.234375 0.328125q0.078125 0.1875 0.078125 0.421875q0 0.21875 -0.078125 0.421875q-0.078125 0.1875 -0.234375 0.34375q-0.140625 0.140625 -0.34375 0.21875q-0.1875 0.078125 -0.40625 0.078125q-0.234375 0 -0.4375 -0.078125q-0.1875 -0.078125 -0.328125 -0.21875q-0.140625 -0.15625 -0.234375 -0.34375q-0.078125 -0.203125 -0.078125 -0.421875q0 -0.234375 0.078125 -0.421875q0.09375 -0.1875 0.234375 -0.328125q0.140625 -0.15625 0.328125 -0.234375q0.203125 -0.09375 0.4375 -0.09375zm19.296875 14.34375l-3.859375 0l0 -1.09375l2.546875 0l0 -12.328125l-2.546875 0l0 -1.09375l3.859375 0l0 14.515625zm9.234375 0l-3.84375 0l0 -14.515625l3.84375 0l0 1.09375l-2.546875 0l0 12.328125l2.546875 0l0 1.09375zm17.609375 -11.046875l0 7.703125q0 0.828125 -0.234375 1.453125q-0.234375 0.640625 -0.671875 1.078125q-0.4375 0.4375 -1.078125 0.65625q-0.625 0.234375 -1.421875 0.234375q-0.578125 0 -1.140625 -0.109375q-0.546875 -0.09375 -0.984375 -0.28125l0 -1.296875q0.234375 0.125 0.515625 0.21875q0.28125 0.109375 0.5625 0.171875q0.296875 0.078125 0.59375 0.109375q0.296875 0.03125 0.578125 0.03125q0.890625 0 1.390625 -0.5625q0.515625 -0.5625 0.515625 -1.65625l0 -6.625l-3.84375 0l0 -1.125l5.21875 0zm-0.8125 -3.296875q0.21875 0 0.40625 0.09375q0.203125 0.078125 0.34375 0.234375q0.15625 0.140625 0.234375 0.34375q0.078125 0.1875 0.078125 0.40625q0 0.21875 -0.078125 0.421875q-0.078125 0.1875 -0.234375 0.34375q-0.140625 0.140625 -0.34375 0.21875q-0.1875 0.078125 -0.40625 0.078125q-0.234375 0 -0.4375 -0.078125q-0.1875 -0.078125 -0.328125 -0.21875q-0.140625 -0.15625 -0.234375 -0.34375q-0.078125 -0.203125 -0.078125 -0.421875q0 -0.21875 0.078125 -0.40625q0.09375 -0.203125 0.234375 -0.34375q0.140625 -0.15625 0.328125 -0.234375q0.203125 -0.09375 0.4375 -0.09375zm19.984375 7.46875l-3.0625 0l0 3.1875l-1.34375 0l0 -3.1875l-3.078125 0l0 -1.1875l3.078125 0l0 -3.15625l1.34375 0l0 3.15625l3.0625 0l0 1.1875zm10.703133 -4.171875l1.21875 0l0.046875 1.265625q0.34375 -0.40625 0.65625 -0.671875q0.328125 -0.28125 0.640625 -0.4375q0.3125 -0.171875 0.625 -0.234375q0.328125 -0.0625 0.671875 -0.0625q1.203125 0 1.828125 0.71875q0.625 0.703125 0.625 2.140625l0 5.125l-1.359375 0l0 -5.015625q0 -0.921875 -0.34375 -1.359375q-0.34375 -0.4375 -1.03125 -0.4375q-0.25 0 -0.484375 0.078125q-0.234375 0.0625 -0.5 0.25q-0.25 0.1875 -0.5625 0.5q-0.296875 0.3125 -0.671875 0.78125l0 5.203125l-1.359375 0l0 -7.84375zm15.109375 7.84375l-1.21875 0l-0.046875 -1.265625q-0.359375 0.40625 -0.671875 0.671875q-0.3125 0.265625 -0.625 0.4375q-0.3125 0.171875 -0.640625 0.234375q-0.3125 0.0625 -0.65625 0.0625q-1.21875 0 -1.84375 -0.703125q-0.609375 -0.71875 -0.609375 -2.15625l0 -5.125l1.359375 0l0 5.015625q0 1.796875 1.359375 1.796875q0.25 0 0.484375 -0.0625q0.25 -0.078125 0.5 -0.265625q0.265625 -0.1875 0.5625 -0.5q0.3125 -0.3125 0.6875 -0.78125l0 -5.203125l1.359375 0l0 7.84375zm8.078125 0l0 -5.640625q0 -0.359375 -0.03125 -0.59375q-0.015625 -0.234375 -0.078125 -0.375q-0.0625 -0.140625 -0.15625 -0.1875q-0.078125 -0.0625 -0.21875 -0.0625q-0.15625 0 -0.296875 0.09375q-0.125 0.09375 -0.28125 0.3125q-0.140625 0.203125 -0.328125 0.5625q-0.1875 0.34375 -0.4375 0.84375l0 5.046875l-1.234375 0l0 -5.484375q0 -0.4375 -0.03125 -0.703125q-0.03125 -0.265625 -0.09375 -0.40625q-0.046875 -0.15625 -0.140625 -0.203125q-0.09375 -0.0625 -0.234375 -0.0625q-0.140625 0 -0.265625 0.078125q-0.125 0.078125 -0.28125 0.28125q-0.140625 0.203125 -0.328125 0.5625q-0.1875 0.34375 -0.453125 0.890625l0 5.046875l-1.25 0l0 -7.84375l1.046875 0l0.0625 1.484375q0.203125 -0.4375 0.390625 -0.75q0.1875 -0.3125 0.390625 -0.5q0.203125 -0.203125 0.4375 -0.28125q0.234375 -0.09375 0.515625 -0.09375q0.625 0 0.953125 0.421875q0.328125 0.40625 0.328125 1.265625q0.1875 -0.40625 0.359375 -0.71875q0.1875 -0.3125 0.390625 -0.53125q0.21875 -0.21875 0.46875 -0.328125q0.25 -0.109375 0.578125 -0.109375q1.46875 0 1.46875 2.265625l0 5.71875l-1.25 0zm10.75 3.203125l-8.796875 0l0 -1.125l8.796875 0l0 1.125zm3.921875 -9.921875l-2.3125 0l0 -1.125l3.6875 0l0 6.703125l2.34375 0l0 1.140625l-6.296875 0l0 -1.140625l2.578125 0l0 -5.578125zm0.484375 -4.421875q0.21875 0 0.40625 0.09375q0.203125 0.078125 0.34375 0.234375q0.15625 0.140625 0.234375 0.328125q0.078125 0.1875 0.078125 0.421875q0 0.21875 -0.078125 0.421875q-0.078125 0.1875 -0.234375 0.34375q-0.140625 0.140625 -0.34375 0.21875q-0.1875 0.078125 -0.40625 0.078125q-0.234375 0 -0.4375 -0.078125q-0.1875 -0.078125 -0.328125 -0.21875q-0.140625 -0.15625 -0.234375 -0.34375q-0.078125 -0.203125 -0.078125 -0.421875q0 -0.234375 0.078125 -0.421875q0.09375 -0.1875 0.234375 -0.328125q0.140625 -0.15625 0.328125 -0.234375q0.203125 -0.09375 0.4375 -0.09375zm19.296875 14.34375l-3.859375 0l0 -1.09375l2.546875 0l0 -12.328125l-2.546875 0l0 -1.09375l3.859375 0l0 14.515625zm19.625 -6.875l-3.0625 0l0 3.1875l-1.34375 0l0 -3.1875l-3.078125 0l0 -1.1875l3.078125 0l0 -3.15625l1.34375 0l0 3.15625l3.0625 0l0 1.1875zm8.421875 -1.375l-6.71875 0l0 -1.15625l6.71875 0l0 1.15625zm0 2.71875l-6.71875 0l0 -1.15625l6.71875 0l0 1.15625zm18.15625 2.328125l-1.8125 0l-2.109375 -3.0l-2.09375 3.0l-1.765625 0l3.046875 -3.9375l-2.90625 -3.90625l1.75 0l2.0625 3.015625l2.015625 -3.015625l1.6875 0l-2.953125 3.9375l3.078125 3.90625zm7.015625 3.203125l-3.84375 0l0 -14.515625l3.84375 0l0 1.09375l-2.546875 0l0 12.328125l2.546875 0l0 1.09375zm14.96875 -9.921875l-2.3125 0l0 -1.125l3.6875 0l0 6.703125l2.34375 0l0 1.140625l-6.296875 0l0 -1.140625l2.578125 0l0 -5.578125zm0.484375 -4.421875q0.21875 0 0.40625 0.09375q0.203125 0.078125 0.34375 0.234375q0.15625 0.140625 0.234375 0.328125q0.078125 0.1875 0.078125 0.421875q0 0.21875 -0.078125 0.421875q-0.078125 0.1875 -0.234375 0.34375q-0.140625 0.140625 -0.34375 0.21875q-0.1875 0.078125 -0.40625 0.078125q-0.234375 0 -0.4375 -0.078125q-0.1875 -0.078125 -0.328125 -0.21875q-0.140625 -0.15625 -0.234375 -0.34375q-0.078125 -0.203125 -0.078125 -0.421875q0 -0.234375 0.078125 -0.421875q0.09375 -0.1875 0.234375 -0.328125q0.140625 -0.15625 0.328125 -0.234375q0.203125 -0.09375 0.4375 -0.09375zm19.921875 7.515625l-4.671875 0l0 -1.28125l4.671875 0l0 1.28125zm18.65625 3.625l-6.421875 0l0 -1.265625l2.625 0l0 -7.453125l-2.4375 1.328125l-0.5 -1.15625l3.25 -1.71875l1.203125 0l0 9.0l2.28125 0l0 1.265625zm15.90625 3.203125l-3.859375 0l0 -1.09375l2.546875 0l0 -12.328125l-2.546875 0l0 -1.09375l3.859375 0l0 14.515625zm9.234375 0l-3.84375 0l0 -14.515625l3.84375 0l0 1.09375l-2.546875 0l0 12.328125l2.546875 0l0 1.09375zm17.609375 -11.046875l0 7.703125q0 0.828125 -0.234375 1.453125q-0.234375 0.640625 -0.671875 1.078125q-0.4375 0.4375 -1.078125 0.65625q-0.625 0.234375 -1.421875 0.234375q-0.578125 0 -1.140625 -0.109375q-0.546875 -0.09375 -0.984375 -0.28125l0 -1.296875q0.234375 0.125 0.515625 0.21875q0.28125 0.109375 0.5625 0.171875q0.296875 0.078125 0.59375 0.109375q0.296875 0.03125 0.578125 0.03125q0.890625 0 1.390625 -0.5625q0.515625 -0.5625 0.515625 -1.65625l0 -6.625l-3.84375 0l0 -1.125l5.21875 0zm-0.8125 -3.296875q0.21875 0 0.40625 0.09375q0.203125 0.078125 0.34375 0.234375q0.15625 0.140625 0.234375 0.34375q0.078125 0.1875 0.078125 0.40625q0 0.21875 -0.078125 0.421875q-0.078125 0.1875 -0.234375 0.34375q-0.140625 0.140625 -0.34375 0.21875q-0.1875 0.078125 -0.40625 0.078125q-0.234375 0 -0.4375 -0.078125q-0.1875 -0.078125 -0.328125 -0.21875q-0.140625 -0.15625 -0.234375 -0.34375q-0.078125 -0.203125 -0.078125 -0.421875q0 -0.21875 0.078125 -0.40625q0.09375 -0.203125 0.234375 -0.34375q0.140625 -0.15625 0.328125 -0.234375q0.203125 -0.09375 0.4375 -0.09375zm17.953125 14.34375l-3.859375 0l0 -1.09375l2.546875 0l0 -12.328125l-2.546875 0l0 -1.09375l3.859375 0l0 14.515625z" fill-rule="nonzero"></path><path fill="#0000ff" d="m418.5187 280.84583l-3.015625 0l0 9.03125l-1.40625 0l0 -9.03125l-3.03125 0l0 -1.1875l7.453125 0l0 1.1875zm2.25 1.1875l1.234375 0l0.046875 1.4375q0.6875 -0.828125 1.359375 -1.203125q0.6875 -0.375 1.375 -0.375q1.21875 0 1.84375 0.796875q0.625 0.78125 0.578125 2.328125l-1.375 0q0.03125 -1.03125 -0.296875 -1.484375q-0.328125 -0.46875 -0.953125 -0.46875q-0.265625 0 -0.546875 0.09375q-0.28125 0.09375 -0.578125 0.3125q-0.28125 0.21875 -0.609375 0.5625q-0.328125 0.328125 -0.703125 0.796875l0 5.046875l-1.375 0l0 -7.84375zm13.515625 7.84375l-0.03125 -1.0625q-0.640625 0.640625 -1.3125 0.921875q-0.65625 0.28125 -1.375 0.28125q-0.671875 0 -1.15625 -0.171875q-0.46875 -0.171875 -0.78125 -0.46875q-0.3125 -0.3125 -0.453125 -0.71875q-0.140625 -0.40625 -0.140625 -0.875q0 -1.1875 0.875 -1.84375q0.875 -0.671875 2.59375 -0.671875l1.625 0l0 -0.6875q0 -0.703125 -0.453125 -1.109375q-0.4375 -0.421875 -1.34375 -0.421875q-0.671875 0 -1.3125 0.15625q-0.640625 0.140625 -1.328125 0.40625l0 -1.21875q0.25 -0.09375 0.5625 -0.1875q0.328125 -0.09375 0.671875 -0.15625q0.359375 -0.078125 0.734375 -0.109375q0.390625 -0.046875 0.78125 -0.046875q0.703125 0 1.265625 0.15625q0.578125 0.15625 0.96875 0.484375q0.40625 0.3125 0.609375 0.796875q0.21875 0.484375 0.21875 1.140625l0 5.40625l-1.21875 0zm-0.15625 -3.578125l-1.71875 0q-0.515625 0 -0.890625 0.109375q-0.359375 0.09375 -0.59375 0.28125q-0.234375 0.1875 -0.34375 0.453125q-0.109375 0.265625 -0.109375 0.59375q0 0.21875 0.0625 0.4375q0.078125 0.203125 0.234375 0.359375q0.15625 0.15625 0.40625 0.25q0.25 0.09375 0.609375 0.09375q0.46875 0 1.0625 -0.28125q0.609375 -0.28125 1.28125 -0.90625l0 -1.390625zm3.90625 -4.265625l1.21875 0l0.046875 1.265625q0.34375 -0.40625 0.65625 -0.671875q0.328125 -0.28125 0.640625 -0.4375q0.3125 -0.171875 0.625 -0.234375q0.328125 -0.0625 0.671875 -0.0625q1.203125 0 1.828125 0.71875q0.625 0.703125 0.625 2.140625l0 5.125l-1.359375 0l0 -5.015625q0 -0.921875 -0.34375 -1.359375q-0.34375 -0.4375 -1.03125 -0.4375q-0.25 0 -0.484375 0.078125q-0.234375 0.0625 -0.5 0.25q-0.25 0.1875 -0.5625 0.5q-0.296875 0.3125 -0.671875 0.78125l0 5.203125l-1.359375 0l0 -7.84375zm15.015625 5.703125q0 0.40625 -0.140625 0.734375q-0.140625 0.328125 -0.390625 0.59375q-0.234375 0.25 -0.5625 0.4375q-0.3125 0.171875 -0.6875 0.296875q-0.359375 0.109375 -0.75 0.15625q-0.375 0.0625 -0.734375 0.0625q-0.796875 0 -1.46875 -0.078125q-0.671875 -0.0625 -1.3125 -0.21875l0 -1.25q0.6875 0.1875 1.359375 0.296875q0.6875 0.09375 1.359375 0.09375q0.984375 0 1.453125 -0.265625q0.46875 -0.265625 0.46875 -0.75q0 -0.21875 -0.078125 -0.375q-0.078125 -0.171875 -0.28125 -0.328125q-0.1875 -0.15625 -0.59375 -0.3125q-0.40625 -0.171875 -1.125 -0.375q-0.53125 -0.15625 -0.984375 -0.359375q-0.4375 -0.203125 -0.765625 -0.46875q-0.328125 -0.28125 -0.515625 -0.640625q-0.1875 -0.375 -0.1875 -0.875q0 -0.328125 0.140625 -0.71875q0.15625 -0.390625 0.515625 -0.71875q0.375 -0.34375 1.0 -0.5625q0.625 -0.21875 1.5625 -0.21875q0.46875 0 1.03125 0.046875q0.5625 0.046875 1.171875 0.171875l0 1.21875q-0.640625 -0.15625 -1.21875 -0.234375q-0.578125 -0.078125 -1.0 -0.078125q-0.5 0 -0.859375 0.078125q-0.34375 0.078125 -0.5625 0.21875q-0.203125 0.140625 -0.296875 0.328125q-0.09375 0.171875 -0.09375 0.390625q0 0.203125 0.078125 0.375q0.078125 0.171875 0.296875 0.34375q0.234375 0.15625 0.625 0.3125q0.40625 0.15625 1.046875 0.34375q0.6875 0.203125 1.15625 0.4375q0.484375 0.21875 0.78125 0.5q0.296875 0.265625 0.421875 0.609375q0.140625 0.34375 0.140625 0.78125zm7.625 2.140625l-0.03125 -1.0625q-0.640625 0.640625 -1.3125 0.921875q-0.65625 0.28125 -1.375 0.28125q-0.671875 0 -1.15625 -0.171875q-0.46875 -0.171875 -0.78125 -0.46875q-0.3125 -0.3125 -0.453125 -0.71875q-0.140625 -0.40625 -0.140625 -0.875q0 -1.1875 0.875 -1.84375q0.875 -0.671875 2.59375 -0.671875l1.625 0l0 -0.6875q0 -0.703125 -0.453125 -1.109375q-0.4375 -0.421875 -1.34375 -0.421875q-0.671875 0 -1.3125 0.15625q-0.640625 0.140625 -1.328125 0.40625l0 -1.21875q0.25 -0.09375 0.5625 -0.1875q0.328125 -0.09375 0.671875 -0.15625q0.359375 -0.078125 0.734375 -0.109375q0.390625 -0.046875 0.78125 -0.046875q0.703125 0 1.265625 0.15625q0.578125 0.15625 0.96875 0.484375q0.40625 0.3125 0.609375 0.796875q0.21875 0.484375 0.21875 1.140625l0 5.40625l-1.21875 0zm-0.15625 -3.578125l-1.71875 0q-0.515625 0 -0.890625 0.109375q-0.359375 0.09375 -0.59375 0.28125q-0.234375 0.1875 -0.34375 0.453125q-0.109375 0.265625 -0.109375 0.59375q0 0.21875 0.0625 0.4375q0.078125 0.203125 0.234375 0.359375q0.15625 0.15625 0.40625 0.25q0.25 0.09375 0.609375 0.09375q0.46875 0 1.0625 -0.28125q0.609375 -0.28125 1.28125 -0.90625l0 -1.390625zm10.0 3.28125q-0.53125 0.203125 -1.09375 0.296875q-0.546875 0.109375 -1.140625 0.109375q-1.859375 0 -2.875 -1.0q-1.0 -1.015625 -1.0 -2.953125q0 -0.9375 0.28125 -1.6875q0.296875 -0.765625 0.8125 -1.296875q0.53125 -0.546875 1.25 -0.828125q0.734375 -0.296875 1.609375 -0.296875q0.609375 0 1.140625 0.09375q0.53125 0.078125 1.015625 0.265625l0 1.296875q-0.5 -0.265625 -1.03125 -0.375q-0.53125 -0.125 -1.09375 -0.125q-0.515625 0 -0.984375 0.203125q-0.46875 0.1875 -0.828125 0.5625q-0.34375 0.375 -0.546875 0.921875q-0.203125 0.53125 -0.203125 1.21875q0 1.421875 0.6875 2.125q0.703125 0.703125 1.921875 0.703125q0.5625 0 1.078125 -0.125q0.515625 -0.125 1.0 -0.375l0 1.265625zm9.03125 0.1875q-0.46875 0.125 -0.96875 0.171875q-0.484375 0.046875 -0.984375 0.046875q-1.484375 0 -2.21875 -0.671875q-0.71875 -0.671875 -0.71875 -2.046875l0 -4.09375l-2.1875 0l0 -1.140625l2.1875 0l0 -2.15625l1.359375 -0.359375l0 2.515625l3.53125 0l0 1.140625l-3.53125 0l0 3.984375q0 0.84375 0.453125 1.265625q0.453125 0.40625 1.328125 0.40625q0.375 0 0.8125 -0.046875q0.453125 -0.0625 0.9375 -0.1875l0 1.171875zm5.140625 -6.609375l-2.3125 0l0 -1.125l3.6875 0l0 6.703125l2.34375 0l0 1.140625l-6.296875 0l0 -1.140625l2.578125 0l0 -5.578125zm0.484375 -4.421875q0.21875 0 0.40625 0.09375q0.203125 0.078125 0.34375 0.234375q0.15625 0.140625 0.234375 0.328125q0.078125 0.1875 0.078125 0.421875q0 0.21875 -0.078125 0.421875q-0.078125 0.1875 -0.234375 0.34375q-0.140625 0.140625 -0.34375 0.21875q-0.1875 0.078125 -0.40625 0.078125q-0.234375 0 -0.4375 -0.078125q-0.1875 -0.078125 -0.328125 -0.21875q-0.140625 -0.15625 -0.234375 -0.34375q-0.078125 -0.203125 -0.078125 -0.421875q0 -0.234375 0.078125 -0.421875q0.09375 -0.1875 0.234375 -0.328125q0.140625 -0.15625 0.328125 -0.234375q0.203125 -0.09375 0.4375 -0.09375zm12.46875 7.15625q0 0.90625 -0.265625 1.671875q-0.25 0.765625 -0.734375 1.3125q-0.484375 0.53125 -1.1875 0.84375q-0.6875 0.296875 -1.5625 0.296875q-0.84375 0 -1.515625 -0.265625q-0.671875 -0.265625 -1.140625 -0.765625q-0.453125 -0.515625 -0.703125 -1.265625q-0.25 -0.75 -0.25 -1.71875q0 -0.921875 0.25 -1.671875q0.265625 -0.75 0.75 -1.296875q0.484375 -0.546875 1.171875 -0.84375q0.703125 -0.296875 1.59375 -0.296875q0.84375 0 1.5 0.265625q0.671875 0.25 1.140625 0.765625q0.46875 0.5 0.703125 1.25q0.25 0.75 0.25 1.71875zm-1.390625 0.0625q0 -0.734375 -0.15625 -1.265625q-0.15625 -0.546875 -0.453125 -0.90625q-0.296875 -0.375 -0.734375 -0.546875q-0.421875 -0.1875 -0.9375 -0.1875q-0.609375 0 -1.046875 0.234375q-0.4375 0.234375 -0.71875 0.640625q-0.265625 0.390625 -0.40625 0.921875q-0.125 0.53125 -0.125 1.109375q0 0.71875 0.15625 1.265625q0.171875 0.546875 0.46875 0.921875q0.296875 0.359375 0.71875 0.546875q0.421875 0.171875 0.953125 0.171875q0.609375 0 1.03125 -0.234375q0.4375 -0.234375 0.71875 -0.625q0.28125 -0.40625 0.40625 -0.9375q0.125 -0.53125 0.125 -1.109375zm3.359375 -3.921875l1.21875 0l0.046875 1.265625q0.34375 -0.40625 0.65625 -0.671875q0.328125 -0.28125 0.640625 -0.4375q0.3125 -0.171875 0.625 -0.234375q0.328125 -0.0625 0.671875 -0.0625q1.203125 0 1.828125 0.71875q0.625 0.703125 0.625 2.140625l0 5.125l-1.359375 0l0 -5.015625q0 -0.921875 -0.34375 -1.359375q-0.34375 -0.4375 -1.03125 -0.4375q-0.25 0 -0.484375 0.078125q-0.234375 0.0625 -0.5 0.25q-0.25 0.1875 -0.5625 0.5q-0.296875 0.3125 -0.671875 0.78125l0 5.203125l-1.359375 0l0 -7.84375zm24.21872 7.84375l-6.71875 0l0 -1.21875l2.640625 -2.625q0.640625 -0.640625 1.046875 -1.109375q0.40625 -0.46875 0.625 -0.859375q0.234375 -0.390625 0.3125 -0.734375q0.078125 -0.34375 0.078125 -0.734375q0 -0.375 -0.109375 -0.71875q-0.09375 -0.34375 -0.3125 -0.59375q-0.203125 -0.265625 -0.546875 -0.40625q-0.328125 -0.15625 -0.796875 -0.15625q-0.640625 0 -1.171875 0.296875q-0.53125 0.28125 -0.984375 0.75l-0.75 -0.90625q0.578125 -0.609375 1.328125 -0.96875q0.765625 -0.375 1.765625 -0.375q0.671875 0 1.234375 0.203125q0.5625 0.203125 0.96875 0.59375q0.40625 0.375 0.625 0.9375q0.21875 0.546875 0.21875 1.25q0 0.578125 -0.15625 1.078125q-0.15625 0.5 -0.46875 1.0q-0.3125 0.5 -0.796875 1.03125q-0.484375 0.53125 -1.140625 1.15625l-1.84375 1.8125l4.953125 0l0 1.296875zm5.328125 -7.984375q0.234375 0 0.453125 0.09375q0.21875 0.09375 0.375 0.265625q0.171875 0.15625 0.265625 0.375q0.109375 0.21875 0.109375 0.46875q0 0.25 -0.109375 0.46875q-0.09375 0.203125 -0.265625 0.375q-0.15625 0.15625 -0.375 0.25q-0.21875 0.09375 -0.453125 0.09375q-0.25 0 -0.46875 -0.09375q-0.21875 -0.09375 -0.390625 -0.25q-0.15625 -0.171875 -0.25 -0.375q-0.09375 -0.21875 -0.09375 -0.46875q0 -0.25 0.09375 -0.46875q0.09375 -0.21875 0.25 -0.375q0.171875 -0.171875 0.390625 -0.265625q0.21875 -0.09375 0.46875 -0.09375zm0 5.71875q0.234375 0 0.453125 0.109375q0.21875 0.09375 0.375 0.265625q0.171875 0.15625 0.265625 0.375q0.109375 0.21875 0.109375 0.453125q0 0.25 -0.109375 0.46875q-0.09375 0.21875 -0.265625 0.390625q-0.15625 0.15625 -0.375 0.25q-0.21875 0.09375 -0.453125 0.09375q-0.25 0 -0.46875 -0.09375q-0.21875 -0.09375 -0.390625 -0.25q-0.15625 -0.171875 -0.25 -0.390625q-0.09375 -0.21875 -0.09375 -0.46875q0 -0.234375 0.09375 -0.453125q0.09375 -0.21875 0.25 -0.375q0.171875 -0.171875 0.390625 -0.265625q0.21875 -0.109375 0.46875 -0.109375zm21.125 -4.828125q0 0.625 -0.234375 1.25q-0.234375 0.609375 -0.734375 1.09375q-0.484375 0.484375 -1.25 0.78125q-0.765625 0.296875 -1.828125 0.296875l-1.265625 0l0 3.671875l-1.390625 0l0 -10.21875l2.875 0q0.765625 0 1.453125 0.171875q0.703125 0.171875 1.21875 0.546875q0.53125 0.375 0.84375 0.96875q0.3125 0.59375 0.3125 1.4375zm-1.4375 0.0625q0 -0.984375 -0.65625 -1.5q-0.640625 -0.53125 -1.796875 -0.53125l-1.421875 0l0 4.203125l1.296875 0q1.234375 0 1.90625 -0.53125q0.671875 -0.546875 0.671875 -1.640625zm9.859375 7.03125l-1.21875 0l-0.046875 -1.265625q-0.359375 0.40625 -0.671875 0.671875q-0.3125 0.265625 -0.625 0.4375q-0.3125 0.171875 -0.640625 0.234375q-0.3125 0.0625 -0.65625 0.0625q-1.21875 0 -1.84375 -0.703125q-0.609375 -0.71875 -0.609375 -2.15625l0 -5.125l1.359375 0l0 5.015625q0 1.796875 1.359375 1.796875q0.25 0 0.484375 -0.0625q0.25 -0.078125 0.5 -0.265625q0.265625 -0.1875 0.5625 -0.5q0.3125 -0.3125 0.6875 -0.78125l0 -5.203125l1.359375 0l0 7.84375zm5.15625 -9.921875l-2.3125 0l0 -1.125l3.6875 0l0 9.90625l2.34375 0l0 1.140625l-6.296875 0l0 -1.140625l2.578125 0l0 -8.78125zm8.796875 0l-2.3125 0l0 -1.125l3.6875 0l0 9.90625l2.34375 0l0 1.140625l-6.296875 0l0 -1.140625l2.578125 0l0 -8.78125z" fill-rule="nonzero"></path><path fill="#000000" d="m418.19058 306.11145q0 0.71875 -0.296875 1.265625q-0.296875 0.546875 -0.828125 0.921875q-0.53125 0.359375 -1.28125 0.546875q-0.75 0.171875 -1.640625 0.171875q-0.40625 0 -0.8125 -0.03125q-0.40625 -0.03125 -0.78125 -0.078125q-0.359375 -0.046875 -0.6875 -0.109375q-0.328125 -0.0625 -0.59375 -0.140625l0 -1.34375q0.578125 0.21875 1.3125 0.34375q0.734375 0.125 1.65625 0.125q0.671875 0 1.140625 -0.09375q0.484375 -0.109375 0.78125 -0.3125q0.296875 -0.21875 0.4375 -0.515625q0.140625 -0.296875 0.140625 -0.671875q0 -0.421875 -0.234375 -0.703125q-0.234375 -0.296875 -0.609375 -0.53125q-0.375 -0.234375 -0.859375 -0.421875q-0.46875 -0.1875 -0.96875 -0.390625q-0.5 -0.203125 -0.984375 -0.4375q-0.484375 -0.25 -0.859375 -0.5625q-0.375 -0.328125 -0.609375 -0.765625q-0.21875 -0.4375 -0.21875 -1.046875q0 -0.515625 0.21875 -1.015625q0.21875 -0.515625 0.671875 -0.90625q0.46875 -0.40625 1.1875 -0.640625q0.71875 -0.25 1.71875 -0.25q0.265625 0 0.5625 0.03125q0.296875 0.015625 0.609375 0.0625q0.3125 0.046875 0.609375 0.109375q0.296875 0.046875 0.5625 0.109375l0 1.25q-0.609375 -0.171875 -1.21875 -0.265625q-0.59375 -0.09375 -1.15625 -0.09375q-1.1875 0 -1.75 0.40625q-0.5625 0.390625 -0.5625 1.0625q0 0.421875 0.21875 0.71875q0.234375 0.296875 0.609375 0.53125q0.375 0.234375 0.859375 0.421875q0.484375 0.1875 0.984375 0.390625q0.5 0.203125 0.96875 0.453125q0.484375 0.234375 0.859375 0.578125q0.375 0.328125 0.609375 0.78125q0.234375 0.4375 0.234375 1.046875zm8.34375 2.46875q-0.53125 0.203125 -1.09375 0.296875q-0.546875 0.109375 -1.140625 0.109375q-1.859375 0 -2.875 -1.0q-1.0 -1.015625 -1.0 -2.953125q0 -0.9375 0.28125 -1.6875q0.296875 -0.765625 0.8125 -1.296875q0.53125 -0.546875 1.25 -0.828125q0.734375 -0.296875 1.609375 -0.296875q0.609375 0 1.140625 0.09375q0.53125 0.078125 1.015625 0.265625l0 1.296875q-0.5 -0.265625 -1.03125 -0.375q-0.53125 -0.125 -1.09375 -0.125q-0.515625 0 -0.984375 0.203125q-0.46875 0.1875 -0.828125 0.5625q-0.34375 0.375 -0.546875 0.921875q-0.203125 0.53125 -0.203125 1.21875q0 1.421875 0.6875 2.125q0.703125 0.703125 1.921875 0.703125q0.5625 0 1.078125 -0.125q0.515625 -0.125 1.0 -0.375l0 1.265625zm7.75 0.296875l-0.03125 -1.0625q-0.640625 0.640625 -1.3125 0.921875q-0.65625 0.28125 -1.375 0.28125q-0.671875 0 -1.15625 -0.171875q-0.46875 -0.171875 -0.78125 -0.46875q-0.3125 -0.3125 -0.453125 -0.71875q-0.140625 -0.40625 -0.140625 -0.875q0 -1.1875 0.875 -1.84375q0.875 -0.671875 2.59375 -0.671875l1.625 0l0 -0.6875q0 -0.703125 -0.453125 -1.109375q-0.4375 -0.421875 -1.34375 -0.421875q-0.671875 0 -1.3125 0.15625q-0.640625 0.140625 -1.328125 0.40625l0 -1.21875q0.25 -0.09375 0.5625 -0.1875q0.328125 -0.09375 0.671875 -0.15625q0.359375 -0.078125 0.734375 -0.109375q0.390625 -0.046875 0.78125 -0.046875q0.703125 0 1.265625 0.15625q0.578125 0.15625 0.96875 0.484375q0.40625 0.3125 0.609375 0.796875q0.21875 0.484375 0.21875 1.140625l0 5.40625l-1.21875 0zm-0.15625 -3.578125l-1.71875 0q-0.515625 0 -0.890625 0.109375q-0.359375 0.09375 -0.59375 0.28125q-0.234375 0.1875 -0.34375 0.453125q-0.109375 0.265625 -0.109375 0.59375q0 0.21875 0.0625 0.4375q0.078125 0.203125 0.234375 0.359375q0.15625 0.15625 0.40625 0.25q0.25 0.09375 0.609375 0.09375q0.46875 0 1.0625 -0.28125q0.609375 -0.28125 1.28125 -0.90625l0 -1.390625zm3.90625 -4.265625l1.21875 0l0.046875 1.265625q0.34375 -0.40625 0.65625 -0.671875q0.328125 -0.28125 0.640625 -0.4375q0.3125 -0.171875 0.625 -0.234375q0.328125 -0.0625 0.671875 -0.0625q1.203125 0 1.828125 0.71875q0.625 0.703125 0.625 2.140625l0 5.125l-1.359375 0l0 -5.015625q0 -0.921875 -0.34375 -1.359375q-0.34375 -0.4375 -1.03125 -0.4375q-0.25 0 -0.484375 0.078125q-0.234375 0.0625 -0.5 0.25q-0.25 0.1875 -0.5625 0.5q-0.296875 0.3125 -0.671875 0.78125l0 5.203125l-1.359375 0l0 -7.84375zm22.90625 0l0 7.703125q0 0.828125 -0.234375 1.453125q-0.234375 0.640625 -0.671875 1.078125q-0.4375 0.4375 -1.078125 0.65625q-0.625 0.234375 -1.421875 0.234375q-0.578125 0 -1.140625 -0.109375q-0.546875 -0.09375 -0.984375 -0.28125l0 -1.296875q0.234375 0.125 0.515625 0.21875q0.28125 0.109375 0.5625 0.171875q0.296875 0.078125 0.59375 0.109375q0.296875 0.03125 0.578125 0.03125q0.890625 0 1.390625 -0.5625q0.515625 -0.5625 0.515625 -1.65625l0 -6.625l-3.84375 0l0 -1.125l5.21875 0zm-0.8125 -3.296875q0.21875 0 0.40625 0.09375q0.203125 0.078125 0.34375 0.234375q0.15625 0.140625 0.234375 0.34375q0.078125 0.1875 0.078125 0.40625q0 0.21875 -0.078125 0.421875q-0.078125 0.1875 -0.234375 0.34375q-0.140625 0.140625 -0.34375 0.21875q-0.1875 0.078125 -0.40625 0.078125q-0.234375 0 -0.4375 -0.078125q-0.1875 -0.078125 -0.328125 -0.21875q-0.140625 -0.15625 -0.234375 -0.34375q-0.078125 -0.203125 -0.078125 -0.421875q0 -0.21875 0.078125 -0.40625q0.09375 -0.203125 0.234375 -0.34375q0.140625 -0.15625 0.328125 -0.234375q0.203125 -0.09375 0.4375 -0.09375zm20.0625 1.359375q-1.078125 -0.21875 -1.84375 -0.21875q-1.84375 0 -1.84375 1.921875l0 1.375l3.4375 0l0 1.125l-3.4375 0l0 5.578125l-1.375 0l0 -5.578125l-2.53125 0l0 -1.125l2.53125 0l0 -1.296875q0 -3.140625 3.265625 -3.140625q0.8125 0 1.796875 0.1875l0 1.171875zm-8.21875 1.9375l0 0zm16.875 3.859375q0 0.90625 -0.265625 1.671875q-0.25 0.765625 -0.734375 1.3125q-0.484375 0.53125 -1.1875 0.84375q-0.6875 0.296875 -1.5625 0.296875q-0.84375 0 -1.515625 -0.265625q-0.671875 -0.265625 -1.140625 -0.765625q-0.453125 -0.515625 -0.703125 -1.265625q-0.25 -0.75 -0.25 -1.71875q0 -0.921875 0.25 -1.671875q0.265625 -0.75 0.75 -1.296875q0.484375 -0.546875 1.171875 -0.84375q0.703125 -0.296875 1.59375 -0.296875q0.84375 0 1.5 0.265625q0.671875 0.25 1.140625 0.765625q0.46875 0.5 0.703125 1.25q0.25 0.75 0.25 1.71875zm-1.390625 0.0625q0 -0.734375 -0.15625 -1.265625q-0.15625 -0.546875 -0.453125 -0.90625q-0.296875 -0.375 -0.734375 -0.546875q-0.421875 -0.1875 -0.9375 -0.1875q-0.609375 0 -1.046875 0.234375q-0.4375 0.234375 -0.71875 0.640625q-0.265625 0.390625 -0.40625 0.921875q-0.125 0.53125 -0.125 1.109375q0 0.71875 0.15625 1.265625q0.171875 0.546875 0.46875 0.921875q0.296875 0.359375 0.71875 0.546875q0.421875 0.171875 0.953125 0.171875q0.609375 0 1.03125 -0.234375q0.4375 -0.234375 0.71875 -0.625q0.28125 -0.40625 0.40625 -0.9375q0.125 -0.53125 0.125 -1.109375zm3.6875 -3.921875l1.234375 0l0.046875 1.4375q0.6875 -0.828125 1.359375 -1.203125q0.6875 -0.375 1.375 -0.375q1.21875 0 1.84375 0.796875q0.625 0.78125 0.578125 2.328125l-1.375 0q0.03125 -1.03125 -0.296875 -1.484375q-0.328125 -0.46875 -0.953125 -0.46875q-0.265625 0 -0.546875 0.09375q-0.28125 0.09375 -0.578125 0.3125q-0.28125 0.21875 -0.609375 0.5625q-0.328125 0.328125 -0.703125 0.796875l0 5.046875l-1.375 0l0 -7.84375zm24.53122 0l-1.140625 7.84375l-1.640625 0l-1.1405945 -3.28125l-0.21875 -0.796875l-0.265625 0.84375l-1.078125 3.234375l-1.609375 0l-1.125 -7.84375l1.328125 0l0.65625 5.328125l0.140625 1.1875l0.328125 -1.046875l1.140625 -3.515625l0.9843445 0l1.21875 3.46875l0.359375 1.046875l0.109375 -1.109375l0.609375 -5.359375l1.34375 0zm6.828125 11.046875l-3.84375 0l0 -14.515625l3.84375 0l0 1.09375l-2.546875 0l0 12.328125l2.546875 0l0 1.09375zm6.171875 -9.921875l-2.3125 0l0 -1.125l3.6875 0l0 6.703125l2.34375 0l0 1.140625l-6.296875 0l0 -1.140625l2.578125 0l0 -5.578125zm0.484375 -4.421875q0.21875 0 0.40625 0.09375q0.203125 0.078125 0.34375 0.234375q0.15625 0.140625 0.234375 0.328125q0.078125 0.1875 0.078125 0.421875q0 0.21875 -0.078125 0.421875q-0.078125 0.1875 -0.234375 0.34375q-0.140625 0.140625 -0.34375 0.21875q-0.1875 0.078125 -0.40625 0.078125q-0.234375 0 -0.4375 -0.078125q-0.1875 -0.078125 -0.328125 -0.21875q-0.140625 -0.15625 -0.234375 -0.34375q-0.078125 -0.203125 -0.078125 -0.421875q0 -0.234375 0.078125 -0.421875q0.09375 -0.1875 0.234375 -0.328125q0.140625 -0.15625 0.328125 -0.234375q0.203125 -0.09375 0.4375 -0.09375zm10.5 14.34375l-3.859375 0l0 -1.09375l2.546875 0l0 -12.328125l-2.546875 0l0 -1.09375l3.859375 0l0 14.515625z" fill-rule="nonzero"></path><path fill="#000000" d="m418.90933 339.03333l-1.140625 7.84375l-1.640625 0l-1.140625 -3.28125l-0.21875 -0.796875l-0.265625 0.84375l-1.078125 3.234375l-1.609375 0l-1.125 -7.84375l1.328125 0l0.65625 5.328125l0.140625 1.1875l0.328125 -1.046875l1.140625 -3.515625l0.984375 0l1.21875 3.46875l0.359375 1.046875l0.109375 -1.109375l0.609375 -5.359375l1.34375 0zm6.828125 11.046875l-3.84375 0l0 -14.515625l3.84375 0l0 1.09375l-2.546875 0l0 12.328125l2.546875 0l0 1.09375zm14.96875 -9.921875l-2.3125 0l0 -1.125l3.6875 0l0 6.703125l2.34375 0l0 1.140625l-6.296875 0l0 -1.140625l2.578125 0l0 -5.578125zm0.484375 -4.421875q0.21875 0 0.40625 0.09375q0.203125 0.078125 0.34375 0.234375q0.15625 0.140625 0.234375 0.328125q0.078125 0.1875 0.078125 0.421875q0 0.21875 -0.078125 0.421875q-0.078125 0.1875 -0.234375 0.34375q-0.140625 0.140625 -0.34375 0.21875q-0.1875 0.078125 -0.40625 0.078125q-0.234375 0 -0.4375 -0.078125q-0.1875 -0.078125 -0.328125 -0.21875q-0.140625 -0.15625 -0.234375 -0.34375q-0.078125 -0.203125 -0.078125 -0.421875q0 -0.234375 0.078125 -0.421875q0.09375 -0.1875 0.234375 -0.328125q0.140625 -0.15625 0.328125 -0.234375q0.203125 -0.09375 0.4375 -0.09375zm19.296875 14.34375l-3.859375 0l0 -1.09375l2.546875 0l0 -12.328125l-2.546875 0l0 -1.09375l3.859375 0l0 14.515625zm9.234375 0l-3.84375 0l0 -14.515625l3.84375 0l0 1.09375l-2.546875 0l0 12.328125l2.546875 0l0 1.09375zm17.609375 -11.046875l0 7.703125q0 0.828125 -0.234375 1.453125q-0.234375 0.640625 -0.671875 1.078125q-0.4375 0.4375 -1.078125 0.65625q-0.625 0.234375 -1.421875 0.234375q-0.578125 0 -1.140625 -0.109375q-0.546875 -0.09375 -0.984375 -0.28125l0 -1.296875q0.234375 0.125 0.515625 0.21875q0.28125 0.109375 0.5625 0.171875q0.296875 0.078125 0.59375 0.109375q0.296875 0.03125 0.578125 0.03125q0.890625 0 1.390625 -0.5625q0.515625 -0.5625 0.515625 -1.65625l0 -6.625l-3.84375 0l0 -1.125l5.21875 0zm-0.8125 -3.296875q0.21875 0 0.40625 0.09375q0.203125 0.078125 0.34375 0.234375q0.15625 0.140625 0.234375 0.34375q0.078125 0.1875 0.078125 0.40625q0 0.21875 -0.078125 0.421875q-0.078125 0.1875 -0.234375 0.34375q-0.140625 0.140625 -0.34375 0.21875q-0.1875 0.078125 -0.40625 0.078125q-0.234375 0 -0.4375 -0.078125q-0.1875 -0.078125 -0.328125 -0.21875q-0.140625 -0.15625 -0.234375 -0.34375q-0.078125 -0.203125 -0.078125 -0.421875q0 -0.21875 0.078125 -0.40625q0.09375 -0.203125 0.234375 -0.34375q0.140625 -0.15625 0.328125 -0.234375q0.203125 -0.09375 0.4375 -0.09375zm17.953125 14.34375l-3.859375 0l0 -1.09375l2.546875 0l0 -12.328125l-2.546875 0l0 -1.09375l3.859375 0l0 14.515625zm19.24997 -8.25l-6.71875 0l0 -1.15625l6.71875 0l0 1.15625zm0 2.71875l-6.71875 0l0 -1.15625l6.71875 0l0 1.15625zm35.9375 -5.515625l-1.140625 7.84375l-1.640625 0l-1.140625 -3.28125l-0.21875 -0.796875l-0.265625 0.84375l-1.078125 3.234375l-1.609375 0l-1.125 -7.84375l1.328125 0l0.65625 5.328125l0.140625 1.1875l0.328125 -1.046875l1.140625 -3.515625l0.984375 0l1.21875 3.46875l0.359375 1.046875l0.109375 -1.109375l0.609375 -5.359375l1.34375 0zm6.828125 11.046875l-3.84375 0l0 -14.515625l3.84375 0l0 1.09375l-2.546875 0l0 12.328125l2.546875 0l0 1.09375zm14.96875 -9.921875l-2.3125 0l0 -1.125l3.6875 0l0 6.703125l2.34375 0l0 1.140625l-6.296875 0l0 -1.140625l2.578125 0l0 -5.578125zm0.484375 -4.421875q0.21875 0 0.40625 0.09375q0.203125 0.078125 0.34375 0.234375q0.15625 0.140625 0.234375 0.328125q0.078125 0.1875 0.078125 0.421875q0 0.21875 -0.078125 0.421875q-0.078125 0.1875 -0.234375 0.34375q-0.140625 0.140625 -0.34375 0.21875q-0.1875 0.078125 -0.40625 0.078125q-0.234375 0 -0.4375 -0.078125q-0.1875 -0.078125 -0.328125 -0.21875q-0.140625 -0.15625 -0.234375 -0.34375q-0.078125 -0.203125 -0.078125 -0.421875q0 -0.234375 0.078125 -0.421875q0.09375 -0.1875 0.234375 -0.328125q0.140625 -0.15625 0.328125 -0.234375q0.203125 -0.09375 0.4375 -0.09375zm19.921875 7.515625l-4.671875 0l0 -1.28125l4.671875 0l0 1.28125zm18.65625 3.625l-6.421875 0l0 -1.265625l2.625 0l0 -7.453125l-2.4375 1.328125l-0.5 -1.15625l3.25 -1.71875l1.203125 0l0 9.0l2.28125 0l0 1.265625zm15.90625 3.203125l-3.859375 0l0 -1.09375l2.546875 0l0 -12.328125l-2.546875 0l0 -1.09375l3.859375 0l0 14.515625zm9.234375 0l-3.84375 0l0 -14.515625l3.84375 0l0 1.09375l-2.546875 0l0 12.328125l2.546875 0l0 1.09375zm8.8125 -11.046875l0 7.703125q0 0.828125 -0.234375 1.453125q-0.234375 0.640625 -0.671875 1.078125q-0.4375 0.4375 -1.078125 0.65625q-0.625 0.234375 -1.421875 0.234375q-0.578125 0 -1.140625 -0.109375q-0.546875 -0.09375 -0.984375 -0.28125l0 -1.296875q0.234375 0.125 0.515625 0.21875q0.28125 0.109375 0.5625 0.171875q0.296875 0.078125 0.59375 0.109375q0.296875 0.03125 0.578125 0.03125q0.890625 0 1.390625 -0.5625q0.515625 -0.5625 0.515625 -1.65625l0 -6.625l-3.84375 0l0 -1.125l5.21875 0zm-0.8125 -3.296875q0.21875 0 0.40625 0.09375q0.203125 0.078125 0.34375 0.234375q0.15625 0.140625 0.234375 0.34375q0.078125 0.1875 0.078125 0.40625q0 0.21875 -0.078125 0.421875q-0.078125 0.1875 -0.234375 0.34375q-0.140625 0.140625 -0.34375 0.21875q-0.1875 0.078125 -0.40625 0.078125q-0.234375 0 -0.4375 -0.078125q-0.1875 -0.078125 -0.328125 -0.21875q-0.140625 -0.15625 -0.234375 -0.34375q-0.078125 -0.203125 -0.078125 -0.421875q0 -0.21875 0.078125 -0.40625q0.09375 -0.203125 0.234375 -0.34375q0.140625 -0.15625 0.328125 -0.234375q0.203125 -0.09375 0.4375 -0.09375zm18.578125 7.515625l-4.671875 0l0 -1.28125l4.671875 0l0 1.28125zm12.109375 -4.21875l1.21875 0l0.046875 1.265625q0.34375 -0.40625 0.65625 -0.671875q0.328125 -0.28125 0.640625 -0.4375q0.3125 -0.171875 0.625 -0.234375q0.328125 -0.0625 0.671875 -0.0625q1.203125 0 1.828125 0.71875q0.625 0.703125 0.625 2.140625l0 5.125l-1.359375 0l0 -5.015625q0 -0.921875 -0.34375 -1.359375q-0.34375 -0.4375 -1.03125 -0.4375q-0.25 0 -0.484375 0.078125q-0.234375 0.0625 -0.5 0.25q-0.25 0.1875 -0.5625 0.5q-0.296875 0.3125 -0.671875 0.78125l0 5.203125l-1.359375 0l0 -7.84375zm15.109375 7.84375l-1.21875 0l-0.046875 -1.265625q-0.359375 0.40625 -0.671875 0.671875q-0.3125 0.265625 -0.625 0.4375q-0.3125 0.171875 -0.640625 0.234375q-0.3125 0.0625 -0.65625 0.0625q-1.21875 0 -1.84375 -0.703125q-0.609375 -0.71875 -0.609375 -2.15625l0 -5.125l1.359375 0l0 5.015625q0 1.796875 1.359375 1.796875q0.25 0 0.484375 -0.0625q0.25 -0.078125 0.5 -0.265625q0.265625 -0.1875 0.5625 -0.5q0.3125 -0.3125 0.6875 -0.78125l0 -5.203125l1.359375 0l0 7.84375zm8.078125 0l0 -5.640625q0 -0.359375 -0.03125 -0.59375q-0.015625 -0.234375 -0.078125 -0.375q-0.0625 -0.140625 -0.15625 -0.1875q-0.078125 -0.0625 -0.21875 -0.0625q-0.15625 0 -0.296875 0.09375q-0.125 0.09375 -0.28125 0.3125q-0.140625 0.203125 -0.328125 0.5625q-0.1875 0.34375 -0.4375 0.84375l0 5.046875l-1.234375 0l0 -5.484375q0 -0.4375 -0.03125 -0.703125q-0.03125 -0.265625 -0.09375 -0.40625q-0.046875 -0.15625 -0.140625 -0.203125q-0.09375 -0.0625 -0.234375 -0.0625q-0.140625 0 -0.265625 0.078125q-0.125 0.078125 -0.28125 0.28125q-0.140625 0.203125 -0.328125 0.5625q-0.1875 0.34375 -0.453125 0.890625l0 5.046875l-1.25 0l0 -7.84375l1.046875 0l0.0625 1.484375q0.203125 -0.4375 0.390625 -0.75q0.1875 -0.3125 0.390625 -0.5q0.203125 -0.203125 0.4375 -0.28125q0.234375 -0.09375 0.515625 -0.09375q0.625 0 0.953125 0.421875q0.328125 0.40625 0.328125 1.265625q0.1875 -0.40625 0.359375 -0.71875q0.1875 -0.3125 0.390625 -0.53125q0.21875 -0.21875 0.46875 -0.328125q0.25 -0.109375 0.578125 -0.109375q1.46875 0 1.46875 2.265625l0 5.71875l-1.25 0zm10.75 3.203125l-8.796875 0l0 -1.125l8.796875 0l0 1.125zm3.921875 -9.921875l-2.3125 0l0 -1.125l3.6875 0l0 6.703125l2.34375 0l0 1.140625l-6.296875 0l0 -1.140625l2.578125 0l0 -5.578125zm0.484375 -4.421875q0.21875 0 0.40625 0.09375q0.203125 0.078125 0.34375 0.234375q0.15625 0.140625 0.234375 0.328125q0.078125 0.1875 0.078125 0.421875q0 0.21875 -0.078125 0.421875q-0.078125 0.1875 -0.234375 0.34375q-0.140625 0.140625 -0.34375 0.21875q-0.1875 0.078125 -0.40625 0.078125q-0.234375 0 -0.4375 -0.078125q-0.1875 -0.078125 -0.328125 -0.21875q-0.140625 -0.15625 -0.234375 -0.34375q-0.078125 -0.203125 -0.078125 -0.421875q0 -0.234375 0.078125 -0.421875q0.09375 -0.1875 0.234375 -0.328125q0.140625 -0.15625 0.328125 -0.234375q0.203125 -0.09375 0.4375 -0.09375zm10.5 14.34375l-3.859375 0l0 -1.09375l2.546875 0l0 -12.328125l-2.546875 0l0 -1.09375l3.859375 0l0 14.515625z" fill-rule="nonzero"></path><path fill="#000000" d="m541.69055 362.2052l-3.0625 0l0 3.1875l-1.34375 0l0 -3.1875l-3.078125 0l0 -1.1875l3.078125 0l0 -3.15625l1.34375 0l0 3.15625l3.0625 0l0 1.1875zm17.96875 -4.171875l-1.140625 7.84375l-1.640625 0l-1.140625 -3.28125l-0.21875 -0.796875l-0.265625 0.84375l-1.078125 3.234375l-1.609375 0l-1.125 -7.84375l1.328125 0l0.65625 5.328125l0.140625 1.1875l0.328125 -1.046875l1.140625 -3.515625l0.984375 0l1.21875 3.46875l0.359375 1.046875l0.109375 -1.109375l0.609375 -5.359375l1.34375 0zm6.828125 11.046875l-3.84375 0l0 -14.515625l3.84375 0l0 1.09375l-2.546875 0l0 12.328125l2.546875 0l0 1.09375zm14.96875 -9.921875l-2.3125 0l0 -1.125l3.6875 0l0 6.703125l2.34375 0l0 1.140625l-6.296875 0l0 -1.140625l2.578125 0l0 -5.578125zm0.484375 -4.421875q0.21875 0 0.40625 0.09375q0.203125 0.078125 0.34375 0.234375q0.15625 0.140625 0.234375 0.328125q0.078125 0.1875 0.078125 0.421875q0 0.21875 -0.078125 0.421875q-0.078125 0.1875 -0.234375 0.34375q-0.140625 0.140625 -0.34375 0.21875q-0.1875 0.078125 -0.40625 0.078125q-0.234375 0 -0.4375 -0.078125q-0.1875 -0.078125 -0.328125 -0.21875q-0.140625 -0.15625 -0.234375 -0.34375q-0.078125 -0.203125 -0.078125 -0.421875q0 -0.234375 0.078125 -0.421875q0.09375 -0.1875 0.234375 -0.328125q0.140625 -0.15625 0.328125 -0.234375q0.203125 -0.09375 0.4375 -0.09375zm19.921875 7.515625l-4.671875 0l0 -1.28125l4.671875 0l0 1.28125zm18.65625 3.625l-6.421875 0l0 -1.265625l2.625 0l0 -7.453125l-2.4375 1.328125l-0.5 -1.15625l3.25 -1.71875l1.203125 0l0 9.0l2.28125 0l0 1.265625zm15.90625 3.203125l-3.859375 0l0 -1.09375l2.546875 0l0 -12.328125l-2.546875 0l0 -1.09375l3.859375 0l0 14.515625zm9.234375 0l-3.84375 0l0 -14.515625l3.84375 0l0 1.09375l-2.546875 0l0 12.328125l2.546875 0l0 1.09375zm8.8125 -11.046875l0 7.703125q0 0.828125 -0.234375 1.453125q-0.234375 0.640625 -0.671875 1.078125q-0.4375 0.4375 -1.078125 0.65625q-0.625 0.234375 -1.421875 0.234375q-0.578125 0 -1.140625 -0.109375q-0.546875 -0.09375 -0.984375 -0.28125l0 -1.296875q0.234375 0.125 0.515625 0.21875q0.28125 0.109375 0.5625 0.171875q0.296875 0.078125 0.59375 0.109375q0.296875 0.03125 0.578125 0.03125q0.890625 0 1.390625 -0.5625q0.515625 -0.5625 0.515625 -1.65625l0 -6.625l-3.84375 0l0 -1.125l5.21875 0zm-0.8125 -3.296875q0.21875 0 0.40625 0.09375q0.203125 0.078125 0.34375 0.234375q0.15625 0.140625 0.234375 0.34375q0.078125 0.1875 0.078125 0.40625q0 0.21875 -0.078125 0.421875q-0.078125 0.1875 -0.234375 0.34375q-0.140625 0.140625 -0.34375 0.21875q-0.1875 0.078125 -0.40625 0.078125q-0.234375 0 -0.4375 -0.078125q-0.1875 -0.078125 -0.328125 -0.21875q-0.140625 -0.15625 -0.234375 -0.34375q-0.078125 -0.203125 -0.078125 -0.421875q0 -0.21875 0.078125 -0.40625q0.09375 -0.203125 0.234375 -0.34375q0.140625 -0.15625 0.328125 -0.234375q0.203125 -0.09375 0.4375 -0.09375zm19.984375 7.46875l-3.0625 0l0 3.1875l-1.34375 0l0 -3.1875l-3.078125 0l0 -1.1875l3.078125 0l0 -3.15625l1.34375 0l0 3.15625l3.0625 0l0 1.1875zm10.703125 -4.171875l1.21875 0l0.046875 1.265625q0.34375 -0.40625 0.65625 -0.671875q0.328125 -0.28125 0.640625 -0.4375q0.3125 -0.171875 0.625 -0.234375q0.328125 -0.0625 0.671875 -0.0625q1.203125 0 1.828125 0.71875q0.625 0.703125 0.625 2.140625l0 5.125l-1.359375 0l0 -5.015625q0 -0.921875 -0.34375 -1.359375q-0.34375 -0.4375 -1.03125 -0.4375q-0.25 0 -0.484375 0.078125q-0.234375 0.0625 -0.5 0.25q-0.25 0.1875 -0.5625 0.5q-0.296875 0.3125 -0.671875 0.78125l0 5.203125l-1.359375 0l0 -7.84375zm15.109375 7.84375l-1.21875 0l-0.046875 -1.265625q-0.359375 0.40625 -0.671875 0.671875q-0.3125 0.265625 -0.625 0.4375q-0.3125 0.171875 -0.640625 0.234375q-0.3125 0.0625 -0.65625 0.0625q-1.21875 0 -1.84375 -0.703125q-0.609375 -0.71875 -0.609375 -2.15625l0 -5.125l1.359375 0l0 5.015625q0 1.796875 1.359375 1.796875q0.25 0 0.484375 -0.0625q0.25 -0.078125 0.5 -0.265625q0.265625 -0.1875 0.5625 -0.5q0.3125 -0.3125 0.6875 -0.78125l0 -5.203125l1.359375 0l0 7.84375zm8.078125 0l0 -5.640625q0 -0.359375 -0.03125 -0.59375q-0.015625 -0.234375 -0.078125 -0.375q-0.0625 -0.140625 -0.15625 -0.1875q-0.078125 -0.0625 -0.21875 -0.0625q-0.15625 0 -0.296875 0.09375q-0.125 0.09375 -0.28125 0.3125q-0.140625 0.203125 -0.328125 0.5625q-0.1875 0.34375 -0.4375 0.84375l0 5.046875l-1.234375 0l0 -5.484375q0 -0.4375 -0.03125 -0.703125q-0.03125 -0.265625 -0.09375 -0.40625q-0.046875 -0.15625 -0.140625 -0.203125q-0.09375 -0.0625 -0.234375 -0.0625q-0.140625 0 -0.265625 0.078125q-0.125 0.078125 -0.28125 0.28125q-0.140625 0.203125 -0.328125 0.5625q-0.1875 0.34375 -0.453125 0.890625l0 5.046875l-1.25 0l0 -7.84375l1.046875 0l0.0625 1.484375q0.203125 -0.4375 0.390625 -0.75q0.1875 -0.3125 0.390625 -0.5q0.203125 -0.203125 0.4375 -0.28125q0.234375 -0.09375 0.515625 -0.09375q0.625 0 0.953125 0.421875q0.328125 0.40625 0.328125 1.265625q0.1875 -0.40625 0.359375 -0.71875q0.1875 -0.3125 0.390625 -0.53125q0.21875 -0.21875 0.46875 -0.328125q0.25 -0.109375 0.578125 -0.109375q1.46875 0 1.46875 2.265625l0 5.71875l-1.25 0zm10.75 3.203125l-8.796875 0l0 -1.125l8.796875 0l0 1.125zm3.921875 -9.921875l-2.3125 0l0 -1.125l3.6875 0l0 6.703125l2.34375 0l0 1.140625l-6.296875 0l0 -1.140625l2.578125 0l0 -5.578125zm0.484375 -4.421875q0.21875 0 0.40625 0.09375q0.203125 0.078125 0.34375 0.234375q0.15625 0.140625 0.234375 0.328125q0.078125 0.1875 0.078125 0.421875q0 0.21875 -0.078125 0.421875q-0.078125 0.1875 -0.234375 0.34375q-0.140625 0.140625 -0.34375 0.21875q-0.1875 0.078125 -0.40625 0.078125q-0.234375 0 -0.4375 -0.078125q-0.1875 -0.078125 -0.328125 -0.21875q-0.140625 -0.15625 -0.234375 -0.34375q-0.078125 -0.203125 -0.078125 -0.421875q0 -0.234375 0.078125 -0.421875q0.09375 -0.1875 0.234375 -0.328125q0.140625 -0.15625 0.328125 -0.234375q0.203125 -0.09375 0.4375 -0.09375zm10.5 14.34375l-3.859375 0l0 -1.09375l2.546875 0l0 -12.328125l-2.546875 0l0 -1.09375l3.859375 0l0 14.515625z" fill-rule="nonzero"></path></g></svg>

