<?xml version="1.0" standalone="yes"?>

<svg version="1.1" viewBox="0.0 0.0 788.9160104986877 414.5459317585302" fill="none" stroke="none" stroke-linecap="square" stroke-miterlimit="10" xmlns="http://www.w3.org/2000/svg" xmlns:xlink="http://www.w3.org/1999/xlink"><clipPath id="p.0"><path d="m0 0l788.916 0l0 414.54593l-788.916 0l0 -414.54593z" clip-rule="nonzero"></path></clipPath><g clip-path="url(#p.0)"><path fill="#000000" fill-opacity="0.0" d="m0 0l788.916 0l0 414.54593l-788.916 0z" fill-rule="evenodd"></path><path stroke="#9e9e9e" stroke-width="1.0" stroke-linecap="butt" d="m31.572178 71.26824l0 306.57217" fill-rule="nonzero"></path><path stroke="#9e9e9e" stroke-width="1.0" stroke-linecap="butt" d="m74.04462 71.26824l0 306.57217" fill-rule="nonzero"></path><path stroke="#9e9e9e" stroke-width="1.0" stroke-linecap="butt" d="m139.76115 71.26824l0 306.57217" fill-rule="nonzero"></path><path stroke="#9e9e9e" stroke-width="1.0" stroke-linecap="butt" d="m193.86089 109.465096l0 268.37534" fill-rule="nonzero"></path><path stroke="#9e9e9e" stroke-width="1.0" stroke-linecap="butt" d="m247.95801 109.465096l0 268.37534" fill-rule="nonzero"></path><path stroke="#9e9e9e" stroke-width="1.0" stroke-linecap="butt" d="m302.0551 109.465096l0 268.37534" fill-rule="nonzero"></path><path stroke="#9e9e9e" stroke-width="1.0" stroke-linecap="butt" d="m356.15222 109.465096l0 268.37534" fill-rule="nonzero"></path><path stroke="#9e9e9e" stroke-width="1.0" stroke-linecap="butt" d="m410.24933 109.465096l0 268.37534" fill-rule="nonzero"></path><path stroke="#9e9e9e" stroke-width="1.0" stroke-linecap="butt" d="m464.34647 109.465096l0 268.37534" fill-rule="nonzero"></path><path stroke="#9e9e9e" stroke-width="1.0" stroke-linecap="butt" d="m518.44354 109.465096l0 268.37534" fill-rule="nonzero"></path><path stroke="#9e9e9e" stroke-width="1.0" stroke-linecap="butt" d="m572.5407 109.465096l0 268.37534" fill-rule="nonzero"></path><path stroke="#9e9e9e" stroke-width="1.0" stroke-linecap="butt" d="m626.6378 109.465096l0 268.37534" fill-rule="nonzero"></path><path stroke="#9e9e9e" stroke-width="1.0" stroke-linecap="butt" d="m680.7349 109.465096l0 268.37534" fill-rule="nonzero"></path><path stroke="#9e9e9e" stroke-width="1.0" stroke-linecap="butt" d="m734.83203 71.26824l0 306.57217" fill-rule="nonzero"></path><path stroke="#9e9e9e" stroke-width="1.0" stroke-linecap="butt" d="m31.07349 71.76693l704.2572 0" fill-rule="nonzero"></path><path stroke="#9e9e9e" stroke-width="1.0" stroke-linecap="butt" d="m139.26247 109.96378l596.06824 0" fill-rule="nonzero"></path><path stroke="#9e9e9e" stroke-width="1.0" stroke-linecap="butt" d="m31.07349 148.16063l704.2572 0" fill-rule="nonzero"></path><path stroke="#9e9e9e" stroke-width="1.0" stroke-linecap="butt" d="m31.07349 186.35748l704.2572 0" fill-rule="nonzero"></path><path stroke="#9e9e9e" stroke-width="1.0" stroke-linecap="butt" d="m31.07349 224.55434l704.2572 0" fill-rule="nonzero"></path><path stroke="#9e9e9e" stroke-width="1.0" stroke-linecap="butt" d="m31.07349 262.7512l704.2572 0" fill-rule="nonzero"></path><path stroke="#9e9e9e" stroke-width="1.0" stroke-linecap="butt" d="m31.07349 300.94803l704.2572 0" fill-rule="nonzero"></path><path stroke="#9e9e9e" stroke-width="1.0" stroke-linecap="butt" d="m31.07349 339.14487l704.2572 0" fill-rule="nonzero"></path><path stroke="#9e9e9e" stroke-width="1.0" stroke-linecap="butt" d="m31.07349 377.34174l704.2572 0" fill-rule="nonzero"></path><path fill="#000000" d="m53.290928 108.40818l-2.3125 0l0 -1.125l3.6875 0l0 6.703125l2.34375 0l0 1.140625l-6.296875 0l0 -1.140625l2.578125 0l0 -5.578125zm0.484375 -4.421875q0.21875 0 0.40625 0.09375q0.203125 0.078125 0.34375 0.234375q0.15625 0.140625 0.234375 0.328125q0.078125 0.1875 0.078125 0.421875q0 0.21875 -0.078125 0.421875q-0.078125 0.1875 -0.234375 0.34375q-0.140625 0.140625 -0.34375 0.21875q-0.1875 0.078125 -0.40625 0.078125q-0.234375 0 -0.4375 -0.078125q-0.1875 -0.078125 -0.328125 -0.21875q-0.140625 -0.15625 -0.234375 -0.34375q-0.078125 -0.203125 -0.078125 -0.421875q0 -0.234375 0.078125 -0.421875q0.09375 -0.1875 0.234375 -0.328125q0.140625 -0.15625 0.328125 -0.234375q0.203125 -0.09375 0.4375 -0.09375z" fill-rule="nonzero"></path><path fill="#000000" d="m84.29462 107.28318l1.21875 0l0.046875 1.265625q0.34375 -0.40625 0.65625 -0.671875q0.328125 -0.28125 0.640625 -0.4375q0.3125 -0.171875 0.625 -0.234375q0.328125 -0.0625 0.671875 -0.0625q1.203125 0 1.828125 0.71875q0.625 0.703125 0.625 2.140625l0 5.125l-1.359375 0l0 -5.015625q0 -0.921875 -0.34375 -1.359375q-0.34375 -0.4375 -1.03125 -0.4375q-0.25 0 -0.484375 0.078125q-0.234375 0.0625 -0.5 0.25q-0.25 0.1875 -0.5625 0.5q-0.296875 0.3125 -0.671875 0.78125l0 5.203125l-1.359375 0l0 -7.84375zm15.109375 7.84375l-1.21875 0l-0.046875 -1.265625q-0.359375 0.40625 -0.671875 0.671875q-0.3125 0.265625 -0.625 0.4375q-0.3125 0.171875 -0.640625 0.234375q-0.3125 0.0625 -0.65625 0.0625q-1.21875 0 -1.84375 -0.703125q-0.609375 -0.71875 -0.609375 -2.15625l0 -5.125l1.359375 0l0 5.015625q0 1.796875 1.359375 1.796875q0.25 0 0.484375 -0.0625q0.25 -0.078125 0.5 -0.265625q0.265625 -0.1875 0.5625 -0.5q0.3125 -0.3125 0.6875 -0.78125l0 -5.203125l1.359375 0l0 7.84375zm8.078125 0l0 -5.640625q0 -0.359375 -0.03125 -0.59375q-0.015625 -0.234375 -0.078125 -0.375q-0.0625 -0.140625 -0.15625 -0.1875q-0.078125 -0.0625 -0.21875 -0.0625q-0.15625 0 -0.296875 0.09375q-0.125 0.09375 -0.28125 0.3125q-0.140625 0.203125 -0.328125 0.5625q-0.1875 0.34375 -0.4375 0.84375l0 5.046875l-1.234375 0l0 -5.484375q0 -0.4375 -0.03125 -0.703125q-0.03125 -0.265625 -0.09375 -0.40625q-0.046875 -0.15625 -0.140625 -0.203125q-0.09375 -0.0625 -0.234375 -0.0625q-0.140625 0 -0.265625 0.078125q-0.125 0.078125 -0.28125 0.28125q-0.140625 0.203125 -0.328125 0.5625q-0.1875 0.34375 -0.453125 0.890625l0 5.046875l-1.25 0l0 -7.84375l1.046875 0l0.0625 1.484375q0.203125 -0.4375 0.390625 -0.75q0.1875 -0.3125 0.390625 -0.5q0.203125 -0.203125 0.4375 -0.28125q0.234375 -0.09375 0.515625 -0.09375q0.625 0 0.953125 0.421875q0.328125 0.40625 0.328125 1.265625q0.1875 -0.40625 0.359375 -0.71875q0.1875 -0.3125 0.390625 -0.53125q0.21875 -0.21875 0.46875 -0.328125q0.25 -0.109375 0.578125 -0.109375q1.46875 0 1.46875 2.265625l0 5.71875l-1.25 0zm10.75 3.203125l-8.796875 0l0 -1.125l8.796875 0l0 1.125zm3.921875 -9.921875l-2.3125 0l0 -1.125l3.6875 0l0 6.703125l2.34375 0l0 1.140625l-6.296875 0l0 -1.140625l2.578125 0l0 -5.578125zm0.484375 -4.421875q0.21875 0 0.40625 0.09375q0.203125 0.078125 0.34375 0.234375q0.15625 0.140625 0.234375 0.328125q0.078125 0.1875 0.078125 0.421875q0 0.21875 -0.078125 0.421875q-0.078125 0.1875 -0.234375 0.34375q-0.140625 0.140625 -0.34375 0.21875q-0.1875 0.078125 -0.40625 0.078125q-0.234375 0 -0.4375 -0.078125q-0.1875 -0.078125 -0.328125 -0.21875q-0.140625 -0.15625 -0.234375 -0.34375q-0.078125 -0.203125 -0.078125 -0.421875q0 -0.234375 0.078125 -0.421875q0.09375 -0.1875 0.234375 -0.328125q0.140625 -0.15625 0.328125 -0.234375q0.203125 -0.09375 0.4375 -0.09375z" fill-rule="nonzero"></path><path fill="#000000" d="m412.38617 88.28318l-1.140625 7.84375l-1.640625 0l-1.140625 -3.28125l-0.21875 -0.796875l-0.265625 0.84375l-1.078125 3.234375l-1.609375 0l-1.125 -7.84375l1.328125 0l0.65625 5.328125l0.140625 1.1875l0.328125 -1.046875l1.140625 -3.515625l0.984375 0l1.21875 3.46875l0.359375 1.046875l0.109375 -1.109375l0.609375 -5.359375l1.34375 0zm6.828125 11.046875l-3.84375 0l0 -14.515625l3.84375 0l0 1.09375l-2.546875 0l0 12.328125l2.546875 0l0 1.09375zm6.171875 -9.921875l-2.3125 0l0 -1.125l3.6875 0l0 6.703125l2.34375 0l0 1.140625l-6.296875 0l0 -1.140625l2.578125 0l0 -5.578125zm0.484375 -4.421875q0.21875 0 0.40625 0.09375q0.203125 0.078125 0.34375 0.234375q0.15625 0.140625 0.234375 0.328125q0.078125 0.1875 0.078125 0.421875q0 0.21875 -0.078125 0.421875q-0.078125 0.1875 -0.234375 0.34375q-0.140625 0.140625 -0.34375 0.21875q-0.1875 0.078125 -0.40625 0.078125q-0.234375 0 -0.4375 -0.078125q-0.1875 -0.078125 -0.328125 -0.21875q-0.140625 -0.15625 -0.234375 -0.34375q-0.078125 -0.203125 -0.078125 -0.421875q0 -0.234375 0.078125 -0.421875q0.09375 -0.1875 0.234375 -0.328125q0.140625 -0.15625 0.328125 -0.234375q0.203125 -0.09375 0.4375 -0.09375zm10.5 14.34375l-3.859375 0l0 -1.09375l2.546875 0l0 -12.328125l-2.546875 0l0 -1.09375l3.859375 0l0 14.515625zm9.234375 0l-3.84375 0l0 -14.515625l3.84375 0l0 1.09375l-2.546875 0l0 12.328125l2.546875 0l0 1.09375zm8.8125 -11.046875l0 7.703125q0 0.828125 -0.234375 1.453125q-0.234375 0.640625 -0.671875 1.078125q-0.4375 0.4375 -1.078125 0.65625q-0.625 0.234375 -1.421875 0.234375q-0.578125 0 -1.140625 -0.109375q-0.546875 -0.09375 -0.984375 -0.28125l0 -1.296875q0.234375 0.125 0.515625 0.21875q0.28125 0.109375 0.5625 0.171875q0.296875 0.078125 0.59375 0.109375q0.296875 0.03125 0.578125 0.03125q0.890625 0 1.390625 -0.5625q0.515625 -0.5625 0.515625 -1.65625l0 -6.625l-3.84375 0l0 -1.125l5.21875 0zm-0.8125 -3.296875q0.21875 0 0.40625 0.09375q0.203125 0.078125 0.34375 0.234375q0.15625 0.140625 0.234375 0.34375q0.078125 0.1875 0.078125 0.40625q0 0.21875 -0.078125 0.421875q-0.078125 0.1875 -0.234375 0.34375q-0.140625 0.140625 -0.34375 0.21875q-0.1875 0.078125 -0.40625 0.078125q-0.234375 0 -0.4375 -0.078125q-0.1875 -0.078125 -0.328125 -0.21875q-0.140625 -0.15625 -0.234375 -0.34375q-0.078125 -0.203125 -0.078125 -0.421875q0 -0.21875 0.078125 -0.40625q0.09375 -0.203125 0.234375 -0.34375q0.140625 -0.15625 0.328125 -0.234375q0.203125 -0.09375 0.4375 -0.09375zm9.15625 14.34375l-3.859375 0l0 -1.09375l2.546875 0l0 -12.328125l-2.546875 0l0 -1.09375l3.859375 0l0 14.515625z" fill-rule="nonzero"></path><path fill="#0000ff" d="m164.2924 130.69878l-4.671875 0l0 -1.28125l4.671875 0l0 1.28125zm9.6875 0.359375q0 0.75 -0.328125 1.375q-0.328125 0.625 -0.90625 1.078125q-0.578125 0.453125 -1.359375 0.703125q-0.78125 0.25 -1.6875 0.25q-0.21875 0 -0.484375 -0.015625q-0.265625 0 -0.53125 -0.03125q-0.25 -0.015625 -0.5 -0.046875q-0.234375 -0.015625 -0.4375 -0.046875l0 -1.234375q0.421875 0.09375 0.96875 0.140625q0.546875 0.046875 1.09375 0.046875q0.625 0 1.125 -0.140625q0.5 -0.15625 0.84375 -0.421875q0.359375 -0.28125 0.546875 -0.671875q0.1875 -0.40625 0.1875 -0.890625q0 -0.953125 -0.6875 -1.390625q-0.671875 -0.4375 -1.953125 -0.4375l-1.9375 0l0 -5.2187424l5.5 0l0 1.1875l-4.21875 0l0 2.8749924l0.890625 0q0.734375 0 1.421875 0.140625q0.703125 0.125 1.234375 0.453125q0.546875 0.328125 0.875 0.890625q0.34375 0.5625 0.34375 1.40625z" fill-rule="nonzero"></path><path fill="#0000ff" d="m218.39214 130.69878l-4.671875 0l0 -1.28125l4.671875 0l0 1.28125zm10.453125 1.359375l-1.75 0l0 2.265625l-1.390625 0l0 -2.265625l-4.90625 0l0 -1.1875l4.34375 -6.7656174l1.953125 0l0 6.7656174l1.75 0l0 1.1875zm-3.140625 -6.6406174l-3.546875 5.4531174l3.546875 0l0 -5.4531174z" fill-rule="nonzero"></path><path fill="#0000ff" d="m272.48926 130.69878l-4.671875 0l0 -1.28125l4.671875 0l0 1.28125zm9.75 0.515625q0 0.671875 -0.28125 1.265625q-0.265625 0.59375 -0.8125 1.03125q-0.546875 0.4375 -1.375 0.703125q-0.828125 0.25 -1.9375 0.25q-0.609375 0 -1.09375 -0.046875q-0.484375 -0.03125 -0.90625 -0.09375l0 -1.21875q0.484375 0.078125 1.015625 0.125q0.546875 0.046875 1.109375 0.046875q0.765625 0 1.3125 -0.125q0.546875 -0.140625 0.890625 -0.390625q0.34375 -0.265625 0.5 -0.625q0.15625 -0.375 0.15625 -0.84375q0 -0.421875 -0.1875 -0.734375q-0.1875 -0.3125 -0.53125 -0.515625q-0.34375 -0.21875 -0.8125 -0.3125q-0.46875 -0.109375 -1.03125 -0.109375l-1.171875 0l0 -1.125l1.1875 0q0.453125 0 0.828125 -0.109375q0.390625 -0.125 0.65625 -0.34375q0.265625 -0.23436737 0.40625 -0.5624924q0.15625 -0.34375 0.15625 -0.765625q0 -0.8125 -0.5 -1.1875q-0.5 -0.375 -1.46875 -0.375q-0.515625 0 -1.0625 0.109375q-0.546875 0.09375 -1.171875 0.296875l0 -1.1875q0.265625 -0.09375 0.5625 -0.171875q0.296875 -0.078125 0.59375 -0.125q0.3125 -0.046875 0.609375 -0.078125q0.296875 -0.03125 0.5625 -0.03125q0.8125 0 1.421875 0.1875q0.625 0.171875 1.03125 0.5q0.421875 0.328125 0.625 0.796875q0.21875 0.46875 0.21875 1.046875q0 0.875 -0.453125 1.46875q-0.4375 0.5937424 -1.21875 0.9531174q0.390625 0.0625 0.78125 0.25q0.390625 0.1875 0.6875 0.484375q0.3125 0.28125 0.5 0.6875q0.203125 0.390625 0.203125 0.875z" fill-rule="nonzero"></path><path fill="#0000ff" d="m326.58636 130.69878l-4.671875 0l0 -1.28125l4.671875 0l0 1.28125zm9.9375 3.625l-6.71875 0l0 -1.21875l2.640625 -2.625q0.640625 -0.640625 1.046875 -1.109375q0.40625 -0.46875 0.625 -0.859375q0.234375 -0.390625 0.3125 -0.7343674q0.078125 -0.34375 0.078125 -0.734375q0 -0.375 -0.109375 -0.71875q-0.09375 -0.34375 -0.3125 -0.59375q-0.203125 -0.265625 -0.546875 -0.40625q-0.328125 -0.15625 -0.796875 -0.15625q-0.640625 0 -1.171875 0.296875q-0.53125 0.28125 -0.984375 0.75l-0.75 -0.90625q0.578125 -0.609375 1.328125 -0.96875q0.765625 -0.375 1.765625 -0.375q0.671875 0 1.234375 0.203125q0.5625 0.203125 0.96875 0.59375q0.40625 0.375 0.625 0.9375q0.21875 0.546875 0.21875 1.25q0 0.578125 -0.15625 1.0781174q-0.15625 0.5 -0.46875 1.0q-0.3125 0.5 -0.796875 1.03125q-0.484375 0.53125 -1.140625 1.15625l-1.84375 1.8125l4.953125 0l0 1.296875z" fill-rule="nonzero"></path><path fill="#0000ff" d="m380.68347 130.69878l-4.671875 0l0 -1.28125l4.671875 0l0 1.28125zm9.859375 3.625l-6.421875 0l0 -1.265625l2.625 0l0 -7.4531174l-2.4375 1.328125l-0.5 -1.15625l3.25 -1.71875l1.203125 0l0 8.999992l2.28125 0l0 1.265625z" fill-rule="nonzero"></path><path fill="#0000ff" d="m444.95245 129.2144q0 1.171875 -0.234375 2.140625q-0.234375 0.96875 -0.71875 1.65625q-0.46875 0.6875 -1.171875 1.078125q-0.703125 0.375 -1.65625 0.375q-0.828125 0 -1.5 -0.3125q-0.671875 -0.3125 -1.15625 -0.953125q-0.46875 -0.640625 -0.734375 -1.625q-0.25 -1.0 -0.25 -2.359375q0 -1.171875 0.234375 -2.1406174q0.25 -0.96875 0.71875 -1.65625q0.46875 -0.6875 1.171875 -1.0625q0.71875 -0.390625 1.671875 -0.390625q0.8125 0 1.484375 0.3125q0.671875 0.3125 1.140625 0.953125q0.484375 0.640625 0.734375 1.640625q0.265625 0.984375 0.265625 2.3437424zm-1.375 0.046875q0 -0.265625 -0.015625 -0.515625q-0.015625 -0.265625 -0.046875 -0.515625l-4.3125 3.203125q0.109375 0.40625 0.28125 0.75q0.1875 0.34375 0.4375 0.59375q0.265625 0.25 0.578125 0.390625q0.328125 0.125 0.75 0.125q0.53125 0 0.953125 -0.25q0.4375 -0.265625 0.734375 -0.765625q0.3125 -0.515625 0.46875 -1.265625q0.171875 -0.75 0.171875 -1.75zm-4.671875 -0.09375q0 0.25 0 0.5q0.015625 0.234375 0.03125 0.453125l4.328125 -3.1874924q-0.125 -0.40625 -0.3125 -0.734375q-0.171875 -0.328125 -0.421875 -0.5625q-0.25 -0.234375 -0.578125 -0.359375q-0.3125 -0.140625 -0.703125 -0.140625q-0.53125 0 -0.96875 0.265625q-0.4375 0.25 -0.75 0.765625q-0.296875 0.5 -0.46875 1.265625q-0.15625 0.7499924 -0.15625 1.7343674z" fill-rule="nonzero"></path><path fill="#0000ff" d="m489.94022 134.32378l-6.421875 0l0 -1.265625l2.625 0l0 -7.4531174l-2.4375 1.328125l-0.5 -1.15625l3.25 -1.71875l1.203125 0l0 8.999992l2.28125 0l0 1.265625z" fill-rule="nonzero"></path><path fill="#0000ff" d="m544.1154 134.32378l-6.71875 0l0 -1.21875l2.640625 -2.625q0.640625 -0.640625 1.046875 -1.109375q0.40625 -0.46875 0.625 -0.859375q0.234375 -0.390625 0.3125 -0.7343674q0.078125 -0.34375 0.078125 -0.734375q0 -0.375 -0.109375 -0.71875q-0.09375 -0.34375 -0.3125 -0.59375q-0.203125 -0.265625 -0.546875 -0.40625q-0.328125 -0.15625 -0.796875 -0.15625q-0.640625 0 -1.171875 0.296875q-0.53125 0.28125 -0.984375 0.75l-0.75 -0.90625q0.578125 -0.609375 1.328125 -0.96875q0.765625 -0.375 1.765625 -0.375q0.671875 0 1.234375 0.203125q0.5625 0.203125 0.96875 0.59375q0.40625 0.375 0.625 0.9375q0.21875 0.546875 0.21875 1.25q0 0.578125 -0.15625 1.0781174q-0.15625 0.5 -0.46875 1.0q-0.3125 0.5 -0.796875 1.03125q-0.484375 0.53125 -1.140625 1.15625l-1.84375 1.8125l4.953125 0l0 1.296875z" fill-rule="nonzero"></path><path fill="#0000ff" d="m598.0251 131.2144q0 0.671875 -0.28125 1.265625q-0.265625 0.59375 -0.8125 1.03125q-0.546875 0.4375 -1.375 0.703125q-0.828125 0.25 -1.9375 0.25q-0.609375 0 -1.09375 -0.046875q-0.484375 -0.03125 -0.90625 -0.09375l0 -1.21875q0.484375 0.078125 1.015625 0.125q0.546875 0.046875 1.109375 0.046875q0.765625 0 1.3125 -0.125q0.546875 -0.140625 0.890625 -0.390625q0.34375 -0.265625 0.5 -0.625q0.15625 -0.375 0.15625 -0.84375q0 -0.421875 -0.1875 -0.734375q-0.1875 -0.3125 -0.53125 -0.515625q-0.34375 -0.21875 -0.8125 -0.3125q-0.46875 -0.109375 -1.03125 -0.109375l-1.171875 0l0 -1.125l1.1875 0q0.453125 0 0.828125 -0.109375q0.390625 -0.125 0.65625 -0.34375q0.265625 -0.23436737 0.40625 -0.5624924q0.15625 -0.34375 0.15625 -0.765625q0 -0.8125 -0.5 -1.1875q-0.5 -0.375 -1.46875 -0.375q-0.515625 0 -1.0625 0.109375q-0.546875 0.09375 -1.171875 0.296875l0 -1.1875q0.265625 -0.09375 0.5625 -0.171875q0.296875 -0.078125 0.59375 -0.125q0.3125 -0.046875 0.609375 -0.078125q0.296875 -0.03125 0.5625 -0.03125q0.8125 0 1.421875 0.1875q0.625 0.171875 1.03125 0.5q0.421875 0.328125 0.625 0.796875q0.21875 0.46875 0.21875 1.046875q0 0.875 -0.453125 1.46875q-0.4375 0.5937424 -1.21875 0.9531174q0.390625 0.0625 0.78125 0.25q0.390625 0.1875 0.6875 0.484375q0.3125 0.28125 0.5 0.6875q0.203125 0.390625 0.203125 0.875z" fill-rule="nonzero"></path><path fill="#0000ff" d="m652.8253 132.05815l-1.75 0l0 2.265625l-1.390625 0l0 -2.265625l-4.90625 0l0 -1.1875l4.34375 -6.7656174l1.953125 0l0 6.7656174l1.75 0l0 1.1875zm-3.140625 -6.6406174l-3.546875 5.4531174l3.546875 0l0 -5.4531174z" fill-rule="nonzero"></path><path fill="#0000ff" d="m706.1568 131.05815q0 0.75 -0.328125 1.375q-0.328125 0.625 -0.90625 1.078125q-0.578125 0.453125 -1.359375 0.703125q-0.78125 0.25 -1.6875 0.25q-0.21875 0 -0.484375 -0.015625q-0.265625 0 -0.53125 -0.03125q-0.25 -0.015625 -0.5 -0.046875q-0.234375 -0.015625 -0.4375 -0.046875l0 -1.234375q0.421875 0.09375 0.96875 0.140625q0.546875 0.046875 1.09375 0.046875q0.625 0 1.125 -0.140625q0.5 -0.15625 0.84375 -0.421875q0.359375 -0.28125 0.546875 -0.671875q0.1875 -0.40625 0.1875 -0.890625q0 -0.953125 -0.6875 -1.390625q-0.671875 -0.4375 -1.953125 -0.4375l-1.9375 0l0 -5.2187424l5.5 0l0 1.1875l-4.21875 0l0 2.8749924l0.890625 0q0.734375 0 1.421875 0.140625q0.703125 0.125 1.234375 0.453125q0.546875 0.328125 0.875 0.890625q0.34375 0.5625 0.34375 1.40625z" fill-rule="nonzero"></path><path fill="#000000" d="m57.478428 167.41125q0 1.171875 -0.234375 2.140625q-0.234375 0.96875 -0.71875 1.65625q-0.46875 0.6875 -1.171875 1.078125q-0.703125 0.375 -1.65625 0.375q-0.828125 0 -1.5 -0.3125q-0.671875 -0.3125 -1.15625 -0.953125q-0.46875 -0.640625 -0.734375 -1.625q-0.25 -1.0 -0.25 -2.359375q0 -1.171875 0.234375 -2.140625q0.25 -0.96875 0.71875 -1.65625q0.46875 -0.6875 1.171875 -1.0625q0.71875 -0.390625 1.671875 -0.390625q0.8125 0 1.484375 0.3125q0.671875 0.3125 1.140625 0.953125q0.484375 0.640625 0.734375 1.640625q0.265625 0.984375 0.265625 2.34375zm-1.375 0.046875q0 -0.265625 -0.015625 -0.515625q-0.015625 -0.265625 -0.046875 -0.515625l-4.3125 3.203125q0.109375 0.40625 0.28125 0.75q0.1875 0.34375 0.4375 0.59375q0.265625 0.25 0.578125 0.390625q0.328125 0.125 0.75 0.125q0.53125 0 0.953125 -0.25q0.4375 -0.265625 0.734375 -0.765625q0.3125 -0.515625 0.46875 -1.265625q0.171875 -0.75 0.171875 -1.75zm-4.671875 -0.09375q0 0.25 0 0.5q0.015625 0.234375 0.03125 0.453125l4.328125 -3.1875q-0.125 -0.40625 -0.3125 -0.734375q-0.171875 -0.328125 -0.421875 -0.5625q-0.25 -0.234375 -0.578125 -0.359375q-0.3125 -0.140625 -0.703125 -0.140625q-0.53125 0 -0.96875 0.265625q-0.4375 0.25 -0.75 0.765625q-0.296875 0.5 -0.46875 1.265625q-0.15625 0.75 -0.15625 1.734375z" fill-rule="nonzero"></path><path fill="#0000ff" d="m116.16962 168.89563l-4.671875 0l0 -1.28125l4.671875 0l0 1.28125z" fill-rule="nonzero"></path><path fill="#000000" d="m444.63995 172.52063l-6.421875 0l0 -1.265625l2.625 0l0 -7.453125l-2.4375 1.328125l-0.5 -1.15625l3.25 -1.71875l1.203125 0l0 9.0l2.28125 0l0 1.265625z" fill-rule="nonzero"></path><path fill="#000000" d="m57.165928 210.71748l-6.421875 0l0 -1.265625l2.625 0l0 -7.453125l-2.4375 1.328125l-0.5 -1.15625l3.25 -1.71875l1.203125 0l0 9.0l2.28125 0l0 1.265625z" fill-rule="nonzero"></path><path fill="#0000ff" d="m117.23212 210.71748l-6.421875 0l0 -1.265625l2.625 0l0 -7.453125l-2.4375 1.328125l-0.5 -1.15625l3.25 -1.71875l1.203125 0l0 9.0l2.28125 0l0 1.265625z" fill-rule="nonzero"></path><path fill="#000000" d="m390.54285 210.71748l-6.421875 0l0 -1.265625l2.625 0l0 -7.453125l-2.4375 1.328125l-0.5 -1.15625l3.25 -1.71875l1.203125 0l0 9.0l2.28125 0l0 1.265625z" fill-rule="nonzero"></path><path fill="#000000" d="m498.7371 210.71748l-6.421875 0l0 -1.265625l2.625 0l0 -7.453125l-2.4375 1.328125l-0.5 -1.15625l3.25 -1.71875l1.203125 0l0 9.0l2.28125 0l0 1.265625z" fill-rule="nonzero"></path><path fill="#000000" d="m57.244053 248.91434l-6.71875 0l0 -1.21875l2.640625 -2.625q0.640625 -0.640625 1.046875 -1.109375q0.40625 -0.46875 0.625 -0.859375q0.234375 -0.390625 0.3125 -0.734375q0.078125 -0.34375 0.078125 -0.734375q0 -0.375 -0.109375 -0.71875q-0.09375 -0.34375 -0.3125 -0.59375q-0.203125 -0.265625 -0.546875 -0.40625q-0.328125 -0.15625 -0.796875 -0.15625q-0.640625 0 -1.171875 0.296875q-0.53125 0.28125 -0.984375 0.75l-0.75 -0.90625q0.578125 -0.609375 1.328125 -0.96875q0.765625 -0.375 1.765625 -0.375q0.671875 0 1.234375 0.203125q0.5625 0.203125 0.96875 0.59375q0.40625 0.375 0.625 0.9375q0.21875 0.546875 0.21875 1.25q0 0.578125 -0.15625 1.078125q-0.15625 0.5 -0.46875 1.0q-0.3125 0.5 -0.796875 1.03125q-0.484375 0.53125 -1.140625 1.15625l-1.84375 1.8125l4.953125 0l0 1.296875z" fill-rule="nonzero"></path><path fill="#0000ff" d="m117.23212 248.91434l-6.421875 0l0 -1.265625l2.625 0l0 -7.453125l-2.4375 1.328125l-0.5 -1.15625l3.25 -1.71875l1.203125 0l0 9.0l2.28125 0l0 1.265625z" fill-rule="nonzero"></path><path fill="#000000" d="m336.44574 248.91434l-6.421875 0l0 -1.265625l2.625 0l0 -7.453125l-2.4375 1.328125l-0.5 -1.15625l3.25 -1.71875l1.203125 0l0 9.0l2.28125 0l0 1.265625z" fill-rule="nonzero"></path><path fill="#000000" d="m444.71808 248.91434l-6.71875 0l0 -1.21875l2.640625 -2.625q0.640625 -0.640625 1.046875 -1.109375q0.40625 -0.46875 0.625 -0.859375q0.234375 -0.390625 0.3125 -0.734375q0.078125 -0.34375 0.078125 -0.734375q0 -0.375 -0.109375 -0.71875q-0.09375 -0.34375 -0.3125 -0.59375q-0.203125 -0.265625 -0.546875 -0.40625q-0.328125 -0.15625 -0.796875 -0.15625q-0.640625 0 -1.171875 0.296875q-0.53125 0.28125 -0.984375 0.75l-0.75 -0.90625q0.578125 -0.609375 1.328125 -0.96875q0.765625 -0.375 1.765625 -0.375q0.671875 0 1.234375 0.203125q0.5625 0.203125 0.96875 0.59375q0.40625 0.375 0.625 0.9375q0.21875 0.546875 0.21875 1.25q0 0.578125 -0.15625 1.078125q-0.15625 0.5 -0.46875 1.0q-0.3125 0.5 -0.796875 1.03125q-0.484375 0.53125 -1.140625 1.15625l-1.84375 1.8125l4.953125 0l0 1.296875z" fill-rule="nonzero"></path><path fill="#000000" d="m552.83417 248.91434l-6.421875 0l0 -1.265625l2.625 0l0 -7.453125l-2.4375 1.328125l-0.5 -1.15625l3.25 -1.71875l1.203125 0l0 9.0l2.28125 0l0 1.265625z" fill-rule="nonzero"></path><path fill="#000000" d="m57.056553 284.0018q0 0.671875 -0.28125 1.265625q-0.265625 0.59375 -0.8125 1.03125q-0.546875 0.4375 -1.375 0.703125q-0.828125 0.25 -1.9375 0.25q-0.609375 0 -1.09375 -0.046875q-0.484375 -0.03125 -0.90625 -0.09375l0 -1.21875q0.484375 0.078125 1.015625 0.125q0.546875 0.046875 1.109375 0.046875q0.765625 0 1.3125 -0.125q0.546875 -0.140625 0.890625 -0.390625q0.34375 -0.265625 0.5 -0.625q0.15625 -0.375 0.15625 -0.84375q0 -0.421875 -0.1875 -0.734375q-0.1875 -0.3125 -0.53125 -0.515625q-0.34375 -0.21875 -0.8125 -0.3125q-0.46875 -0.109375 -1.03125 -0.109375l-1.171875 0l0 -1.125l1.1875 0q0.453125 0 0.828125 -0.109375q0.390625 -0.125 0.65625 -0.34375q0.265625 -0.234375 0.40625 -0.5625q0.15625 -0.34375 0.15625 -0.765625q0 -0.8125 -0.5 -1.1875q-0.5 -0.375 -1.46875 -0.375q-0.515625 0 -1.0625 0.109375q-0.546875 0.09375 -1.171875 0.296875l0 -1.1875q0.265625 -0.09375 0.5625 -0.171875q0.296875 -0.078125 0.59375 -0.125q0.3125 -0.046875 0.609375 -0.078125q0.296875 -0.03125 0.5625 -0.03125q0.8125 0 1.421875 0.1875q0.625 0.171875 1.03125 0.5q0.421875 0.328125 0.625 0.796875q0.21875 0.46875 0.21875 1.046875q0 0.875 -0.453125 1.46875q-0.4375 0.59375 -1.21875 0.953125q0.390625 0.0625 0.78125 0.25q0.390625 0.1875 0.6875 0.484375q0.3125 0.28125 0.5 0.6875q0.203125 0.390625 0.203125 0.875z" fill-rule="nonzero"></path><path fill="#0000ff" d="m117.23212 287.11118l-6.421875 0l0 -1.265625l2.625 0l0 -7.453125l-2.4375 1.328125l-0.5 -1.15625l3.25 -1.71875l1.203125 0l0 9.0l2.28125 0l0 1.265625z" fill-rule="nonzero"></path><path fill="#000000" d="m282.34863 287.11118l-6.421875 0l0 -1.265625l2.625 0l0 -7.453125l-2.4375 1.328125l-0.5 -1.15625l3.25 -1.71875l1.203125 0l0 9.0l2.28125 0l0 1.265625z" fill-rule="nonzero"></path><path fill="#000000" d="m390.43347 284.0018q0 0.671875 -0.28125 1.265625q-0.265625 0.59375 -0.8125 1.03125q-0.546875 0.4375 -1.375 0.703125q-0.828125 0.25 -1.9375 0.25q-0.609375 0 -1.09375 -0.046875q-0.484375 -0.03125 -0.90625 -0.09375l0 -1.21875q0.484375 0.078125 1.015625 0.125q0.546875 0.046875 1.109375 0.046875q0.765625 0 1.3125 -0.125q0.546875 -0.140625 0.890625 -0.390625q0.34375 -0.265625 0.5 -0.625q0.15625 -0.375 0.15625 -0.84375q0 -0.421875 -0.1875 -0.734375q-0.1875 -0.3125 -0.53125 -0.515625q-0.34375 -0.21875 -0.8125 -0.3125q-0.46875 -0.109375 -1.03125 -0.109375l-1.171875 0l0 -1.125l1.1875 0q0.453125 0 0.828125 -0.109375q0.390625 -0.125 0.65625 -0.34375q0.265625 -0.234375 0.40625 -0.5625q0.15625 -0.34375 0.15625 -0.765625q0 -0.8125 -0.5 -1.1875q-0.5 -0.375 -1.46875 -0.375q-0.515625 0 -1.0625 0.109375q-0.546875 0.09375 -1.171875 0.296875l0 -1.1875q0.265625 -0.09375 0.5625 -0.171875q0.296875 -0.078125 0.59375 -0.125q0.3125 -0.046875 0.609375 -0.078125q0.296875 -0.03125 0.5625 -0.03125q0.8125 0 1.421875 0.1875q0.625 0.171875 1.03125 0.5q0.421875 0.328125 0.625 0.796875q0.21875 0.46875 0.21875 1.046875q0 0.875 -0.453125 1.46875q-0.4375 0.59375 -1.21875 0.953125q0.390625 0.0625 0.78125 0.25q0.390625 0.1875 0.6875 0.484375q0.3125 0.28125 0.5 0.6875q0.203125 0.390625 0.203125 0.875z" fill-rule="nonzero"></path><path fill="#000000" d="m498.62772 284.0018q0 0.671875 -0.28125 1.265625q-0.265625 0.59375 -0.8125 1.03125q-0.546875 0.4375 -1.375 0.703125q-0.828125 0.25 -1.9375 0.25q-0.609375 0 -1.09375 -0.046875q-0.484375 -0.03125 -0.90625 -0.09375l0 -1.21875q0.484375 0.078125 1.015625 0.125q0.546875 0.046875 1.109375 0.046875q0.765625 0 1.3125 -0.125q0.546875 -0.140625 0.890625 -0.390625q0.34375 -0.265625 0.5 -0.625q0.15625 -0.375 0.15625 -0.84375q0 -0.421875 -0.1875 -0.734375q-0.1875 -0.3125 -0.53125 -0.515625q-0.34375 -0.21875 -0.8125 -0.3125q-0.46875 -0.109375 -1.03125 -0.109375l-1.171875 0l0 -1.125l1.1875 0q0.453125 0 0.828125 -0.109375q0.390625 -0.125 0.65625 -0.34375q0.265625 -0.234375 0.40625 -0.5625q0.15625 -0.34375 0.15625 -0.765625q0 -0.8125 -0.5 -1.1875q-0.5 -0.375 -1.46875 -0.375q-0.515625 0 -1.0625 0.109375q-0.546875 0.09375 -1.171875 0.296875l0 -1.1875q0.265625 -0.09375 0.5625 -0.171875q0.296875 -0.078125 0.59375 -0.125q0.3125 -0.046875 0.609375 -0.078125q0.296875 -0.03125 0.5625 -0.03125q0.8125 0 1.421875 0.1875q0.625 0.171875 1.03125 0.5q0.421875 0.328125 0.625 0.796875q0.21875 0.46875 0.21875 1.046875q0 0.875 -0.453125 1.46875q-0.4375 0.59375 -1.21875 0.953125q0.390625 0.0625 0.78125 0.25q0.390625 0.1875 0.6875 0.484375q0.3125 0.28125 0.5 0.6875q0.203125 0.390625 0.203125 0.875z" fill-rule="nonzero"></path><path fill="#000000" d="m606.93134 287.11118l-6.421875 0l0 -1.265625l2.625 0l0 -7.453125l-2.4375 1.328125l-0.5 -1.15625l3.25 -1.71875l1.203125 0l0 9.0l2.28125 0l0 1.265625z" fill-rule="nonzero"></path><path fill="#000000" d="m57.759678 323.04242l-1.75 0l0 2.265625l-1.390625 0l0 -2.265625l-4.90625 0l0 -1.1875l4.34375 -6.765625l1.953125 0l0 6.765625l1.75 0l0 1.1875zm-3.140625 -6.640625l-3.546875 5.453125l3.546875 0l0 -5.453125z" fill-rule="nonzero"></path><path fill="#0000ff" d="m117.23212 325.30804l-6.421875 0l0 -1.265625l2.625 0l0 -7.453125l-2.4375 1.328125l-0.5 -1.15625l3.25 -1.71875l1.203125 0l0 9.0l2.28125 0l0 1.265625z" fill-rule="nonzero"></path><path fill="#000000" d="m228.25151 325.30804l-6.421875 0l0 -1.265625l2.625 0l0 -7.453125l-2.4375 1.328125l-0.5 -1.15625l3.25 -1.71875l1.203125 0l0 9.0l2.28125 0l0 1.265625z" fill-rule="nonzero"></path><path fill="#000000" d="m337.0395 323.04242l-1.75 0l0 2.265625l-1.390625 0l0 -2.265625l-4.90625 0l0 -1.1875l4.34375 -6.765625l1.953125 0l0 6.765625l1.75 0l0 1.1875zm-3.140625 -6.640625l-3.546875 5.453125l3.546875 0l0 -5.453125z" fill-rule="nonzero"></path><path fill="#000000" d="m444.84308 322.07367q0 0.703125 -0.25 1.328125q-0.25 0.609375 -0.71875 1.0625q-0.46875 0.453125 -1.140625 0.71875q-0.65625 0.265625 -1.453125 0.265625q-0.84375 0 -1.5 -0.265625q-0.640625 -0.28125 -1.078125 -0.828125q-0.4375 -0.5625 -0.671875 -1.40625q-0.21875 -0.859375 -0.21875 -2.03125q0 -0.78125 0.09375 -1.515625q0.109375 -0.734375 0.34375 -1.375q0.234375 -0.65625 0.625 -1.1875q0.390625 -0.546875 0.96875 -0.921875q0.578125 -0.390625 1.359375 -0.609375q0.796875 -0.21875 1.84375 -0.21875l1.0 0l0 1.1875l-1.09375 0q-0.90625 0 -1.578125 0.21875q-0.671875 0.21875 -1.125 0.625q-0.453125 0.390625 -0.703125 0.953125q-0.234375 0.5625 -0.296875 1.265625l-0.03125 0.3125q0.484375 -0.28125 1.125 -0.453125q0.65625 -0.1875 1.40625 -0.1875q0.765625 0 1.34375 0.234375q0.59375 0.21875 0.96875 0.625q0.390625 0.40625 0.578125 0.96875q0.203125 0.5625 0.203125 1.234375zm-1.421875 0.078125q0 -0.46875 -0.109375 -0.84375q-0.109375 -0.375 -0.359375 -0.640625q-0.234375 -0.265625 -0.609375 -0.40625q-0.375 -0.140625 -0.890625 -0.140625q-0.296875 0 -0.609375 0.0625q-0.296875 0.046875 -0.59375 0.140625q-0.28125 0.09375 -0.546875 0.21875q-0.265625 0.125 -0.484375 0.265625q0 1.015625 0.140625 1.6875q0.140625 0.671875 0.40625 1.078125q0.28125 0.40625 0.6875 0.578125q0.40625 0.171875 0.9375 0.171875q0.453125 0 0.8125 -0.140625q0.375 -0.140625 0.640625 -0.421875q0.28125 -0.28125 0.421875 -0.6875q0.15625 -0.40625 0.15625 -0.921875z" fill-rule="nonzero"></path><path fill="#000000" d="m553.4279 323.04242l-1.75 0l0 2.265625l-1.390625 0l0 -2.265625l-4.90625 0l0 -1.1875l4.34375 -6.765625l1.953125 0l0 6.765625l1.75 0l0 1.1875zm-3.140625 -6.640625l-3.546875 5.453125l3.546875 0l0 -5.453125z" fill-rule="nonzero"></path><path fill="#000000" d="m661.02844 325.30804l-6.421875 0l0 -1.265625l2.625 0l0 -7.453125l-2.4375 1.328125l-0.5 -1.15625l3.25 -1.71875l1.203125 0l0 9.0l2.28125 0l0 1.265625z" fill-rule="nonzero"></path><path fill="#000000" d="m56.994053 360.23926q0 0.75 -0.328125 1.375q-0.328125 0.625 -0.90625 1.078125q-0.578125 0.453125 -1.359375 0.703125q-0.78125 0.25 -1.6875 0.25q-0.21875 0 -0.484375 -0.015625q-0.265625 0 -0.53125 -0.03125q-0.25 -0.015625 -0.5 -0.046875q-0.234375 -0.015625 -0.4375 -0.046875l0 -1.234375q0.421875 0.09375 0.96875 0.140625q0.546875 0.046875 1.09375 0.046875q0.625 0 1.125 -0.140625q0.5 -0.15625 0.84375 -0.421875q0.359375 -0.28125 0.546875 -0.671875q0.1875 -0.40625 0.1875 -0.890625q0 -0.953125 -0.6875 -1.390625q-0.671875 -0.4375 -1.953125 -0.4375l-1.9375 0l0 -5.21875l5.5 0l0 1.1875l-4.21875 0l0 2.875l0.890625 0q0.734375 0 1.421875 0.140625q0.703125 0.125 1.234375 0.453125q0.546875 0.328125 0.875 0.890625q0.34375 0.5625 0.34375 1.40625z" fill-rule="nonzero"></path><path fill="#0000ff" d="m117.23212 363.50488l-6.421875 0l0 -1.265625l2.625 0l0 -7.453125l-2.4375 1.328125l-0.5 -1.15625l3.25 -1.71875l1.203125 0l0 9.0l2.28125 0l0 1.265625z" fill-rule="nonzero"></path><path fill="#000000" d="m174.15178 363.50488l-6.421875 0l0 -1.265625l2.625 0l0 -7.453125l-2.4375 1.328125l-0.5 -1.15625l3.25 -1.71875l1.203125 0l0 9.0l2.28125 0l0 1.265625z" fill-rule="nonzero"></path><path fill="#000000" d="m282.17676 360.23926q0 0.75 -0.328125 1.375q-0.328125 0.625 -0.90625 1.078125q-0.578125 0.453125 -1.359375 0.703125q-0.78125 0.25 -1.6875 0.25q-0.21875 0 -0.484375 -0.015625q-0.265625 0 -0.53125 -0.03125q-0.25 -0.015625 -0.5 -0.046875q-0.234375 -0.015625 -0.4375 -0.046875l0 -1.234375q0.421875 0.09375 0.96875 0.140625q0.546875 0.046875 1.09375 0.046875q0.625 0 1.125 -0.140625q0.5 -0.15625 0.84375 -0.421875q0.359375 -0.28125 0.546875 -0.671875q0.1875 -0.40625 0.1875 -0.890625q0 -0.953125 -0.6875 -1.390625q-0.671875 -0.4375 -1.953125 -0.4375l-1.9375 0l0 -5.21875l5.5 0l0 1.1875l-4.21875 0l0 2.875l0.890625 0q0.734375 0 1.421875 0.140625q0.703125 0.125 1.234375 0.453125q0.546875 0.328125 0.875 0.890625q0.34375 0.5625 0.34375 1.40625z" fill-rule="nonzero"></path><path fill="#000000" d="m381.74597 363.50488l-6.421875 0l0 -1.265625l2.625 0l0 -7.453125l-2.4375 1.328125l-0.5 -1.15625l3.25 -1.71875l1.203125 0l0 9.0l2.28125 0l0 1.265625zm9.109375 -5.109375q0 1.171875 -0.234375 2.140625q-0.234375 0.96875 -0.71875 1.65625q-0.46875 0.6875 -1.171875 1.078125q-0.703125 0.375 -1.65625 0.375q-0.828125 0 -1.5 -0.3125q-0.671875 -0.3125 -1.15625 -0.953125q-0.46875 -0.640625 -0.734375 -1.625q-0.25 -1.0 -0.25 -2.359375q0 -1.171875 0.234375 -2.140625q0.25 -0.96875 0.71875 -1.65625q0.46875 -0.6875 1.171875 -1.0625q0.71875 -0.390625 1.671875 -0.390625q0.8125 0 1.484375 0.3125q0.671875 0.3125 1.140625 0.953125q0.484375 0.640625 0.734375 1.640625q0.265625 0.984375 0.265625 2.34375zm-1.375 0.046875q0 -0.265625 -0.015625 -0.515625q-0.015625 -0.265625 -0.046875 -0.515625l-4.3125 3.203125q0.109375 0.40625 0.28125 0.75q0.1875 0.34375 0.4375 0.59375q0.265625 0.25 0.578125 0.390625q0.328125 0.125 0.75 0.125q0.53125 0 0.953125 -0.25q0.4375 -0.265625 0.734375 -0.765625q0.3125 -0.515625 0.46875 -1.265625q0.171875 -0.75 0.171875 -1.75zm-4.671875 -0.09375q0 0.25 0 0.5q0.015625 0.234375 0.03125 0.453125l4.328125 -3.1875q-0.125 -0.40625 -0.3125 -0.734375q-0.171875 -0.328125 -0.421875 -0.5625q-0.25 -0.234375 -0.578125 -0.359375q-0.3125 -0.140625 -0.703125 -0.140625q-0.53125 0 -0.96875 0.265625q-0.4375 0.25 -0.75 0.765625q-0.296875 0.5 -0.46875 1.265625q-0.15625 0.75 -0.15625 1.734375z" fill-rule="nonzero"></path><path fill="#000000" d="m489.94022 363.50488l-6.421875 0l0 -1.265625l2.625 0l0 -7.453125l-2.4375 1.328125l-0.5 -1.15625l3.25 -1.71875l1.203125 0l0 9.0l2.28125 0l0 1.265625zm9.109375 -5.109375q0 1.171875 -0.234375 2.140625q-0.234375 0.96875 -0.71875 1.65625q-0.46875 0.6875 -1.171875 1.078125q-0.703125 0.375 -1.65625 0.375q-0.828125 0 -1.5 -0.3125q-0.671875 -0.3125 -1.15625 -0.953125q-0.46875 -0.640625 -0.734375 -1.625q-0.25 -1.0 -0.25 -2.359375q0 -1.171875 0.234375 -2.140625q0.25 -0.96875 0.71875 -1.65625q0.46875 -0.6875 1.171875 -1.0625q0.71875 -0.390625 1.671875 -0.390625q0.8125 0 1.484375 0.3125q0.671875 0.3125 1.140625 0.953125q0.484375 0.640625 0.734375 1.640625q0.265625 0.984375 0.265625 2.34375zm-1.375 0.046875q0 -0.265625 -0.015625 -0.515625q-0.015625 -0.265625 -0.046875 -0.515625l-4.3125 3.203125q0.109375 0.40625 0.28125 0.75q0.1875 0.34375 0.4375 0.59375q0.265625 0.25 0.578125 0.390625q0.328125 0.125 0.75 0.125q0.53125 0 0.953125 -0.25q0.4375 -0.265625 0.734375 -0.765625q0.3125 -0.515625 0.46875 -1.265625q0.171875 -0.75 0.171875 -1.75zm-4.671875 -0.09375q0 0.25 0 0.5q0.015625 0.234375 0.03125 0.453125l4.328125 -3.1875q-0.125 -0.40625 -0.3125 -0.734375q-0.171875 -0.328125 -0.421875 -0.5625q-0.25 -0.234375 -0.578125 -0.359375q-0.3125 -0.140625 -0.703125 -0.140625q-0.53125 0 -0.96875 0.265625q-0.4375 0.25 -0.75 0.765625q-0.296875 0.5 -0.46875 1.265625q-0.15625 0.75 -0.15625 1.734375z" fill-rule="nonzero"></path><path fill="#000000" d="m606.75946 360.23926q0 0.75 -0.328125 1.375q-0.328125 0.625 -0.90625 1.078125q-0.578125 0.453125 -1.359375 0.703125q-0.78125 0.25 -1.6875 0.25q-0.21875 0 -0.484375 -0.015625q-0.265625 0 -0.53125 -0.03125q-0.25 -0.015625 -0.5 -0.046875q-0.234375 -0.015625 -0.4375 -0.046875l0 -1.234375q0.421875 0.09375 0.96875 0.140625q0.546875 0.046875 1.09375 0.046875q0.625 0 1.125 -0.140625q0.5 -0.15625 0.84375 -0.421875q0.359375 -0.28125 0.546875 -0.671875q0.1875 -0.40625 0.1875 -0.890625q0 -0.953125 -0.6875 -1.390625q-0.671875 -0.4375 -1.953125 -0.4375l-1.9375 0l0 -5.21875l5.5 0l0 1.1875l-4.21875 0l0 2.875l0.890625 0q0.734375 0 1.421875 0.140625q0.703125 0.125 1.234375 0.453125q0.546875 0.328125 0.875 0.890625q0.34375 0.5625 0.34375 1.40625z" fill-rule="nonzero"></path><path fill="#000000" d="m715.12555 363.50488l-6.421875 0l0 -1.265625l2.625 0l0 -7.453125l-2.4375 1.328125l-0.5 -1.15625l3.25 -1.71875l1.203125 0l0 9.0l2.28125 0l0 1.265625z" fill-rule="nonzero"></path><path stroke="#9e9e9e" stroke-width="1.0" stroke-linecap="butt" d="m31.572178 -0.5l0 65.51706" fill-rule="nonzero"></path><path stroke="#9e9e9e" stroke-width="1.0" stroke-linecap="butt" d="m734.83203 -0.5l0 65.51706" fill-rule="nonzero"></path><path stroke="#9e9e9e" stroke-width="1.0" stroke-linecap="butt" d="m31.07349 -0.001312336l704.2572 0" fill-rule="nonzero"></path><path stroke="#9e9e9e" stroke-width="1.0" stroke-linecap="butt" d="m31.07349 64.51837l704.2572 0" fill-rule="nonzero"></path><path fill="#000000" d="m44.494053 17.639938l-2.3125 0l0 -1.125l3.6875 0l0 6.703125l2.34375 0l0 1.140625l-6.296875 0l0 -1.140625l2.578125 0l0 -5.578125zm0.484375 -4.421875q0.21875 0 0.40625 0.09375q0.203125 0.078125 0.34375 0.234375q0.15625 0.140625 0.234375 0.328125q0.078125 0.1875 0.078125 0.421875q0 0.21875 -0.078125 0.421875q-0.078125 0.1875 -0.234375 0.34375q-0.140625 0.140625 -0.34375 0.21875q-0.1875 0.078125 -0.40625 0.078125q-0.234375 0 -0.4375 -0.078125q-0.1875 -0.078125 -0.328125 -0.21875q-0.140625 -0.15625 -0.234375 -0.34375q-0.078125 -0.203125 -0.078125 -0.421875q0 -0.234375 0.078125 -0.421875q0.09375 -0.1875 0.234375 -0.328125q0.140625 -0.15625 0.328125 -0.234375q0.203125 -0.09375 0.4375 -0.09375zm5.640625 3.296875l1.21875 0l0.046875 1.265625q0.34375 -0.40625 0.65625 -0.671875q0.328125 -0.28125 0.640625 -0.4375q0.3125 -0.171875 0.625 -0.234375q0.328125 -0.0625 0.671875 -0.0625q1.203125 0 1.828125 0.71875q0.625 0.703125 0.625 2.140625l0 5.125l-1.359375 0l0 -5.015625q0 -0.921875 -0.34375 -1.359375q-0.34375 -0.4375 -1.03125 -0.4375q-0.25 0 -0.484375 0.078125q-0.234375 0.0625 -0.5 0.25q-0.25 0.1875 -0.5625 0.5q-0.296875 0.3125 -0.671875 0.78125l0 5.203125l-1.359375 0l0 -7.84375zm15.500004 3.78125q0 1.046875 -0.296875 1.828125q-0.28125 0.78125 -0.796875 1.296875q-0.515625 0.515625 -1.2187538 0.78125q-0.703125 0.25 -1.53125 0.25q-0.375 0 -0.75 -0.046875q-0.359375 -0.03125 -0.75 -0.125l0 3.28125l-1.359375 0l0 -11.046875l1.21875 0l0.078125 1.3125q0.59375 -0.8125 1.25 -1.125q0.671875 -0.328125 1.4375 -0.328125q0.6718788 0 1.1718788 0.28125q0.515625 0.28125 0.859375 0.796875q0.34375 0.5 0.515625 1.234375q0.171875 0.71875 0.171875 1.609375zm-1.390625 0.0625q0 -0.625 -0.09375 -1.140625q-0.078125 -0.515625 -0.28125 -0.875q-0.1875 -0.375 -0.5000038 -0.578125q-0.296875 -0.203125 -0.71875 -0.203125q-0.265625 0 -0.53125 0.078125q-0.265625 0.078125 -0.546875 0.28125q-0.28125 0.1875 -0.609375 0.5q-0.3125 0.3125 -0.671875 0.78125l0 3.8125q0.375 0.15625 0.78125 0.25q0.421875 0.078125 0.828125 0.078125q1.09375 0 1.7187538 -0.734375q0.625 -0.75 0.625 -2.25zm9.796875 4.0l-1.21875 0l-0.046875 -1.265625q-0.359375 0.40625 -0.671875 0.671875q-0.3125 0.265625 -0.625 0.4375q-0.3125 0.171875 -0.640625 0.234375q-0.3125 0.0625 -0.65625 0.0625q-1.21875 0 -1.84375 -0.703125q-0.609375 -0.71875 -0.609375 -2.15625l0 -5.125l1.359375 0l0 5.015625q0 1.796875 1.359375 1.796875q0.25 0 0.484375 -0.0625q0.25 -0.078125 0.5 -0.265625q0.265625 -0.1875 0.5625 -0.5q0.3125 -0.3125 0.6875 -0.78125l0 -5.203125l1.359375 0l0 7.84375zm8.8125 -0.109375q-0.46875 0.125 -0.96875 0.171875q-0.484375 0.046875 -0.984375 0.046875q-1.484375 0 -2.21875 -0.671875q-0.71875 -0.671875 -0.71875 -2.046875l0 -4.09375l-2.1875 0l0 -1.140625l2.1875 0l0 -2.15625l1.359375 -0.359375l0 2.515625l3.53125 0l0 1.140625l-3.53125 0l0 3.984375q0 0.84375 0.453125 1.265625q0.453125 0.40625 1.328125 0.40625q0.375 0 0.8125 -0.046875q0.453125 -0.0625 0.9375 -0.1875l0 1.171875zm16.5625 3.3125l-3.84375 0l0 -14.515625l3.84375 0l0 1.09375l-2.546875 0l0 12.328125l2.546875 0l0 1.09375zm10.046875 -3.203125l-6.421875 0l0 -1.265625l2.625 0l0 -7.453125l-2.4375 1.328125l-0.5 -1.15625l3.25 -1.71875l1.203125 0l0 9.0l2.28125 0l0 1.265625zm2.859375 1.609375q0.40625 0.015625 0.78125 -0.078125q0.375 -0.078125 0.65625 -0.25q0.28125 -0.171875 0.453125 -0.421875q0.171875 -0.25 0.171875 -0.5625q0 -0.34375 -0.109375 -0.546875q-0.109375 -0.203125 -0.25 -0.375q-0.140625 -0.171875 -0.265625 -0.359375q-0.109375 -0.203125 -0.109375 -0.53125q0 -0.15625 0.0625 -0.328125q0.0625 -0.1875 0.1875 -0.328125q0.140625 -0.15625 0.328125 -0.25q0.203125 -0.09375 0.484375 -0.09375q0.265625 0 0.515625 0.109375q0.265625 0.109375 0.453125 0.34375q0.1875 0.234375 0.296875 0.59375q0.125 0.34375 0.125 0.828125q0 0.65625 -0.25 1.25q-0.234375 0.59375 -0.703125 1.046875q-0.46875 0.46875 -1.1875 0.734375q-0.703125 0.28125 -1.640625 0.28125l0 -1.0625zm23.531242 -1.609375l-6.421875 0l0 -1.265625l2.625 0l0 -7.453125l-2.4375 1.328125l-0.5 -1.15625l3.25 -1.71875l1.203125 0l0 9.0l2.28125 0l0 1.265625zm2.859375 1.609375q0.40625 0.015625 0.78125 -0.078125q0.375 -0.078125 0.65625 -0.25q0.28125 -0.171875 0.453125 -0.421875q0.171875 -0.25 0.171875 -0.5625q0 -0.34375 -0.109375 -0.546875q-0.109375 -0.203125 -0.25 -0.375q-0.140625 -0.171875 -0.265625 -0.359375q-0.109375 -0.203125 -0.109375 -0.53125q0 -0.15625 0.0625 -0.328125q0.0625 -0.1875 0.1875 -0.328125q0.140625 -0.15625 0.328125 -0.25q0.203125 -0.09375 0.484375 -0.09375q0.265625 0 0.515625 0.109375q0.265625 0.109375 0.453125 0.34375q0.1875 0.234375 0.296875 0.59375q0.125 0.34375 0.125 0.828125q0 0.65625 -0.25 1.25q-0.234375 0.59375 -0.703125 1.046875q-0.46875 0.46875 -1.1875 0.734375q-0.703125 0.28125 -1.640625 0.28125l0 -1.0625zm23.53125 -1.609375l-6.421875 0l0 -1.265625l2.625 0l0 -7.453125l-2.4375 1.328125l-0.5 -1.15625l3.25 -1.71875l1.203125 0l0 9.0l2.28125 0l0 1.265625zm2.859375 1.609375q0.40625 0.015625 0.78125 -0.078125q0.375 -0.078125 0.65625 -0.25q0.28125 -0.171875 0.453125 -0.421875q0.171875 -0.25 0.171875 -0.5625q0 -0.34375 -0.109375 -0.546875q-0.109375 -0.203125 -0.25 -0.375q-0.140625 -0.171875 -0.265625 -0.359375q-0.109375 -0.203125 -0.109375 -0.53125q0 -0.15625 0.0625 -0.328125q0.0625 -0.1875 0.1875 -0.328125q0.140625 -0.15625 0.328125 -0.25q0.203125 -0.09375 0.484375 -0.09375q0.265625 0 0.515625 0.109375q0.265625 0.109375 0.453125 0.34375q0.1875 0.234375 0.296875 0.59375q0.125 0.34375 0.125 0.828125q0 0.65625 -0.25 1.25q-0.234375 0.59375 -0.703125 1.046875q-0.46875 0.46875 -1.1875 0.734375q-0.703125 0.28125 -1.640625 0.28125l0 -1.0625zm23.53125 -1.609375l-6.421875 0l0 -1.265625l2.625 0l0 -7.453125l-2.4375 1.328125l-0.5 -1.15625l3.25 -1.71875l1.203125 0l0 9.0l2.28125 0l0 1.265625zm2.859375 1.609375q0.40625 0.015625 0.78125 -0.078125q0.375 -0.078125 0.65625 -0.25q0.28125 -0.171875 0.453125 -0.421875q0.171875 -0.25 0.171875 -0.5625q0 -0.34375 -0.109375 -0.546875q-0.109375 -0.203125 -0.25 -0.375q-0.140625 -0.171875 -0.265625 -0.359375q-0.109375 -0.203125 -0.109375 -0.53125q0 -0.15625 0.0625 -0.328125q0.0625 -0.1875 0.1875 -0.328125q0.140625 -0.15625 0.328125 -0.25q0.203125 -0.09375 0.484375 -0.09375q0.265625 0 0.515625 0.109375q0.265625 0.109375 0.453125 0.34375q0.1875 0.234375 0.296875 0.59375q0.125 0.34375 0.125 0.828125q0 0.65625 -0.25 1.25q-0.234375 0.59375 -0.703125 1.046875q-0.46875 0.46875 -1.1875 0.734375q-0.703125 0.28125 -1.640625 0.28125l0 -1.0625zm23.53125 -1.609375l-6.421875 0l0 -1.265625l2.625 0l0 -7.453125l-2.4375 1.328125l-0.5 -1.15625l3.25 -1.71875l1.203125 0l0 9.0l2.28125 0l0 1.265625zm7.109375 3.203125l-3.859375 0l0 -1.09375l2.546875 0l0 -12.328125l-2.546875 0l0 -1.09375l3.859375 0l0 14.515625zm4.546875 -1.59375q0.40625 0.015625 0.78125 -0.078125q0.375 -0.078125 0.65625 -0.25q0.28125 -0.171875 0.453125 -0.421875q0.171875 -0.25 0.171875 -0.5625q0 -0.34375 -0.109375 -0.546875q-0.109375 -0.203125 -0.25 -0.375q-0.140625 -0.171875 -0.265625 -0.359375q-0.109375 -0.203125 -0.109375 -0.53125q0 -0.15625 0.0625 -0.328125q0.0625 -0.1875 0.1875 -0.328125q0.140625 -0.15625 0.328125 -0.25q0.203125 -0.09375 0.484375 -0.09375q0.265625 0 0.515625 0.109375q0.265625 0.109375 0.453125 0.34375q0.1875 0.234375 0.296875 0.59375q0.125 0.34375 0.125 0.828125q0 0.65625 -0.25 1.25q-0.234375 0.59375 -0.703125 1.046875q-0.46875 0.46875 -1.1875 0.734375q-0.703125 0.28125 -1.640625 0.28125l0 -1.0625zm23.3125 -1.71875q-0.46875 0.125 -0.96875 0.171875q-0.484375 0.046875 -0.984375 0.046875q-1.484375 0 -2.21875 -0.671875q-0.71875 -0.671875 -0.71875 -2.046875l0 -4.09375l-2.1875 0l0 -1.140625l2.1875 0l0 -2.15625l1.359375 -0.359375l0 2.515625l3.53125 0l0 1.140625l-3.53125 0l0 3.984375q0 0.84375 0.453125 1.265625q0.453125 0.40625 1.328125 0.40625q0.375 0 0.8125 -0.046875q0.453125 -0.0625 0.9375 -0.1875l0 1.171875zm7.515625 0.109375l-0.03125 -1.0625q-0.640625 0.640625 -1.3125 0.921875q-0.65625 0.28125 -1.375 0.28125q-0.671875 0 -1.15625 -0.171875q-0.46875 -0.171875 -0.78125 -0.46875q-0.3125 -0.3125 -0.453125 -0.71875q-0.140625 -0.40625 -0.140625 -0.875q0 -1.1875 0.875 -1.84375q0.875 -0.671875 2.59375 -0.671875l1.625 0l0 -0.6875q0 -0.703125 -0.453125 -1.109375q-0.4375 -0.421875 -1.34375 -0.421875q-0.671875 0 -1.3125 0.15625q-0.640625 0.140625 -1.328125 0.40625l0 -1.21875q0.25 -0.09375 0.5625 -0.1875q0.328125 -0.09375 0.671875 -0.15625q0.359375 -0.078125 0.734375 -0.109375q0.390625 -0.046875 0.78125 -0.046875q0.703125 0 1.265625 0.15625q0.578125 0.15625 0.96875 0.484375q0.40625 0.3125 0.609375 0.796875q0.21875 0.484375 0.21875 1.140625l0 5.40625l-1.21875 0zm-0.15625 -3.578125l-1.71875 0q-0.515625 0 -0.890625 0.109375q-0.359375 0.09375 -0.59375 0.28125q-0.234375 0.1875 -0.34375 0.453125q-0.109375 0.265625 -0.109375 0.59375q0 0.21875 0.0625 0.4375q0.078125 0.203125 0.234375 0.359375q0.15625 0.15625 0.40625 0.25q0.25 0.09375 0.609375 0.09375q0.46875 0 1.0625 -0.28125q0.609375 -0.28125 1.28125 -0.90625l0 -1.390625zm4.234375 -4.265625l1.234375 0l0.046875 1.4375q0.6875 -0.828125 1.359375 -1.203125q0.6875 -0.375 1.375 -0.375q1.21875 0 1.84375 0.796875q0.625 0.78125 0.578125 2.328125l-1.375 0q0.03125 -1.03125 -0.296875 -1.484375q-0.328125 -0.46875 -0.953125 -0.46875q-0.265625 0 -0.546875 0.09375q-0.28125 0.09375 -0.578125 0.3125q-0.28125 0.21875 -0.609375 0.5625q-0.328125 0.328125 -0.703125 0.796875l0 5.046875l-1.375 0l0 -7.84375zm14.125 1.109375q0.21875 0.265625 0.328125 0.640625q0.125 0.359375 0.125 0.78125q0 0.609375 -0.21875 1.109375q-0.21875 0.5 -0.625 0.859375q-0.40625 0.359375 -0.984375 0.5625q-0.5625 0.203125 -1.234375 0.203125q-0.5 0 -0.9375 -0.109375q-0.421875 -0.109375 -0.671875 -0.265625q-0.140625 0.21875 -0.25 0.421875q-0.09375 0.1875 -0.09375 0.4375q0 0.296875 0.28125 0.5q0.28125 0.1875 0.75 0.203125l2.0625 0.078125q0.59375 0.015625 1.078125 0.15625q0.5 0.125 0.859375 0.375q0.359375 0.25 0.546875 0.625q0.203125 0.359375 0.203125 0.84375q0 0.53125 -0.234375 1.0q-0.21875 0.46875 -0.6875 0.8125q-0.46875 0.359375 -1.203125 0.5625q-0.71875 0.21875 -1.71875 0.21875q-0.953125 0 -1.625 -0.15625q-0.671875 -0.140625 -1.109375 -0.421875q-0.421875 -0.265625 -0.625 -0.640625q-0.1875 -0.359375 -0.1875 -0.8125q0 -0.5625 0.265625 -1.0q0.265625 -0.4375 0.828125 -0.828125q-0.203125 -0.09375 -0.359375 -0.234375q-0.140625 -0.140625 -0.234375 -0.3125q-0.09375 -0.171875 -0.140625 -0.359375q-0.046875 -0.1875 -0.046875 -0.359375q0 -0.515625 0.234375 -0.9375q0.234375 -0.421875 0.5625 -0.796875q-0.140625 -0.171875 -0.265625 -0.34375q-0.109375 -0.171875 -0.1875 -0.375q-0.078125 -0.203125 -0.125 -0.421875q-0.046875 -0.234375 -0.046875 -0.53125q0 -0.609375 0.21875 -1.109375q0.234375 -0.515625 0.625 -0.875q0.40625 -0.359375 0.96875 -0.546875q0.578125 -0.203125 1.265625 -0.203125q0.28125 0 0.546875 0.046875q0.265625 0.03125 0.46875 0.09375l2.84375 0l0 1.109375l-1.25 0zm-4.71875 7.875q0 0.546875 0.578125 0.796875q0.578125 0.265625 1.609375 0.265625q0.640625 0 1.078125 -0.125q0.453125 -0.109375 0.71875 -0.3125q0.265625 -0.1875 0.375 -0.4375q0.125 -0.234375 0.125 -0.5q0 -0.46875 -0.390625 -0.703125q-0.390625 -0.234375 -1.1875 -0.265625l-2.046875 -0.078125q-0.265625 0.171875 -0.4375 0.34375q-0.15625 0.171875 -0.25 0.328125q-0.09375 0.171875 -0.140625 0.34375q-0.03125 0.171875 -0.03125 0.34375zm0.40625 -6.421875q0 0.375 0.125 0.6875q0.125 0.3125 0.34375 0.53125q0.234375 0.21875 0.546875 0.34375q0.3125 0.109375 0.6875 0.109375q0.40625 0 0.71875 -0.125q0.3125 -0.140625 0.53125 -0.375q0.21875 -0.234375 0.328125 -0.53125q0.109375 -0.3125 0.109375 -0.640625q0 -0.375 -0.125 -0.6875q-0.125 -0.3125 -0.359375 -0.53125q-0.21875 -0.21875 -0.53125 -0.34375q-0.296875 -0.125 -0.671875 -0.125q-0.40625 0 -0.734375 0.140625q-0.3125 0.140625 -0.53125 0.375q-0.203125 0.234375 -0.328125 0.546875q-0.109375 0.296875 -0.109375 0.625zm14.078125 0.9375q0 0.296875 -0.015625 0.5q0 0.1875 -0.015625 0.359375l-5.5 0q0 1.203125 0.671875 1.84375q0.671875 0.640625 1.9375 0.640625q0.34375 0 0.6875 -0.015625q0.34375 -0.03125 0.65625 -0.078125q0.328125 -0.046875 0.609375 -0.109375q0.296875 -0.0625 0.546875 -0.125l0 1.109375q-0.546875 0.15625 -1.25 0.25q-0.703125 0.109375 -1.453125 0.109375q-1.0 0 -1.734375 -0.265625q-0.71875 -0.28125 -1.1875 -0.796875q-0.46875 -0.53125 -0.6875 -1.28125q-0.21875 -0.75 -0.21875 -1.703125q0 -0.828125 0.234375 -1.5625q0.234375 -0.75 0.6875 -1.296875q0.46875 -0.5625 1.125 -0.890625q0.671875 -0.328125 1.515625 -0.328125q0.8125 0 1.4375 0.265625q0.640625 0.25 1.078125 0.71875q0.4375 0.46875 0.65625 1.15625q0.21875 0.671875 0.21875 1.5zm-1.40625 -0.1875q0.015625 -0.53125 -0.109375 -0.953125q-0.125 -0.4375 -0.390625 -0.75q-0.25 -0.3125 -0.640625 -0.484375q-0.390625 -0.1875 -0.90625 -0.1875q-0.453125 0 -0.828125 0.171875q-0.359375 0.171875 -0.625 0.484375q-0.265625 0.3125 -0.4375 0.75q-0.15625 0.4375 -0.1875 0.96875l4.125 0zm9.90625 4.421875q-0.46875 0.125 -0.96875 0.171875q-0.484375 0.046875 -0.984375 0.046875q-1.484375 0 -2.21875 -0.671875q-0.71875 -0.671875 -0.71875 -2.046875l0 -4.09375l-2.1875 0l0 -1.140625l2.1875 0l0 -2.15625l1.359375 -0.359375l0 2.515625l3.53125 0l0 1.140625l-3.53125 0l0 3.984375q0 0.84375 0.453125 1.265625q0.453125 0.40625 1.328125 0.40625q0.375 0 0.8125 -0.046875q0.453125 -0.0625 0.9375 -0.1875l0 1.171875zm17.78125 -4.9375l-6.71875 0l0 -1.15625l6.71875 0l0 1.15625zm0 2.71875l-6.71875 0l0 -1.15625l6.71875 0l0 1.15625zm17.515625 -0.78125q0 0.671875 -0.28125 1.265625q-0.265625 0.59375 -0.8125 1.03125q-0.546875 0.4375 -1.375 0.703125q-0.828125 0.25 -1.9375 0.25q-0.609375 0 -1.09375 -0.046875q-0.484375 -0.03125 -0.90625 -0.09375l0 -1.21875q0.484375 0.078125 1.015625 0.125q0.546875 0.046875 1.109375 0.046875q0.765625 0 1.3125 -0.125q0.546875 -0.140625 0.890625 -0.390625q0.34375 -0.265625 0.5 -0.625q0.15625 -0.375 0.15625 -0.84375q0 -0.421875 -0.1875 -0.734375q-0.1875 -0.3125 -0.53125 -0.515625q-0.34375 -0.21875 -0.8125 -0.3125q-0.46875 -0.109375 -1.03125 -0.109375l-1.171875 0l0 -1.125l1.1875 0q0.453125 0 0.828125 -0.109375q0.390625 -0.125 0.65625 -0.34375q0.265625 -0.234375 0.40625 -0.5625q0.15625 -0.34375 0.15625 -0.765625q0 -0.8125 -0.5 -1.1875q-0.5 -0.375 -1.46875 -0.375q-0.515625 0 -1.0625 0.109375q-0.546875 0.09375 -1.171875 0.296875l0 -1.1875q0.265625 -0.09375 0.5625 -0.171875q0.296875 -0.078125 0.59375 -0.125q0.3125 -0.046875 0.609375 -0.078125q0.296875 -0.03125 0.5625 -0.03125q0.8125 0 1.421875 0.1875q0.625 0.171875 1.03125 0.5q0.421875 0.328125 0.625 0.796875q0.21875 0.46875 0.21875 1.046875q0 0.875 -0.453125 1.46875q-0.4375 0.59375 -1.21875 0.953125q0.390625 0.0625 0.78125 0.25q0.390625 0.1875 0.6875 0.484375q0.3125 0.28125 0.5 0.6875q0.203125 0.390625 0.203125 0.875zm5.453125 0.640625q0.265625 0 0.5 0.109375q0.234375 0.09375 0.40625 0.28125q0.1875 0.171875 0.28125 0.421875q0.109375 0.234375 0.109375 0.5q0 0.265625 -0.109375 0.5q-0.09375 0.234375 -0.28125 0.421875q-0.171875 0.171875 -0.40625 0.265625q-0.234375 0.109375 -0.5 0.109375q-0.28125 0 -0.515625 -0.109375q-0.234375 -0.09375 -0.40625 -0.265625q-0.171875 -0.1875 -0.28125 -0.421875q-0.09375 -0.234375 -0.09375 -0.5q0 -0.265625 0.09375 -0.5q0.109375 -0.25 0.28125 -0.421875q0.171875 -0.1875 0.40625 -0.28125q0.234375 -0.109375 0.515625 -0.109375z" fill-rule="nonzero"></path><path fill="#000000" d="m48.040928 41.218063q0 0.40625 -0.140625 0.734375q-0.140625 0.328125 -0.390625 0.59375q-0.234375 0.25 -0.5625 0.4375q-0.3125 0.171875 -0.6875 0.296875q-0.359375 0.109375 -0.75 0.15625q-0.375 0.0625 -0.734375 0.0625q-0.796875 0 -1.46875 -0.078125q-0.671875 -0.0625 -1.3125 -0.21875l0 -1.25q0.6875 0.1875 1.359375 0.296875q0.6875 0.09375 1.359375 0.09375q0.984375 0 1.453125 -0.265625q0.46875 -0.265625 0.46875 -0.75q0 -0.21875 -0.078125 -0.375q-0.078125 -0.171875 -0.28125 -0.328125q-0.1875 -0.15625 -0.59375 -0.3125q-0.40625 -0.171875 -1.125 -0.375q-0.53125 -0.15625 -0.984375 -0.359375q-0.4375 -0.203125 -0.765625 -0.46875q-0.328125 -0.28125 -0.515625 -0.640625q-0.1875 -0.375 -0.1875 -0.875q0 -0.328125 0.140625 -0.71875q0.15625 -0.390625 0.515625 -0.71875q0.375 -0.34375 1.0 -0.5625q0.625 -0.21875 1.5625 -0.21875q0.46875 0 1.03125 0.046875q0.5625 0.046875 1.171875 0.171875l0 1.21875q-0.640625 -0.15625 -1.21875 -0.234375q-0.578125 -0.078125 -1.0 -0.078125q-0.5 0 -0.859375 0.078125q-0.34375 0.078125 -0.5625 0.21875q-0.203125 0.140625 -0.296875 0.328125q-0.09375 0.171875 -0.09375 0.390625q0 0.203125 0.078125 0.375q0.078125 0.171875 0.296875 0.34375q0.234375 0.15625 0.625 0.3125q0.40625 0.15625 1.046875 0.34375q0.6875 0.203125 1.15625 0.4375q0.484375 0.21875 0.78125 0.5q0.296875 0.265625 0.421875 0.609375q0.140625 0.34375 0.140625 0.78125zm8.890625 2.140625l-1.21875 0l-0.046875 -1.265625q-0.359375 0.40625 -0.671875 0.671875q-0.3125 0.265625 -0.625 0.4375q-0.3125 0.171875 -0.640625 0.234375q-0.3125 0.0625 -0.65625 0.0625q-1.21875 0 -1.84375 -0.703125q-0.609375 -0.71875 -0.609375 -2.15625l0 -5.125l1.359375 0l0 5.015625q0 1.796875 1.359375 1.796875q0.25 0 0.484375 -0.0625q0.25 -0.078125 0.5 -0.265625q0.265625 -0.1875 0.5625 -0.5q0.3125 -0.3125 0.6875 -0.78125l0 -5.203125l1.359375 0l0 7.84375zm8.078129 0l0 -5.640625q0 -0.359375 -0.03125 -0.59375q-0.015625 -0.234375 -0.078125 -0.375q-0.0625 -0.140625 -0.15625 -0.1875q-0.078125 -0.0625 -0.21875 -0.0625q-0.15625 0 -0.296875 0.09375q-0.125 0.09375 -0.2812538 0.3125q-0.140625 0.203125 -0.328125 0.5625q-0.1875 0.34375 -0.4375 0.84375l0 5.046875l-1.234375 0l0 -5.484375q0 -0.4375 -0.03125 -0.703125q-0.03125 -0.265625 -0.09375 -0.40625q-0.046875 -0.15625 -0.140625 -0.203125q-0.09375 -0.0625 -0.234375 -0.0625q-0.140625 0 -0.265625 0.078125q-0.125 0.078125 -0.28125 0.28125q-0.140625 0.203125 -0.328125 0.5625q-0.1875 0.34375 -0.453125 0.890625l0 5.046875l-1.25 0l0 -7.84375l1.046875 0l0.0625 1.484375q0.203125 -0.4375 0.390625 -0.75q0.1875 -0.3125 0.390625 -0.5q0.203125 -0.203125 0.4375 -0.28125q0.234375 -0.09375 0.515625 -0.09375q0.625 0 0.953125 0.421875q0.328125 0.40625 0.328125 1.265625q0.1875 -0.40625 0.359375 -0.71875q0.1875 -0.3125 0.390625 -0.53125q0.21875 -0.21875 0.4687538 -0.328125q0.25 -0.109375 0.578125 -0.109375q1.46875 0 1.46875 2.265625l0 5.71875l-1.25 0zm18.515625 -5.046875l-6.71875 0l0 -1.15625l6.71875 0l0 1.15625zm0 2.71875l-6.71875 0l0 -1.15625l6.71875 0l0 1.15625zm17.453125 -0.9375q0 0.75 -0.328125 1.375q-0.328125 0.625 -0.90625 1.078125q-0.578125 0.453125 -1.359375 0.703125q-0.78125 0.25 -1.6875 0.25q-0.21875 0 -0.484375 -0.015625q-0.265625 0 -0.53125 -0.03125q-0.25 -0.015625 -0.5 -0.046875q-0.234375 -0.015625 -0.4375 -0.046875l0 -1.234375q0.421875 0.09375 0.96875 0.140625q0.546875 0.046875 1.09375 0.046875q0.625 0 1.125 -0.140625q0.5 -0.15625 0.84375 -0.421875q0.359375 -0.28125 0.546875 -0.671875q0.1875 -0.40625 0.1875 -0.890625q0 -0.953125 -0.6875 -1.390625q-0.671875 -0.4375 -1.953125 -0.4375l-1.9375 0l0 -5.21875l5.5 0l0 1.1875l-4.21875 0l0 2.875l0.890625 0q0.734375 0 1.421875 0.140625q0.703125 0.125 1.234375 0.453125q0.546875 0.328125 0.875 0.890625q0.34375 0.5625 0.34375 1.40625zm5.515625 0.796875q0.265625 0 0.5 0.109375q0.234375 0.09375 0.40625 0.28125q0.1875 0.171875 0.28125 0.421875q0.109375 0.234375 0.109375 0.5q0 0.265625 -0.109375 0.5q-0.09375 0.234375 -0.28125 0.421875q-0.171875 0.171875 -0.40625 0.265625q-0.234375 0.109375 -0.5 0.109375q-0.28125 0 -0.515625 -0.109375q-0.234375 -0.09375 -0.40625 -0.265625q-0.171875 -0.1875 -0.28125 -0.421875q-0.09375 -0.234375 -0.09375 -0.5q0 -0.265625 0.09375 -0.5q0.109375 -0.25 0.28125 -0.421875q0.171875 -0.1875 0.40625 -0.28125q0.234375 -0.109375 0.515625 -0.109375zm21.46875 2.46875l-1.578125 0l-1.515625 -3.265625q-0.171875 -0.375 -0.359375 -0.625q-0.171875 -0.25 -0.390625 -0.390625q-0.203125 -0.140625 -0.453125 -0.203125q-0.234375 -0.0625 -0.546875 -0.0625l-0.65625 0l0 4.546875l-1.390625 0l0 -10.21875l2.734375 0q0.890625 0 1.53125 0.203125q0.640625 0.1875 1.046875 0.546875q0.421875 0.34375 0.609375 0.84375q0.1875 0.5 0.1875 1.09375q0 0.484375 -0.140625 0.90625q-0.140625 0.421875 -0.421875 0.78125q-0.265625 0.34375 -0.6875 0.59375q-0.40625 0.25 -0.9375 0.375q0.4375 0.15625 0.734375 0.53125q0.296875 0.359375 0.609375 0.984375l1.625 3.359375zm-2.234375 -7.40625q0 -0.828125 -0.515625 -1.234375q-0.5 -0.40625 -1.4375 -0.40625l-1.3125 0l0 3.375l1.125 0q0.5 0 0.890625 -0.109375q0.390625 -0.109375 0.671875 -0.328125q0.28125 -0.234375 0.421875 -0.546875q0.15625 -0.328125 0.15625 -0.75zm9.109367 7.40625l-0.03125 -1.0625q-0.640625 0.640625 -1.3125 0.921875q-0.65625 0.28125 -1.375 0.28125q-0.671875 0 -1.15625 -0.171875q-0.46875 -0.171875 -0.78125 -0.46875q-0.3125 -0.3125 -0.453125 -0.71875q-0.140625 -0.40625 -0.140625 -0.875q0 -1.1875 0.875 -1.84375q0.875 -0.671875 2.59375 -0.671875l1.625 0l0 -0.6875q0 -0.703125 -0.453125 -1.109375q-0.4375 -0.421875 -1.34375 -0.421875q-0.671875 0 -1.3125 0.15625q-0.640625 0.140625 -1.328125 0.40625l0 -1.21875q0.25 -0.09375 0.5625 -0.1875q0.328125 -0.09375 0.671875 -0.15625q0.359375 -0.078125 0.734375 -0.109375q0.390625 -0.046875 0.78125 -0.046875q0.703125 0 1.265625 0.15625q0.578125 0.15625 0.96875 0.484375q0.40625 0.3125 0.609375 0.796875q0.21875 0.484375 0.21875 1.140625l0 5.40625l-1.21875 0zm-0.15625 -3.578125l-1.71875 0q-0.515625 0 -0.890625 0.109375q-0.359375 0.09375 -0.59375 0.28125q-0.234375 0.1875 -0.34375 0.453125q-0.109375 0.265625 -0.109375 0.59375q0 0.21875 0.0625 0.4375q0.078125 0.203125 0.234375 0.359375q0.15625 0.15625 0.40625 0.25q0.25 0.09375 0.609375 0.09375q0.46875 0 1.0625 -0.28125q0.609375 -0.28125 1.28125 -0.90625l0 -1.390625zm3.90625 -4.265625l1.21875 0l0.046875 1.265625q0.34375 -0.40625 0.65625 -0.671875q0.328125 -0.28125 0.640625 -0.4375q0.3125 -0.171875 0.625 -0.234375q0.328125 -0.0625 0.671875 -0.0625q1.203125 0 1.828125 0.71875q0.625 0.703125 0.625 2.140625l0 5.125l-1.359375 0l0 -5.015625q0 -0.921875 -0.34375 -1.359375q-0.34375 -0.4375 -1.03125 -0.4375q-0.25 0 -0.484375 0.078125q-0.234375 0.0625 -0.5 0.25q-0.25 0.1875 -0.5625 0.5q-0.296875 0.3125 -0.671875 0.78125l0 5.203125l-1.359375 0l0 -7.84375zm14.453125 1.109375q0.21875 0.265625 0.328125 0.640625q0.125 0.359375 0.125 0.78125q0 0.609375 -0.21875 1.109375q-0.21875 0.5 -0.625 0.859375q-0.40625 0.359375 -0.984375 0.5625q-0.5625 0.203125 -1.234375 0.203125q-0.5 0 -0.9375 -0.109375q-0.421875 -0.109375 -0.671875 -0.265625q-0.140625 0.21875 -0.25 0.421875q-0.09375 0.1875 -0.09375 0.4375q0 0.296875 0.28125 0.5q0.28125 0.1875 0.75 0.203125l2.0625 0.078125q0.59375 0.015625 1.078125 0.15625q0.5 0.125 0.859375 0.375q0.359375 0.25 0.546875 0.625q0.203125 0.359375 0.203125 0.84375q0 0.53125 -0.234375 1.0q-0.21875 0.46875 -0.6875 0.8125q-0.46875 0.359375 -1.203125 0.5625q-0.71875 0.21875 -1.71875 0.21875q-0.953125 0 -1.625 -0.15625q-0.671875 -0.140625 -1.109375 -0.421875q-0.421875 -0.265625 -0.625 -0.640625q-0.1875 -0.359375 -0.1875 -0.8125q0 -0.5625 0.265625 -1.0q0.265625 -0.4375 0.828125 -0.828125q-0.203125 -0.09375 -0.359375 -0.234375q-0.140625 -0.140625 -0.234375 -0.3125q-0.09375 -0.171875 -0.140625 -0.359375q-0.046875 -0.1875 -0.046875 -0.359375q0 -0.515625 0.234375 -0.9375q0.234375 -0.421875 0.5625 -0.796875q-0.140625 -0.171875 -0.265625 -0.34375q-0.109375 -0.171875 -0.1875 -0.375q-0.078125 -0.203125 -0.125 -0.421875q-0.046875 -0.234375 -0.046875 -0.53125q0 -0.609375 0.21875 -1.109375q0.234375 -0.515625 0.625 -0.875q0.40625 -0.359375 0.96875 -0.546875q0.578125 -0.203125 1.265625 -0.203125q0.28125 0 0.546875 0.046875q0.265625 0.03125 0.46875 0.09375l2.84375 0l0 1.109375l-1.25 0zm-4.71875 7.875q0 0.546875 0.578125 0.796875q0.578125 0.265625 1.609375 0.265625q0.640625 0 1.078125 -0.125q0.453125 -0.109375 0.71875 -0.3125q0.265625 -0.1875 0.375 -0.4375q0.125 -0.234375 0.125 -0.5q0 -0.46875 -0.390625 -0.703125q-0.390625 -0.234375 -1.1875 -0.265625l-2.046875 -0.078125q-0.265625 0.171875 -0.4375 0.34375q-0.15625 0.171875 -0.25 0.328125q-0.09375 0.171875 -0.140625 0.34375q-0.03125 0.171875 -0.03125 0.34375zm0.40625 -6.421875q0 0.375 0.125 0.6875q0.125 0.3125 0.34375 0.53125q0.234375 0.21875 0.546875 0.34375q0.3125 0.109375 0.6875 0.109375q0.40625 0 0.71875 -0.125q0.3125 -0.140625 0.53125 -0.375q0.21875 -0.234375 0.328125 -0.53125q0.109375 -0.3125 0.109375 -0.640625q0 -0.375 -0.125 -0.6875q-0.125 -0.3125 -0.359375 -0.53125q-0.21875 -0.21875 -0.53125 -0.34375q-0.296875 -0.125 -0.671875 -0.125q-0.40625 0 -0.734375 0.140625q-0.3125 0.140625 -0.53125 0.375q-0.203125 0.234375 -0.328125 0.546875q-0.109375 0.296875 -0.109375 0.625zm14.078125 0.9375q0 0.296875 -0.015625 0.5q0 0.1875 -0.015625 0.359375l-5.5 0q0 1.203125 0.671875 1.84375q0.671875 0.640625 1.9375 0.640625q0.34375 0 0.6875 -0.015625q0.34375 -0.03125 0.65625 -0.078125q0.328125 -0.046875 0.609375 -0.109375q0.296875 -0.0625 0.546875 -0.125l0 1.109375q-0.546875 0.15625 -1.25 0.25q-0.703125 0.109375 -1.453125 0.109375q-1.0 0 -1.734375 -0.265625q-0.71875 -0.28125 -1.1875 -0.796875q-0.46875 -0.53125 -0.6875 -1.28125q-0.21875 -0.75 -0.21875 -1.703125q0 -0.828125 0.234375 -1.5625q0.234375 -0.75 0.6875 -1.296875q0.46875 -0.5625 1.125 -0.890625q0.671875 -0.328125 1.515625 -0.328125q0.8125 0 1.4375 0.265625q0.640625 0.25 1.078125 0.71875q0.4375 0.46875 0.65625 1.15625q0.21875 0.671875 0.21875 1.5zm-1.40625 -0.1875q0.015625 -0.53125 -0.109375 -0.953125q-0.125 -0.4375 -0.390625 -0.75q-0.25 -0.3125 -0.640625 -0.484375q-0.390625 -0.1875 -0.90625 -0.1875q-0.453125 0 -0.828125 0.171875q-0.359375 0.171875 -0.625 0.484375q-0.265625 0.3125 -0.4375 0.75q-0.15625 0.4375 -0.1875 0.96875l4.125 0zm18.890625 -0.515625l-6.71875 0l0 -1.15625l6.71875 0l0 1.15625zm0 2.71875l-6.71875 0l0 -1.15625l6.71875 0l0 1.15625zm16.375 5.53125l-3.84375 0l0 -14.515625l3.84375 0l0 1.09375l-2.546875 0l0 12.328125l2.546875 0l0 1.09375zm8.984375 -6.828125l-4.671875 0l0 -1.28125l4.671875 0l0 1.28125zm9.6875 0.359375q0 0.75 -0.328125 1.375q-0.328125 0.625 -0.90625 1.078125q-0.578125 0.453125 -1.359375 0.703125q-0.78125 0.25 -1.6875 0.25q-0.21875 0 -0.484375 -0.015625q-0.265625 0 -0.53125 -0.03125q-0.25 -0.015625 -0.5 -0.046875q-0.234375 -0.015625 -0.4375 -0.046875l0 -1.234375q0.421875 0.09375 0.96875 0.140625q0.546875 0.046875 1.09375 0.046875q0.625 0 1.125 -0.140625q0.5 -0.15625 0.84375 -0.421875q0.359375 -0.28125 0.546875 -0.671875q0.1875 -0.40625 0.1875 -0.890625q0 -0.953125 -0.6875 -1.390625q-0.671875 -0.4375 -1.953125 -0.4375l-1.9375 0l0 -5.21875l5.5 0l0 1.1875l-4.21875 0l0 2.875l0.890625 0q0.734375 0 1.421875 0.140625q0.703125 0.125 1.234375 0.453125q0.546875 0.328125 0.875 0.890625q0.34375 0.5625 0.34375 1.40625zm3.03125 4.875q0.40625 0.015625 0.78125 -0.078125q0.375 -0.078125 0.65625 -0.25q0.28125 -0.171875 0.453125 -0.421875q0.171875 -0.25 0.171875 -0.5625q0 -0.34375 -0.109375 -0.546875q-0.109375 -0.203125 -0.25 -0.375q-0.140625 -0.171875 -0.265625 -0.359375q-0.109375 -0.203125 -0.109375 -0.53125q0 -0.15625 0.0625 -0.328125q0.0625 -0.1875 0.1875 -0.328125q0.140625 -0.15625 0.328125 -0.25q0.203125 -0.09375 0.484375 -0.09375q0.265625 0 0.515625 0.109375q0.265625 0.109375 0.453125 0.34375q0.1875 0.234375 0.296875 0.59375q0.125 0.34375 0.125 0.828125q0 0.65625 -0.25 1.25q-0.234375 0.59375 -0.703125 1.046875q-0.46875 0.46875 -1.1875 0.734375q-0.703125 0.28125 -1.640625 0.28125l0 -1.0625zm23.359375 -4.875q0 0.75 -0.328125 1.375q-0.328125 0.625 -0.90625 1.078125q-0.578125 0.453125 -1.359375 0.703125q-0.78125 0.25 -1.6875 0.25q-0.21875 0 -0.484375 -0.015625q-0.265625 0 -0.53125 -0.03125q-0.25 -0.015625 -0.5 -0.046875q-0.234375 -0.015625 -0.4375 -0.046875l0 -1.234375q0.421875 0.09375 0.96875 0.140625q0.546875 0.046875 1.09375 0.046875q0.625 0 1.125 -0.140625q0.5 -0.15625 0.84375 -0.421875q0.359375 -0.28125 0.546875 -0.671875q0.1875 -0.40625 0.1875 -0.890625q0 -0.953125 -0.6875 -1.390625q-0.671875 -0.4375 -1.953125 -0.4375l-1.9375 0l0 -5.21875l5.5 0l0 1.1875l-4.21875 0l0 2.875l0.890625 0q0.734375 0 1.421875 0.140625q0.703125 0.125 1.234375 0.453125q0.546875 0.328125 0.875 0.890625q0.34375 0.5625 0.34375 1.40625zm7.28125 6.46875l-3.859375 0l0 -1.09375l2.546875 0l0 -12.328125l-2.546875 0l0 -1.09375l3.859375 0l0 14.515625z" fill-rule="nonzero"></path><path fill="#000000" fill-opacity="0.0" d="m31.572178 382.6168l255.43307 0l0 29.795288l-255.43307 0z" fill-rule="evenodd"></path><path fill="#ff0000" d="m48.040928 404.83618q0 0.40625 -0.140625 0.734375q-0.140625 0.328125 -0.390625 0.59375q-0.234375 0.25 -0.5625 0.4375q-0.3125 0.171875 -0.6875 0.296875q-0.359375 0.109375 -0.75 0.15625q-0.375 0.0625 -0.734375 0.0625q-0.796875 0 -1.46875 -0.078125q-0.671875 -0.0625 -1.3125 -0.21875l0 -1.25q0.6875 0.1875 1.359375 0.296875q0.6875 0.09375 1.359375 0.09375q0.984375 0 1.453125 -0.265625q0.46875 -0.265625 0.46875 -0.75q0 -0.21875 -0.078125 -0.375q-0.078125 -0.171875 -0.28125 -0.328125q-0.1875 -0.15625 -0.59375 -0.3125q-0.40625 -0.171875 -1.125 -0.375q-0.53125 -0.15625 -0.984375 -0.359375q-0.4375 -0.203125 -0.765625 -0.46875q-0.328125 -0.28125 -0.515625 -0.640625q-0.1875 -0.375 -0.1875 -0.875q0 -0.328125 0.140625 -0.71875q0.15625 -0.390625 0.515625 -0.71875q0.375 -0.34375 1.0 -0.5625q0.625 -0.21875 1.5625 -0.21875q0.46875 0 1.03125 0.046875q0.5625 0.046875 1.171875 0.171875l0 1.21875q-0.640625 -0.15625 -1.21875 -0.234375q-0.578125 -0.078125 -1.0 -0.078125q-0.5 0 -0.859375 0.078125q-0.34375 0.078125 -0.5625 0.21875q-0.203125 0.140625 -0.296875 0.328125q-0.09375 0.171875 -0.09375 0.390625q0 0.203125 0.078125 0.375q0.078125 0.171875 0.296875 0.34375q0.234375 0.15625 0.625 0.3125q0.40625 0.15625 1.046875 0.34375q0.6875 0.203125 1.15625 0.4375q0.484375 0.21875 0.78125 0.5q0.296875 0.265625 0.421875 0.609375q0.140625 0.34375 0.140625 0.78125zm8.890625 2.140625l-1.21875 0l-0.046875 -1.265625q-0.359375 0.40625 -0.671875 0.671875q-0.3125 0.265625 -0.625 0.4375q-0.3125 0.171875 -0.640625 0.234375q-0.3125 0.0625 -0.65625 0.0625q-1.21875 0 -1.84375 -0.703125q-0.609375 -0.71875 -0.609375 -2.15625l0 -5.125l1.359375 0l0 5.015625q0 1.796875 1.359375 1.796875q0.25 0 0.484375 -0.0625q0.25 -0.078125 0.5 -0.265625q0.265625 -0.1875 0.5625 -0.5q0.3125 -0.3125 0.6875 -0.78125l0 -5.203125l1.359375 0l0 7.84375zm8.078129 0l0 -5.640625q0 -0.359375 -0.03125 -0.59375q-0.015625 -0.234375 -0.078125 -0.375q-0.0625 -0.140625 -0.15625 -0.1875q-0.078125 -0.0625 -0.21875 -0.0625q-0.15625 0 -0.296875 0.09375q-0.125 0.09375 -0.2812538 0.3125q-0.140625 0.203125 -0.328125 0.5625q-0.1875 0.34375 -0.4375 0.84375l0 5.046875l-1.234375 0l0 -5.484375q0 -0.4375 -0.03125 -0.703125q-0.03125 -0.265625 -0.09375 -0.40625q-0.046875 -0.15625 -0.140625 -0.203125q-0.09375 -0.0625 -0.234375 -0.0625q-0.140625 0 -0.265625 0.078125q-0.125 0.078125 -0.28125 0.28125q-0.140625 0.203125 -0.328125 0.5625q-0.1875 0.34375 -0.453125 0.890625l0 5.046875l-1.25 0l0 -7.84375l1.046875 0l0.0625 1.484375q0.203125 -0.4375 0.390625 -0.75q0.1875 -0.3125 0.390625 -0.5q0.203125 -0.203125 0.4375 -0.28125q0.234375 -0.09375 0.515625 -0.09375q0.625 0 0.953125 0.421875q0.328125 0.40625 0.328125 1.265625q0.1875 -0.40625 0.359375 -0.71875q0.1875 -0.3125 0.390625 -0.53125q0.21875 -0.21875 0.4687538 -0.328125q0.25 -0.109375 0.578125 -0.109375q1.46875 0 1.46875 2.265625l0 5.71875l-1.25 0zm18.828125 -3.984375q0 0.90625 -0.265625 1.671875q-0.25 0.765625 -0.734375 1.3125q-0.484375 0.53125 -1.1875 0.84375q-0.6875 0.296875 -1.5625 0.296875q-0.84375 0 -1.515625 -0.265625q-0.671875 -0.265625 -1.140625 -0.765625q-0.453125 -0.515625 -0.703125 -1.265625q-0.25 -0.75 -0.25 -1.71875q0 -0.921875 0.25 -1.671875q0.265625 -0.75 0.75 -1.296875q0.484375 -0.546875 1.171875 -0.84375q0.703125 -0.296875 1.59375 -0.296875q0.84375 0 1.5 0.265625q0.671875 0.25 1.140625 0.765625q0.46875 0.5 0.703125 1.25q0.25 0.75 0.25 1.71875zm-1.390625 0.0625q0 -0.734375 -0.15625 -1.265625q-0.15625 -0.546875 -0.453125 -0.90625q-0.296875 -0.375 -0.734375 -0.546875q-0.421875 -0.1875 -0.9375 -0.1875q-0.609375 0 -1.046875 0.234375q-0.4375 0.234375 -0.71875 0.640625q-0.265625 0.390625 -0.40625 0.921875q-0.125 0.53125 -0.125 1.109375q0 0.71875 0.15625 1.265625q0.171875 0.546875 0.46875 0.921875q0.296875 0.359375 0.71875 0.546875q0.421875 0.171875 0.953125 0.171875q0.609375 0 1.03125 -0.234375q0.4375 -0.234375 0.71875 -0.625q0.28125 -0.40625 0.40625 -0.9375q0.125 -0.53125 0.125 -1.109375zm10.328125 -5.859375q-1.078125 -0.21875 -1.84375 -0.21875q-1.84375 0 -1.84375 1.921875l0 1.375l3.4375 0l0 1.125l-3.4375 0l0 5.578125l-1.375 0l0 -5.578125l-2.53125 0l0 -1.125l2.53125 0l0 -1.296875q0 -3.140625 3.265625 -3.140625q0.8125 0 1.796875 0.1875l0 1.171875zm-8.21875 1.9375l0 0zm26.109375 0l-1.140625 7.84375l-1.640625 0l-1.140625 -3.28125l-0.21875 -0.796875l-0.265625 0.84375l-1.078125 3.234375l-1.609375 0l-1.125 -7.84375l1.328125 0l0.65625 5.328125l0.140625 1.1875l0.328125 -1.046875l1.140625 -3.515625l0.984375 0l1.21875 3.46875l0.359375 1.046875l0.109375 -1.109375l0.609375 -5.359375l1.34375 0zm6.828125 11.046875l-3.84375 0l0 -14.515625l3.84375 0l0 1.09375l-2.546875 0l0 12.328125l2.546875 0l0 1.09375zm9.875 -6.46875q0 0.75 -0.328125 1.375q-0.328125 0.625 -0.90625 1.078125q-0.578125 0.453125 -1.359375 0.703125q-0.78125 0.25 -1.6875 0.25q-0.21875 0 -0.484375 -0.015625q-0.265625 0 -0.53125 -0.03125q-0.25 -0.015625 -0.5 -0.046875q-0.234375 -0.015625 -0.4375 -0.046875l0 -1.234375q0.421875 0.09375 0.96875 0.140625q0.546875 0.046875 1.09375 0.046875q0.625 0 1.125 -0.140625q0.5 -0.15625 0.84375 -0.421875q0.359375 -0.28125 0.546875 -0.671875q0.1875 -0.40625 0.1875 -0.890625q0 -0.953125 -0.6875 -1.390625q-0.671875 -0.4375 -1.953125 -0.4375l-1.9375 0l0 -5.21875l5.5 0l0 1.1875l-4.21875 0l0 2.875l0.890625 0q0.734375 0 1.421875 0.140625q0.703125 0.125 1.234375 0.453125q0.546875 0.328125 0.875 0.890625q0.34375 0.5625 0.34375 1.40625zm7.2812424 6.46875l-3.859375 0l0 -1.09375l2.546875 0l0 -12.328125l-2.546875 0l0 -1.09375l3.859375 0l0 14.515625zm9.234375 0l-3.84375 0l0 -14.515625l3.84375 0l0 1.09375l-2.546875 0l0 12.328125l2.546875 0l0 1.09375zm8.8125 -11.046875l0 7.703125q0 0.828125 -0.234375 1.453125q-0.234375 0.640625 -0.671875 1.078125q-0.4375 0.4375 -1.078125 0.65625q-0.625 0.234375 -1.421875 0.234375q-0.578125 0 -1.140625 -0.109375q-0.546875 -0.09375 -0.984375 -0.28125l0 -1.296875q0.234375 0.125 0.515625 0.21875q0.28125 0.109375 0.5625 0.171875q0.296875 0.078125 0.59375 0.109375q0.296875 0.03125 0.578125 0.03125q0.890625 0 1.390625 -0.5625q0.515625 -0.5625 0.515625 -1.65625l0 -6.625l-3.84375 0l0 -1.125l5.21875 0zm-0.8125 -3.296875q0.21875 0 0.40625 0.09375q0.203125 0.078125 0.34375 0.234375q0.15625 0.140625 0.234375 0.34375q0.078125 0.1875 0.078125 0.40625q0 0.21875 -0.078125 0.421875q-0.078125 0.1875 -0.234375 0.34375q-0.140625 0.140625 -0.34375 0.21875q-0.1875 0.078125 -0.40625 0.078125q-0.234375 0 -0.4375 -0.078125q-0.1875 -0.078125 -0.328125 -0.21875q-0.140625 -0.15625 -0.234375 -0.34375q-0.078125 -0.203125 -0.078125 -0.421875q0 -0.21875 0.078125 -0.40625q0.09375 -0.203125 0.234375 -0.34375q0.140625 -0.15625 0.328125 -0.234375q0.203125 -0.09375 0.4375 -0.09375zm9.15625 14.34375l-3.859375 0l0 -1.09375l2.546875 0l0 -12.328125l-2.546875 0l0 -1.09375l3.859375 0l0 14.515625zm15.40625 -9.921875l-2.3125 0l0 -1.125l3.6875 0l0 6.703125l2.34375 0l0 1.140625l-6.296875 0l0 -1.140625l2.578125 0l0 -5.578125zm0.484375 -4.421875q0.21875 0 0.40625 0.09375q0.203125 0.078125 0.34375 0.234375q0.15625 0.140625 0.234375 0.328125q0.078125 0.1875 0.078125 0.421875q0 0.21875 -0.078125 0.421875q-0.078125 0.1875 -0.234375 0.34375q-0.140625 0.140625 -0.34375 0.21875q-0.1875 0.078125 -0.40625 0.078125q-0.234375 0 -0.4375 -0.078125q-0.1875 -0.078125 -0.328125 -0.21875q-0.140625 -0.15625 -0.234375 -0.34375q-0.078125 -0.203125 -0.078125 -0.421875q0 -0.234375 0.078125 -0.421875q0.09375 -0.1875 0.234375 -0.328125q0.140625 -0.15625 0.328125 -0.234375q0.203125 -0.09375 0.4375 -0.09375zm11.859375 9.0q0 0.40625 -0.140625 0.734375q-0.140625 0.328125 -0.390625 0.59375q-0.234375 0.25 -0.5625 0.4375q-0.3125 0.171875 -0.6875 0.296875q-0.359375 0.109375 -0.75 0.15625q-0.375 0.0625 -0.734375 0.0625q-0.796875 0 -1.46875 -0.078125q-0.671875 -0.0625 -1.3125 -0.21875l0 -1.25q0.6875 0.1875 1.359375 0.296875q0.6875 0.09375 1.359375 0.09375q0.984375 0 1.453125 -0.265625q0.46875 -0.265625 0.46875 -0.75q0 -0.21875 -0.078125 -0.375q-0.078125 -0.171875 -0.28125 -0.328125q-0.1875 -0.15625 -0.59375 -0.3125q-0.40625 -0.171875 -1.125 -0.375q-0.53125 -0.15625 -0.984375 -0.359375q-0.4375 -0.203125 -0.765625 -0.46875q-0.328125 -0.28125 -0.515625 -0.640625q-0.1875 -0.375 -0.1875 -0.875q0 -0.328125 0.140625 -0.71875q0.15625 -0.390625 0.515625 -0.71875q0.375 -0.34375 1.0 -0.5625q0.625 -0.21875 1.5625 -0.21875q0.46875 0 1.03125 0.046875q0.5625 0.046875 1.171875 0.171875l0 1.21875q-0.640625 -0.15625 -1.21875 -0.234375q-0.578125 -0.078125 -1.0 -0.078125q-0.5 0 -0.859375 0.078125q-0.34375 0.078125 -0.5625 0.21875q-0.203125 0.140625 -0.296875 0.328125q-0.09375 0.171875 -0.09375 0.390625q0 0.203125 0.078125 0.375q0.078125 0.171875 0.296875 0.34375q0.234375 0.15625 0.625 0.3125q0.40625 0.15625 1.046875 0.34375q0.6875 0.203125 1.15625 0.4375q0.484375 0.21875 0.78125 0.5q0.296875 0.265625 0.421875 0.609375q0.140625 0.34375 0.140625 0.78125zm17.8125 -0.96875q0 0.671875 -0.28125 1.265625q-0.265625 0.59375 -0.8125 1.03125q-0.546875 0.4375 -1.375 0.703125q-0.828125 0.25 -1.9375 0.25q-0.609375 0 -1.09375 -0.046875q-0.484375 -0.03125 -0.90625 -0.09375l0 -1.21875q0.484375 0.078125 1.015625 0.125q0.546875 0.046875 1.109375 0.046875q0.765625 0 1.3125 -0.125q0.546875 -0.140625 0.890625 -0.390625q0.34375 -0.265625 0.5 -0.625q0.15625 -0.375 0.15625 -0.84375q0 -0.421875 -0.1875 -0.734375q-0.1875 -0.3125 -0.53125 -0.515625q-0.34375 -0.21875 -0.8125 -0.3125q-0.46875 -0.109375 -1.03125 -0.109375l-1.171875 0l0 -1.125l1.1875 0q0.453125 0 0.828125 -0.109375q0.390625 -0.125 0.65625 -0.34375q0.265625 -0.234375 0.40625 -0.5625q0.15625 -0.34375 0.15625 -0.765625q0 -0.8125 -0.5 -1.1875q-0.5 -0.375 -1.46875 -0.375q-0.515625 0 -1.0625 0.109375q-0.546875 0.09375 -1.171875 0.296875l0 -1.1875q0.265625 -0.09375 0.5625 -0.171875q0.296875 -0.078125 0.59375 -0.125q0.3125 -0.046875 0.609375 -0.078125q0.296875 -0.03125 0.5625 -0.03125q0.8125 0 1.421875 0.1875q0.625 0.171875 1.03125 0.5q0.421875 0.328125 0.625 0.796875q0.21875 0.46875 0.21875 1.046875q0 0.875 -0.453125 1.46875q-0.4375 0.59375 -1.21875 0.953125q0.390625 0.0625 0.78125 0.25q0.390625 0.1875 0.6875 0.484375q0.3125 0.28125 0.5 0.6875q0.203125 0.390625 0.203125 0.875zm8.984375 3.109375l-6.71875 0l0 -1.21875l2.640625 -2.625q0.640625 -0.640625 1.046875 -1.109375q0.40625 -0.46875 0.625 -0.859375q0.234375 -0.390625 0.3125 -0.734375q0.078125 -0.34375 0.078125 -0.734375q0 -0.375 -0.109375 -0.71875q-0.09375 -0.34375 -0.3125 -0.59375q-0.203125 -0.265625 -0.546875 -0.40625q-0.328125 -0.15625 -0.796875 -0.15625q-0.640625 0 -1.171875 0.296875q-0.53125 0.28125 -0.984375 0.75l-0.75 -0.90625q0.578125 -0.609375 1.328125 -0.96875q0.765625 -0.375 1.765625 -0.375q0.671875 0 1.234375 0.203125q0.5625 0.203125 0.96875 0.59375q0.40625 0.375 0.625 0.9375q0.21875 0.546875 0.21875 1.25q0 0.578125 -0.15625 1.078125q-0.15625 0.5 -0.46875 1.0q-0.3125 0.5 -0.796875 1.03125q-0.484375 0.53125 -1.140625 1.15625l-1.84375 1.8125l4.953125 0l0 1.296875zm17.484375 -5.046875l-6.71875 0l0 -1.15625l6.71875 0l0 1.15625zm0 2.71875l-6.71875 0l0 -1.15625l6.71875 0l0 1.15625zm17.703125 2.328125l-6.71875 0l0 -1.21875l2.640625 -2.625q0.640625 -0.640625 1.046875 -1.109375q0.40625 -0.46875 0.625 -0.859375q0.234375 -0.390625 0.3125 -0.734375q0.078125 -0.34375 0.078125 -0.734375q0 -0.375 -0.109375 -0.71875q-0.09375 -0.34375 -0.3125 -0.59375q-0.203125 -0.265625 -0.546875 -0.40625q-0.328125 -0.15625 -0.796875 -0.15625q-0.640625 0 -1.171875 0.296875q-0.53125 0.28125 -0.984375 0.75l-0.75 -0.90625q0.578125 -0.609375 1.328125 -0.96875q0.765625 -0.375 1.765625 -0.375q0.671875 0 1.234375 0.203125q0.5625 0.203125 0.96875 0.59375q0.40625 0.375 0.625 0.9375q0.21875 0.546875 0.21875 1.25q0 0.578125 -0.15625 1.078125q-0.15625 0.5 -0.46875 1.0q-0.3125 0.5 -0.796875 1.03125q-0.484375 0.53125 -1.140625 1.15625l-1.84375 1.8125l4.953125 0l0 1.296875zm8.84375 -5.21875l-1.359375 0l-2.25 -3.921875l-2.125 3.921875l-1.234375 0l2.859375 -5.0l1.109375 0l3.0 5.0zm8.5 1.953125q0 0.75 -0.328125 1.375q-0.328125 0.625 -0.90625 1.078125q-0.578125 0.453125 -1.359375 0.703125q-0.78125 0.25 -1.6875 0.25q-0.21875 0 -0.484375 -0.015625q-0.265625 0 -0.53125 -0.03125q-0.25 -0.015625 -0.5 -0.046875q-0.234375 -0.015625 -0.4375 -0.046875l0 -1.234375q0.421875 0.09375 0.96875 0.140625q0.546875 0.046875 1.09375 0.046875q0.625 0 1.125 -0.140625q0.5 -0.15625 0.84375 -0.421875q0.359375 -0.28125 0.546875 -0.671875q0.1875 -0.40625 0.1875 -0.890625q0 -0.953125 -0.6875 -1.390625q-0.671875 -0.4375 -1.953125 -0.4375l-1.9375 0l0 -5.21875l5.5 0l0 1.1875l-4.21875 0l0 2.875l0.890625 0q0.734375 0 1.421875 0.140625q0.703125 0.125 1.234375 0.453125q0.546875 0.328125 0.875 0.890625q0.34375 0.5625 0.34375 1.40625z" fill-rule="nonzero"></path></g></svg>

